G04 Layer: TopSolderMaskLayer*
G04 EasyEDA v6.4.25, 2022-01-11T20:07:54+10:00*
G04 7104220f9c2d43f39f118c43d8da538e,d80d0e5f2d5a449f809f9e2067d82b7d,10*
G04 Gerber Generator version 0.2*
G04 Scale: 100 percent, Rotated: No, Reflected: No *
G04 Dimensions in millimeters *
G04 leading zeros omitted , absolute positions ,4 integer and 5 decimal *
%FSLAX45Y45*%
%MOMM*%

%ADD57C,1.0016*%
%ADD58C,0.8032*%
%ADD59C,0.4000*%
%ADD60C,0.6756*%
%ADD61C,0.8016*%
%ADD63C,1.7016*%
%ADD64C,1.6764*%
%ADD75C,2.5016*%
%ADD82C,2.6016*%
%ADD90C,2.0016*%

%LPD*%
D57*
X884402Y-7862686D02*
G01*
X884402Y-7972689D01*
X630402Y-7862686D02*
G01*
X630402Y-7972689D01*
X630402Y-8562687D02*
G01*
X630402Y-8672687D01*
X884402Y-8562687D02*
G01*
X884402Y-8672687D01*
D58*
X8267700Y-8382612D02*
G01*
X8267700Y-8290610D01*
X8140700Y-8382612D02*
G01*
X8140700Y-8290610D01*
X8013700Y-8382612D02*
G01*
X8013700Y-8290610D01*
X7886700Y-8382612D02*
G01*
X7886700Y-8290610D01*
X8267700Y-8930589D02*
G01*
X8267700Y-8838590D01*
X8140700Y-8930589D02*
G01*
X8140700Y-8838590D01*
X8013700Y-8930589D02*
G01*
X8013700Y-8838590D01*
X7886700Y-8930589D02*
G01*
X7886700Y-8838590D01*
D59*
X2171844Y-6256444D02*
G01*
X2256696Y-6341295D01*
X2207201Y-6221087D02*
G01*
X2292052Y-6305938D01*
X2242532Y-6185730D02*
G01*
X2327384Y-6270581D01*
X2277915Y-6150373D02*
G01*
X2362766Y-6235225D01*
X2313246Y-6115016D02*
G01*
X2398097Y-6199868D01*
X2348628Y-6079660D02*
G01*
X2433480Y-6164511D01*
X2383960Y-6044328D02*
G01*
X2468811Y-6129180D01*
X2419316Y-6008946D02*
G01*
X2504168Y-6093797D01*
X2454673Y-5973615D02*
G01*
X2539525Y-6058466D01*
X2490030Y-5938232D02*
G01*
X2574881Y-6023084D01*
X2525387Y-5902901D02*
G01*
X2610238Y-5987752D01*
X2560744Y-5867544D02*
G01*
X2645595Y-5952396D01*
X2560744Y-5740280D02*
G01*
X2645595Y-5655429D01*
X2525387Y-5704898D02*
G01*
X2610238Y-5620047D01*
X2490030Y-5669567D02*
G01*
X2574881Y-5584715D01*
X2454673Y-5634184D02*
G01*
X2539525Y-5549333D01*
X2419316Y-5598853D02*
G01*
X2504168Y-5514002D01*
X2383960Y-5563496D02*
G01*
X2468811Y-5478645D01*
X2348628Y-5528139D02*
G01*
X2433480Y-5443288D01*
X2313246Y-5492783D02*
G01*
X2398097Y-5407931D01*
X2277915Y-5457426D02*
G01*
X2362766Y-5372574D01*
X2242532Y-5422069D02*
G01*
X2327384Y-5337218D01*
X2207201Y-5386712D02*
G01*
X2292052Y-5301861D01*
X2171844Y-5351355D02*
G01*
X2256696Y-5266504D01*
X1959729Y-5266504D02*
G01*
X2044580Y-5351355D01*
X1924347Y-5301861D02*
G01*
X2009198Y-5386712D01*
X1889015Y-5337218D02*
G01*
X1973867Y-5422069D01*
X1853633Y-5372574D02*
G01*
X1938484Y-5457426D01*
X1818302Y-5407931D02*
G01*
X1903153Y-5492783D01*
X1782945Y-5443288D02*
G01*
X1867796Y-5528139D01*
X1747588Y-5478645D02*
G01*
X1832439Y-5563496D01*
X1712231Y-5514002D02*
G01*
X1797083Y-5598853D01*
X1676874Y-5549333D02*
G01*
X1761726Y-5634184D01*
X1641518Y-5584715D02*
G01*
X1726369Y-5669567D01*
X1606161Y-5620047D02*
G01*
X1691012Y-5704898D01*
X1570804Y-5655429D02*
G01*
X1655655Y-5740280D01*
X1570804Y-5952396D02*
G01*
X1655655Y-5867544D01*
X1606161Y-5987752D02*
G01*
X1691012Y-5902901D01*
X1641518Y-6023084D02*
G01*
X1726369Y-5938232D01*
X1676874Y-6058466D02*
G01*
X1761726Y-5973615D01*
X1712231Y-6093797D02*
G01*
X1797083Y-6008946D01*
X1747588Y-6129180D02*
G01*
X1832439Y-6044328D01*
X1782945Y-6164511D02*
G01*
X1867796Y-6079660D01*
X1818302Y-6199868D02*
G01*
X1903153Y-6115016D01*
X1853633Y-6235225D02*
G01*
X1938484Y-6150373D01*
X1889015Y-6270581D02*
G01*
X1973867Y-6185730D01*
X1924347Y-6305938D02*
G01*
X2009198Y-6221087D01*
X1959729Y-6341295D02*
G01*
X2044580Y-6256444D01*
D58*
X4927600Y-8382612D02*
G01*
X4927600Y-8290610D01*
X4800600Y-8382612D02*
G01*
X4800600Y-8290610D01*
X4673600Y-8382612D02*
G01*
X4673600Y-8290610D01*
X4546600Y-8382612D02*
G01*
X4546600Y-8290610D01*
X4927600Y-8930589D02*
G01*
X4927600Y-8838590D01*
X4800600Y-8930589D02*
G01*
X4800600Y-8838590D01*
X4673600Y-8930589D02*
G01*
X4673600Y-8838590D01*
X4546600Y-8930589D02*
G01*
X4546600Y-8838590D01*
X6578600Y-8382612D02*
G01*
X6578600Y-8290610D01*
X6451600Y-8382612D02*
G01*
X6451600Y-8290610D01*
X6324600Y-8382612D02*
G01*
X6324600Y-8290610D01*
X6197600Y-8382612D02*
G01*
X6197600Y-8290610D01*
X6578600Y-8930589D02*
G01*
X6578600Y-8838590D01*
X6451600Y-8930589D02*
G01*
X6451600Y-8838590D01*
X6324600Y-8930589D02*
G01*
X6324600Y-8838590D01*
X6197600Y-8930589D02*
G01*
X6197600Y-8838590D01*
X9944100Y-8382612D02*
G01*
X9944100Y-8290610D01*
X9817100Y-8382612D02*
G01*
X9817100Y-8290610D01*
X9690100Y-8382612D02*
G01*
X9690100Y-8290610D01*
X9563100Y-8382612D02*
G01*
X9563100Y-8290610D01*
X9944100Y-8930589D02*
G01*
X9944100Y-8838590D01*
X9817100Y-8930589D02*
G01*
X9817100Y-8838590D01*
X9690100Y-8930589D02*
G01*
X9690100Y-8838590D01*
X9563100Y-8930589D02*
G01*
X9563100Y-8838590D01*
D60*
X1351889Y-3924810D02*
G01*
X1351889Y-4071211D01*
X1478889Y-3924810D02*
G01*
X1478889Y-4071211D01*
X1605889Y-3924810D02*
G01*
X1605889Y-4071211D01*
X1732889Y-3924810D02*
G01*
X1732889Y-4071211D01*
X1859889Y-3924810D02*
G01*
X1859889Y-4071211D01*
X1986889Y-3924810D02*
G01*
X1986889Y-4071211D01*
X2113889Y-3924810D02*
G01*
X2113889Y-4071211D01*
X1351889Y-3370988D02*
G01*
X1351889Y-3517389D01*
X1478889Y-3370988D02*
G01*
X1478889Y-3517389D01*
X1605889Y-3370988D02*
G01*
X1605889Y-3517389D01*
X1732889Y-3370988D02*
G01*
X1732889Y-3517389D01*
X1859889Y-3370988D02*
G01*
X1859889Y-3517389D01*
X1986889Y-3370988D02*
G01*
X1986889Y-3517389D01*
X2113889Y-3370988D02*
G01*
X2113889Y-3517389D01*
D57*
X3255086Y-8672713D02*
G01*
X3255086Y-8562713D01*
X3509086Y-8672713D02*
G01*
X3509086Y-8562713D01*
X3509086Y-7972714D02*
G01*
X3509086Y-7862714D01*
X3255086Y-7972714D02*
G01*
X3255086Y-7862714D01*
X2362200Y-8672713D02*
G01*
X2362200Y-8562713D01*
X2616200Y-8672713D02*
G01*
X2616200Y-8562713D01*
X2616200Y-7972714D02*
G01*
X2616200Y-7862714D01*
X2362200Y-7972714D02*
G01*
X2362200Y-7862714D01*
X1777314Y-7862714D02*
G01*
X1777314Y-7972714D01*
X1523314Y-7862714D02*
G01*
X1523314Y-7972714D01*
X1523314Y-8562713D02*
G01*
X1523314Y-8672713D01*
X1777314Y-8562713D02*
G01*
X1777314Y-8672713D01*
D61*
X12278613Y-9082816D02*
G01*
X12278613Y-8962816D01*
X11978386Y-9082816D02*
G01*
X11978386Y-8962816D01*
G36*
X930402Y-2403855D02*
G01*
X930402Y-2283713D01*
X1050797Y-2283713D01*
X1050797Y-2403855D01*
G37*
G36*
X930402Y-2643886D02*
G01*
X930402Y-2523744D01*
X1050797Y-2523744D01*
X1050797Y-2643886D01*
G37*
D63*
G01*
X3987800Y-683412D03*
G01*
X5003800Y-683412D03*
G01*
X7708900Y-673404D03*
G01*
X6692900Y-673404D03*
G01*
X10464800Y-673404D03*
G01*
X11480800Y-673404D03*
G01*
X14185900Y-673404D03*
G01*
X13169900Y-673404D03*
D64*
G01*
X660400Y-6758508D03*
G01*
X406400Y-6758508D03*
G01*
X660400Y-6504508D03*
G01*
X406400Y-6504508D03*
G01*
X660400Y-6250508D03*
G36*
X322579Y-6334252D02*
G01*
X322579Y-6166612D01*
X490220Y-6166612D01*
X490220Y-6334252D01*
G37*
G36*
X5198363Y-6259576D02*
G01*
X5198363Y-6039104D01*
X5418836Y-6039104D01*
X5418836Y-6259576D01*
G37*
G36*
X5198363Y-5848095D02*
G01*
X5198363Y-5627623D01*
X5418836Y-5627623D01*
X5418836Y-5848095D01*
G37*
G36*
X3614165Y-3729481D02*
G01*
X3614165Y-2744470D01*
X4844034Y-2744470D01*
X4844034Y-3729481D01*
G37*
G36*
X4398009Y-4461510D02*
G01*
X4398009Y-4101337D01*
X4568190Y-4101337D01*
X4568190Y-4461510D01*
G37*
G36*
X3890009Y-4461510D02*
G01*
X3890009Y-4101337D01*
X4060190Y-4101337D01*
X4060190Y-4461510D01*
G37*
G36*
X10091165Y-6459981D02*
G01*
X10091165Y-5474970D01*
X11321034Y-5474970D01*
X11321034Y-6459981D01*
G37*
G36*
X10875009Y-7192010D02*
G01*
X10875009Y-6831837D01*
X11045190Y-6831837D01*
X11045190Y-7192010D01*
G37*
G36*
X10367009Y-7192010D02*
G01*
X10367009Y-6831837D01*
X10537190Y-6831837D01*
X10537190Y-7192010D01*
G37*
G36*
X815594Y-7669784D02*
G01*
X815594Y-7519670D01*
X955802Y-7519670D01*
X955802Y-7669784D01*
G37*
G36*
X605536Y-7669784D02*
G01*
X605536Y-7519670D01*
X745744Y-7519670D01*
X745744Y-7669784D01*
G37*
G36*
X1683257Y-7669784D02*
G01*
X1683257Y-7519670D01*
X1823465Y-7519670D01*
X1823465Y-7669784D01*
G37*
G36*
X1473200Y-7669784D02*
G01*
X1473200Y-7519670D01*
X1613407Y-7519670D01*
X1613407Y-7669784D01*
G37*
G36*
X2550668Y-7669784D02*
G01*
X2550668Y-7519670D01*
X2690875Y-7519670D01*
X2690875Y-7669784D01*
G37*
G36*
X2340609Y-7669784D02*
G01*
X2340609Y-7519670D01*
X2480818Y-7519670D01*
X2480818Y-7669784D01*
G37*
G36*
X3418331Y-7669784D02*
G01*
X3418331Y-7519670D01*
X3558540Y-7519670D01*
X3558540Y-7669784D01*
G37*
G36*
X3208274Y-7669784D02*
G01*
X3208274Y-7519670D01*
X3348481Y-7519670D01*
X3348481Y-7669784D01*
G37*
G36*
X2633218Y-6769354D02*
G01*
X2633218Y-6633971D01*
X2793745Y-6633971D01*
X2793745Y-6769354D01*
G37*
G36*
X2413254Y-6929373D02*
G01*
X2413254Y-6793992D01*
X2531618Y-6793992D01*
X2573527Y-6837934D01*
X2573527Y-6929373D01*
G37*
G36*
X2413254Y-6769354D02*
G01*
X2413254Y-6633971D01*
X2573527Y-6633971D01*
X2573527Y-6769354D01*
G37*
G36*
X2633218Y-6929373D02*
G01*
X2633218Y-6793992D01*
X2793745Y-6793992D01*
X2793745Y-6929373D01*
G37*
G36*
X1307592Y-2206497D02*
G01*
X1307592Y-2086102D01*
X1417828Y-2086102D01*
X1417828Y-2206497D01*
G37*
G36*
X1147571Y-2206497D02*
G01*
X1147571Y-2086102D01*
X1257807Y-2086102D01*
X1257807Y-2206497D01*
G37*
G36*
X5545581Y-8807958D02*
G01*
X5545581Y-8697721D01*
X5655818Y-8697721D01*
X5655818Y-8807958D01*
G37*
G36*
X5545581Y-8498078D02*
G01*
X5545581Y-8387842D01*
X5655818Y-8387842D01*
X5655818Y-8498078D01*
G37*
G36*
X9584181Y-7830312D02*
G01*
X9584181Y-7720076D01*
X9694418Y-7720076D01*
X9694418Y-7830312D01*
G37*
G36*
X9584181Y-8140445D02*
G01*
X9584181Y-8030210D01*
X9694418Y-8030210D01*
X9694418Y-8140445D01*
G37*
G36*
X1043178Y-6147562D02*
G01*
X1043178Y-5972302D01*
X1163573Y-5972302D01*
X1163573Y-6147562D01*
G37*
G36*
X843026Y-6147562D02*
G01*
X843026Y-5972302D01*
X963421Y-5972302D01*
X963421Y-6147562D01*
G37*
G36*
X322579Y-5051552D02*
G01*
X322579Y-4883912D01*
X490220Y-4883912D01*
X490220Y-5051552D01*
G37*
G01*
X406400Y-4713808D03*
G01*
X406400Y-4459808D03*
G01*
X406400Y-4205808D03*
G36*
X5473191Y-658368D02*
G01*
X5473191Y-408431D01*
X5723381Y-408431D01*
X5723381Y-658368D01*
G37*
D75*
G01*
X6098362Y-533425D03*
G36*
X11950191Y-658368D02*
G01*
X11950191Y-408431D01*
X12200381Y-408431D01*
X12200381Y-658368D01*
G37*
G01*
X12575362Y-533425D03*
G36*
X725170Y-658368D02*
G01*
X725170Y-408431D01*
X975360Y-408431D01*
X975360Y-658368D01*
G37*
G01*
X1350263Y-533425D03*
G36*
X2063241Y-658368D02*
G01*
X2063241Y-408431D01*
X2313431Y-408431D01*
X2313431Y-658368D01*
G37*
G01*
X2688386Y-533425D03*
G36*
X9462770Y-1530857D02*
G01*
X9462770Y-1210563D01*
X9583165Y-1210563D01*
X9583165Y-1530857D01*
G37*
G36*
X9462770Y-970787D02*
G01*
X9462770Y-650494D01*
X9583165Y-650494D01*
X9583165Y-970787D01*
G37*
G36*
X8074152Y-1419605D02*
G01*
X8074152Y-1319276D01*
X8184388Y-1319276D01*
X8184388Y-1419605D01*
G37*
G36*
X8074152Y-1279652D02*
G01*
X8074152Y-1179321D01*
X8184388Y-1179321D01*
X8184388Y-1279652D01*
G37*
G36*
X617473Y-4326889D02*
G01*
X617473Y-4256531D01*
X717804Y-4256531D01*
X717804Y-4326889D01*
G37*
G36*
X617473Y-4227068D02*
G01*
X617473Y-4156710D01*
X717804Y-4156710D01*
X717804Y-4227068D01*
G37*
G36*
X5246370Y-8570721D02*
G01*
X5246370Y-8450326D01*
X5421629Y-8450326D01*
X5421629Y-8570721D01*
G37*
G36*
X5246370Y-8770874D02*
G01*
X5246370Y-8650478D01*
X5421629Y-8650478D01*
X5421629Y-8770874D01*
G37*
G36*
X6922770Y-8570721D02*
G01*
X6922770Y-8450326D01*
X7098029Y-8450326D01*
X7098029Y-8570721D01*
G37*
G36*
X6922770Y-8770874D02*
G01*
X6922770Y-8650478D01*
X7098029Y-8650478D01*
X7098029Y-8770874D01*
G37*
G36*
X5956808Y-8595868D02*
G01*
X5956808Y-8525510D01*
X6057138Y-8525510D01*
X6057138Y-8595868D01*
G37*
G36*
X5956808Y-8695689D02*
G01*
X5956808Y-8625331D01*
X6057138Y-8625331D01*
X6057138Y-8695689D01*
G37*
G36*
X8589263Y-1530857D02*
G01*
X8589263Y-1210563D01*
X8709659Y-1210563D01*
X8709659Y-1530857D01*
G37*
G36*
X8589263Y-970787D02*
G01*
X8589263Y-650494D01*
X8709659Y-650494D01*
X8709659Y-970787D01*
G37*
G36*
X10018522Y-1419605D02*
G01*
X10018522Y-1319276D01*
X10129011Y-1319276D01*
X10129011Y-1419605D01*
G37*
G36*
X10018522Y-1279652D02*
G01*
X10018522Y-1179321D01*
X10129011Y-1179321D01*
X10129011Y-1279652D01*
G37*
G36*
X2053081Y-6609842D02*
G01*
X2053081Y-6509512D01*
X2163318Y-6509512D01*
X2163318Y-6609842D01*
G37*
G36*
X2053081Y-6469887D02*
G01*
X2053081Y-6369557D01*
X2163318Y-6369557D01*
X2163318Y-6469887D01*
G37*
G36*
X1354581Y-5339587D02*
G01*
X1354581Y-5239257D01*
X1464818Y-5239257D01*
X1464818Y-5339587D01*
G37*
G36*
X1354581Y-5479542D02*
G01*
X1354581Y-5379212D01*
X1464818Y-5379212D01*
X1464818Y-5479542D01*
G37*
G36*
X2395981Y-5225542D02*
G01*
X2395981Y-5125212D01*
X2506218Y-5125212D01*
X2506218Y-5225542D01*
G37*
G36*
X2395981Y-5085587D02*
G01*
X2395981Y-4985257D01*
X2506218Y-4985257D01*
X2506218Y-5085587D01*
G37*
G36*
X2711958Y-6354318D02*
G01*
X2711958Y-6244081D01*
X2812288Y-6244081D01*
X2812288Y-6354318D01*
G37*
G36*
X2851911Y-6354318D02*
G01*
X2851911Y-6244081D01*
X2952241Y-6244081D01*
X2952241Y-6354318D01*
G37*
G36*
X918463Y-5708650D02*
G01*
X918463Y-5598413D01*
X1018794Y-5598413D01*
X1018794Y-5708650D01*
G37*
G36*
X1058418Y-5708650D02*
G01*
X1058418Y-5598413D01*
X1158747Y-5598413D01*
X1158747Y-5708650D01*
G37*
G36*
X8624570Y-8570721D02*
G01*
X8624570Y-8450326D01*
X8799829Y-8450326D01*
X8799829Y-8570721D01*
G37*
G36*
X8624570Y-8770874D02*
G01*
X8624570Y-8650478D01*
X8799829Y-8650478D01*
X8799829Y-8770874D01*
G37*
G36*
X10326370Y-8570721D02*
G01*
X10326370Y-8450326D01*
X10501629Y-8450326D01*
X10501629Y-8570721D01*
G37*
G36*
X10326370Y-8770874D02*
G01*
X10326370Y-8650478D01*
X10501629Y-8650478D01*
X10501629Y-8770874D01*
G37*
G36*
X2521711Y-6570218D02*
G01*
X2521711Y-6459981D01*
X2622041Y-6459981D01*
X2622041Y-6570218D01*
G37*
G36*
X2381758Y-6570218D02*
G01*
X2381758Y-6459981D01*
X2482088Y-6459981D01*
X2482088Y-6570218D01*
G37*
G36*
X2878581Y-6927087D02*
G01*
X2878581Y-6827012D01*
X2988818Y-6827012D01*
X2988818Y-6927087D01*
G37*
G36*
X2878581Y-6787134D02*
G01*
X2878581Y-6686804D01*
X2988818Y-6686804D01*
X2988818Y-6787134D01*
G37*
G36*
X9309608Y-8595868D02*
G01*
X9309608Y-8525510D01*
X9409938Y-8525510D01*
X9409938Y-8595868D01*
G37*
G36*
X9309608Y-8695689D02*
G01*
X9309608Y-8625331D01*
X9409938Y-8625331D01*
X9409938Y-8695689D01*
G37*
G36*
X11235181Y-8883142D02*
G01*
X11235181Y-8782812D01*
X11345418Y-8782812D01*
X11345418Y-8883142D01*
G37*
G36*
X11235181Y-8743187D02*
G01*
X11235181Y-8642858D01*
X11345418Y-8642858D01*
X11345418Y-8743187D01*
G37*
G36*
X11440159Y-8883142D02*
G01*
X11440159Y-8782812D01*
X11550395Y-8782812D01*
X11550395Y-8883142D01*
G37*
G36*
X11440159Y-8743187D02*
G01*
X11440159Y-8642858D01*
X11550395Y-8642858D01*
X11550395Y-8743187D01*
G37*
G36*
X11843004Y-9647681D02*
G01*
X11843004Y-9337294D01*
X11983211Y-9337294D01*
X11983211Y-9647681D01*
G37*
G36*
X11841988Y-10347705D02*
G01*
X11841988Y-10037318D01*
X11982195Y-10037318D01*
X11982195Y-10347705D01*
G37*
G36*
X11235181Y-9975342D02*
G01*
X11235181Y-9875012D01*
X11345418Y-9875012D01*
X11345418Y-9975342D01*
G37*
G36*
X11235181Y-9835387D02*
G01*
X11235181Y-9735058D01*
X11345418Y-9735058D01*
X11345418Y-9835387D01*
G37*
G36*
X1137920Y-3706368D02*
G01*
X1137920Y-3636010D01*
X1238250Y-3636010D01*
X1238250Y-3706368D01*
G37*
G36*
X1137920Y-3806189D02*
G01*
X1137920Y-3735831D01*
X1238250Y-3735831D01*
X1238250Y-3806189D01*
G37*
G36*
X755142Y-10094468D02*
G01*
X755142Y-9844531D01*
X1005331Y-9844531D01*
X1005331Y-10094468D01*
G37*
G01*
X1380312Y-9969525D03*
G01*
X1880311Y-9969525D03*
G01*
X2380310Y-9969525D03*
G01*
X2880309Y-9969525D03*
G01*
X3380308Y-9969525D03*
G36*
X13945870Y-10094468D02*
G01*
X13945870Y-9844531D01*
X14196059Y-9844531D01*
X14196059Y-10094468D01*
G37*
G01*
X14570887Y-9969525D03*
G01*
X15070886Y-9969525D03*
G36*
X4200906Y-10094468D02*
G01*
X4200906Y-9844531D01*
X4451095Y-9844531D01*
X4451095Y-10094468D01*
G37*
G01*
X4826000Y-9969525D03*
G01*
X5325999Y-9969525D03*
G36*
X7221981Y-8807958D02*
G01*
X7221981Y-8697721D01*
X7332218Y-8697721D01*
X7332218Y-8807958D01*
G37*
G36*
X7221981Y-8498078D02*
G01*
X7221981Y-8387842D01*
X7332218Y-8387842D01*
X7332218Y-8498078D01*
G37*
G36*
X5198363Y-3529076D02*
G01*
X5198363Y-3308604D01*
X5418836Y-3308604D01*
X5418836Y-3529076D01*
G37*
G36*
X5198363Y-3117595D02*
G01*
X5198363Y-2897123D01*
X5418836Y-2897123D01*
X5418836Y-3117595D01*
G37*
G36*
X8436863Y-3529076D02*
G01*
X8436863Y-3308604D01*
X8657336Y-3308604D01*
X8657336Y-3529076D01*
G37*
G36*
X8436863Y-3117595D02*
G01*
X8436863Y-2897123D01*
X8657336Y-2897123D01*
X8657336Y-3117595D01*
G37*
G36*
X4516881Y-7824978D02*
G01*
X4516881Y-7714742D01*
X4627118Y-7714742D01*
X4627118Y-7824978D01*
G37*
G36*
X4516881Y-8134858D02*
G01*
X4516881Y-8024621D01*
X4627118Y-8024621D01*
X4627118Y-8134858D01*
G37*
G36*
X6193281Y-7830312D02*
G01*
X6193281Y-7720076D01*
X6303518Y-7720076D01*
X6303518Y-7830312D01*
G37*
G36*
X6193281Y-8140445D02*
G01*
X6193281Y-8030210D01*
X6303518Y-8030210D01*
X6303518Y-8140445D01*
G37*
G36*
X879602Y-6404355D02*
G01*
X879602Y-6284213D01*
X999997Y-6284213D01*
X999997Y-6404355D01*
G37*
G36*
X879602Y-6644386D02*
G01*
X879602Y-6524244D01*
X999997Y-6524244D01*
X999997Y-6644386D01*
G37*
G36*
X5245608Y-7830312D02*
G01*
X5245608Y-7720076D01*
X5355590Y-7720076D01*
X5355590Y-7830312D01*
G37*
G36*
X5245608Y-8140445D02*
G01*
X5245608Y-8030210D01*
X5355590Y-8030210D01*
X5355590Y-8140445D01*
G37*
G36*
X6942581Y-7830312D02*
G01*
X6942581Y-7720076D01*
X7052818Y-7720076D01*
X7052818Y-7830312D01*
G37*
G36*
X6942581Y-8140445D02*
G01*
X6942581Y-8030210D01*
X7052818Y-8030210D01*
X7052818Y-8140445D01*
G37*
G36*
X8436863Y-6259576D02*
G01*
X8436863Y-6039104D01*
X8657336Y-6039104D01*
X8657336Y-6259576D01*
G37*
G36*
X8436863Y-5848095D02*
G01*
X8436863Y-5627623D01*
X8657336Y-5627623D01*
X8657336Y-5848095D01*
G37*
G36*
X8923781Y-8807958D02*
G01*
X8923781Y-8697721D01*
X9034018Y-8697721D01*
X9034018Y-8807958D01*
G37*
G36*
X8923781Y-8498078D02*
G01*
X8923781Y-8387842D01*
X9034018Y-8387842D01*
X9034018Y-8498078D01*
G37*
G36*
X10625581Y-8807958D02*
G01*
X10625581Y-8697721D01*
X10735818Y-8697721D01*
X10735818Y-8807958D01*
G37*
G36*
X10625581Y-8498078D02*
G01*
X10625581Y-8387842D01*
X10735818Y-8387842D01*
X10735818Y-8498078D01*
G37*
G36*
X11675363Y-3529076D02*
G01*
X11675363Y-3308604D01*
X11895836Y-3308604D01*
X11895836Y-3529076D01*
G37*
G36*
X11675363Y-3117595D02*
G01*
X11675363Y-2897123D01*
X11895836Y-2897123D01*
X11895836Y-3117595D01*
G37*
G36*
X14926563Y-3529076D02*
G01*
X14926563Y-3308604D01*
X15147036Y-3308604D01*
X15147036Y-3529076D01*
G37*
G36*
X14926563Y-3117595D02*
G01*
X14926563Y-2897123D01*
X15147036Y-2897123D01*
X15147036Y-3117595D01*
G37*
G36*
X7882381Y-7830312D02*
G01*
X7882381Y-7720076D01*
X7992618Y-7720076D01*
X7992618Y-7830312D01*
G37*
G36*
X7882381Y-8140445D02*
G01*
X7882381Y-8030210D01*
X7992618Y-8030210D01*
X7992618Y-8140445D01*
G37*
G36*
X8631681Y-7830312D02*
G01*
X8631681Y-7720076D01*
X8741918Y-7720076D01*
X8741918Y-7830312D01*
G37*
G36*
X8631681Y-8140445D02*
G01*
X8631681Y-8030210D01*
X8741918Y-8030210D01*
X8741918Y-8140445D01*
G37*
G36*
X10333481Y-7830312D02*
G01*
X10333481Y-7720076D01*
X10443718Y-7720076D01*
X10443718Y-7830312D01*
G37*
G36*
X10333481Y-8140445D02*
G01*
X10333481Y-8030210D01*
X10443718Y-8030210D01*
X10443718Y-8140445D01*
G37*
G36*
X11675363Y-6259576D02*
G01*
X11675363Y-6039104D01*
X11895836Y-6039104D01*
X11895836Y-6259576D01*
G37*
G36*
X11675363Y-5848095D02*
G01*
X11675363Y-5627623D01*
X11895836Y-5627623D01*
X11895836Y-5848095D01*
G37*
G36*
X14926563Y-6259576D02*
G01*
X14926563Y-6039104D01*
X15147036Y-6039104D01*
X15147036Y-6259576D01*
G37*
G36*
X14926563Y-5848095D02*
G01*
X14926563Y-5627623D01*
X15147036Y-5627623D01*
X15147036Y-5848095D01*
G37*
G36*
X2390902Y-2403855D02*
G01*
X2390902Y-2283713D01*
X2511297Y-2283713D01*
X2511297Y-2403855D01*
G37*
G36*
X2390902Y-2643886D02*
G01*
X2390902Y-2523744D01*
X2511297Y-2523744D01*
X2511297Y-2643886D01*
G37*
D82*
G01*
X7150100Y-1378000D03*
G01*
X7150100Y-2177999D03*
G01*
X11010900Y-1378000D03*
G01*
X11010900Y-2177999D03*
G01*
X13627100Y-1378000D03*
G01*
X13627100Y-2177999D03*
G36*
X6852665Y-3729481D02*
G01*
X6852665Y-2744470D01*
X8082534Y-2744470D01*
X8082534Y-3729481D01*
G37*
G36*
X7636509Y-4461510D02*
G01*
X7636509Y-4101337D01*
X7806690Y-4101337D01*
X7806690Y-4461510D01*
G37*
G36*
X7128509Y-4461510D02*
G01*
X7128509Y-4101337D01*
X7298690Y-4101337D01*
X7298690Y-4461510D01*
G37*
G36*
X3614165Y-6459981D02*
G01*
X3614165Y-5474970D01*
X4844034Y-5474970D01*
X4844034Y-6459981D01*
G37*
G36*
X4398009Y-7192010D02*
G01*
X4398009Y-6831837D01*
X4568190Y-6831837D01*
X4568190Y-7192010D01*
G37*
G36*
X3890009Y-7192010D02*
G01*
X3890009Y-6831837D01*
X4060190Y-6831837D01*
X4060190Y-7192010D01*
G37*
G36*
X6852665Y-6459981D02*
G01*
X6852665Y-5474970D01*
X8082534Y-5474970D01*
X8082534Y-6459981D01*
G37*
G36*
X7636509Y-7192010D02*
G01*
X7636509Y-6831837D01*
X7806690Y-6831837D01*
X7806690Y-7192010D01*
G37*
G36*
X7128509Y-7192010D02*
G01*
X7128509Y-6831837D01*
X7298690Y-6831837D01*
X7298690Y-7192010D01*
G37*
G36*
X10091165Y-3729481D02*
G01*
X10091165Y-2744470D01*
X11321034Y-2744470D01*
X11321034Y-3729481D01*
G37*
G36*
X10875009Y-4461510D02*
G01*
X10875009Y-4101337D01*
X11045190Y-4101337D01*
X11045190Y-4461510D01*
G37*
G36*
X10367009Y-4461510D02*
G01*
X10367009Y-4101337D01*
X10537190Y-4101337D01*
X10537190Y-4461510D01*
G37*
G36*
X13329666Y-3729481D02*
G01*
X13329666Y-2744470D01*
X14559534Y-2744470D01*
X14559534Y-3729481D01*
G37*
G36*
X14113509Y-4461510D02*
G01*
X14113509Y-4101337D01*
X14283690Y-4101337D01*
X14283690Y-4461510D01*
G37*
G36*
X13605509Y-4461510D02*
G01*
X13605509Y-4101337D01*
X13775690Y-4101337D01*
X13775690Y-4461510D01*
G37*
G36*
X13329666Y-6459981D02*
G01*
X13329666Y-5474970D01*
X14559534Y-5474970D01*
X14559534Y-6459981D01*
G37*
G36*
X14113509Y-7192010D02*
G01*
X14113509Y-6831837D01*
X14283690Y-6831837D01*
X14283690Y-7192010D01*
G37*
G36*
X13605509Y-7192010D02*
G01*
X13605509Y-6831837D01*
X13775690Y-6831837D01*
X13775690Y-7192010D01*
G37*
G36*
X4166870Y-7872221D02*
G01*
X4166870Y-7751826D01*
X4342129Y-7751826D01*
X4342129Y-7872221D01*
G37*
G36*
X4166870Y-8072373D02*
G01*
X4166870Y-7951978D01*
X4342129Y-7951978D01*
X4342129Y-8072373D01*
G37*
G36*
X5830570Y-8072373D02*
G01*
X5830570Y-7951978D01*
X6005829Y-7951978D01*
X6005829Y-8072373D01*
G37*
G36*
X5830570Y-7872221D02*
G01*
X5830570Y-7751826D01*
X6005829Y-7751826D01*
X6005829Y-7872221D01*
G37*
G36*
X4791709Y-9092437D02*
G01*
X4791709Y-8992362D01*
X4862068Y-8992362D01*
X4862068Y-9092437D01*
G37*
G36*
X4891531Y-9092437D02*
G01*
X4891531Y-8992362D01*
X4961890Y-8992362D01*
X4961890Y-9092437D01*
G37*
G36*
X4791709Y-9244837D02*
G01*
X4791709Y-9144762D01*
X4862068Y-9144762D01*
X4862068Y-9244837D01*
G37*
G36*
X4891531Y-9244837D02*
G01*
X4891531Y-9144762D01*
X4961890Y-9144762D01*
X4961890Y-9244837D01*
G37*
G36*
X4890770Y-7872221D02*
G01*
X4890770Y-7751826D01*
X5066029Y-7751826D01*
X5066029Y-7872221D01*
G37*
G36*
X4890770Y-8072373D02*
G01*
X4890770Y-7951978D01*
X5066029Y-7951978D01*
X5066029Y-8072373D01*
G37*
G36*
X6579870Y-8072373D02*
G01*
X6579870Y-7951978D01*
X6755129Y-7951978D01*
X6755129Y-8072373D01*
G37*
G36*
X6579870Y-7872221D02*
G01*
X6579870Y-7751826D01*
X6755129Y-7751826D01*
X6755129Y-7872221D01*
G37*
G36*
X3013202Y-4694428D02*
G01*
X3013202Y-4584192D01*
X3133597Y-4584192D01*
X3133597Y-4694428D01*
G37*
G36*
X3013202Y-4534407D02*
G01*
X3013202Y-4424171D01*
X3133597Y-4424171D01*
X3133597Y-4534407D01*
G37*
G36*
X2822702Y-4694428D02*
G01*
X2822702Y-4584192D01*
X2943097Y-4584192D01*
X2943097Y-4694428D01*
G37*
G36*
X2822702Y-4534407D02*
G01*
X2822702Y-4424171D01*
X2943097Y-4424171D01*
X2943097Y-4534407D01*
G37*
G36*
X2632202Y-4694428D02*
G01*
X2632202Y-4584192D01*
X2752597Y-4584192D01*
X2752597Y-4694428D01*
G37*
G36*
X2632202Y-4534407D02*
G01*
X2632202Y-4424171D01*
X2752597Y-4424171D01*
X2752597Y-4534407D01*
G37*
G36*
X2628391Y-7134097D02*
G01*
X2628391Y-7013702D01*
X2738627Y-7013702D01*
X2738627Y-7134097D01*
G37*
G36*
X2468372Y-7134097D02*
G01*
X2468372Y-7013702D01*
X2578608Y-7013702D01*
X2578608Y-7134097D01*
G37*
G36*
X7519670Y-7872221D02*
G01*
X7519670Y-7751826D01*
X7694929Y-7751826D01*
X7694929Y-7872221D01*
G37*
G36*
X7519670Y-8072373D02*
G01*
X7519670Y-7951978D01*
X7694929Y-7951978D01*
X7694929Y-8072373D01*
G37*
G36*
X9221470Y-8072373D02*
G01*
X9221470Y-7951978D01*
X9396729Y-7951978D01*
X9396729Y-8072373D01*
G37*
G36*
X9221470Y-7872221D02*
G01*
X9221470Y-7751826D01*
X9396729Y-7751826D01*
X9396729Y-7872221D01*
G37*
G36*
X8131809Y-9130537D02*
G01*
X8131809Y-9030462D01*
X8202168Y-9030462D01*
X8202168Y-9130537D01*
G37*
G36*
X8231631Y-9130537D02*
G01*
X8231631Y-9030462D01*
X8301990Y-9030462D01*
X8301990Y-9130537D01*
G37*
G36*
X8131809Y-9270237D02*
G01*
X8131809Y-9170162D01*
X8202168Y-9170162D01*
X8202168Y-9270237D01*
G37*
G36*
X8231631Y-9270237D02*
G01*
X8231631Y-9170162D01*
X8301990Y-9170162D01*
X8301990Y-9270237D01*
G37*
G36*
X8268970Y-7872221D02*
G01*
X8268970Y-7751826D01*
X8444229Y-7751826D01*
X8444229Y-7872221D01*
G37*
G36*
X8268970Y-8072373D02*
G01*
X8268970Y-7951978D01*
X8444229Y-7951978D01*
X8444229Y-8072373D01*
G37*
G36*
X9970770Y-8072373D02*
G01*
X9970770Y-7951978D01*
X10146029Y-7951978D01*
X10146029Y-8072373D01*
G37*
G36*
X9970770Y-7872221D02*
G01*
X9970770Y-7751826D01*
X10146029Y-7751826D01*
X10146029Y-7872221D01*
G37*
G36*
X1119378Y-3110229D02*
G01*
X1119378Y-2934970D01*
X1239773Y-2934970D01*
X1239773Y-3110229D01*
G37*
G36*
X919226Y-3110229D02*
G01*
X919226Y-2934970D01*
X1039621Y-2934970D01*
X1039621Y-3110229D01*
G37*
G36*
X2189225Y-3110229D02*
G01*
X2189225Y-2934970D01*
X2309622Y-2934970D01*
X2309622Y-3110229D01*
G37*
G36*
X2389377Y-3110229D02*
G01*
X2389377Y-2934970D01*
X2509774Y-2934970D01*
X2509774Y-3110229D01*
G37*
G36*
X3530091Y-9291828D02*
G01*
X3530091Y-9001505D01*
X3690365Y-9001505D01*
X3690365Y-9291828D01*
G37*
G36*
X3030220Y-9291828D02*
G01*
X3030220Y-9001505D01*
X3190493Y-9001505D01*
X3190493Y-9291828D01*
G37*
G36*
X852678Y-7339329D02*
G01*
X852678Y-7164070D01*
X973073Y-7164070D01*
X973073Y-7339329D01*
G37*
G36*
X652526Y-7339329D02*
G01*
X652526Y-7164070D01*
X772921Y-7164070D01*
X772921Y-7339329D01*
G37*
G36*
X2858515Y-7959089D02*
G01*
X2858515Y-7888731D01*
X2958845Y-7888731D01*
X2958845Y-7959089D01*
G37*
G36*
X2858515Y-7859268D02*
G01*
X2858515Y-7788910D01*
X2958845Y-7788910D01*
X2958845Y-7859268D01*
G37*
G36*
X1998472Y-2206497D02*
G01*
X1998472Y-2086102D01*
X2108708Y-2086102D01*
X2108708Y-2206497D01*
G37*
G36*
X2158491Y-2206497D02*
G01*
X2158491Y-2086102D01*
X2268727Y-2086102D01*
X2268727Y-2206497D01*
G37*
G36*
X2476754Y-9291828D02*
G01*
X2476754Y-9001505D01*
X2637027Y-9001505D01*
X2637027Y-9291828D01*
G37*
G36*
X1976881Y-9291828D02*
G01*
X1976881Y-9001505D01*
X2137156Y-9001505D01*
X2137156Y-9291828D01*
G37*
G36*
X1478026Y-7402829D02*
G01*
X1478026Y-7227570D01*
X1598421Y-7227570D01*
X1598421Y-7402829D01*
G37*
G36*
X1678178Y-7402829D02*
G01*
X1678178Y-7227570D01*
X1798573Y-7227570D01*
X1798573Y-7402829D01*
G37*
G36*
X2032761Y-7971789D02*
G01*
X2032761Y-7901431D01*
X2132838Y-7901431D01*
X2132838Y-7971789D01*
G37*
G36*
X2032761Y-7871968D02*
G01*
X2032761Y-7801610D01*
X2132838Y-7801610D01*
X2132838Y-7871968D01*
G37*
G36*
X1468373Y-9292336D02*
G01*
X1468373Y-9117076D01*
X1588770Y-9117076D01*
X1588770Y-9292336D01*
G37*
G36*
X1268476Y-9292336D02*
G01*
X1268476Y-9117076D01*
X1388871Y-9117076D01*
X1388871Y-9292336D01*
G37*
G36*
X1982215Y-8453374D02*
G01*
X1982215Y-8332978D01*
X2157475Y-8332978D01*
X2157475Y-8453374D01*
G37*
G36*
X1982215Y-8253221D02*
G01*
X1982215Y-8132826D01*
X2157475Y-8132826D01*
X2157475Y-8253221D01*
G37*
G36*
X2820924Y-8427974D02*
G01*
X2820924Y-8307578D01*
X2996184Y-8307578D01*
X2996184Y-8427974D01*
G37*
G36*
X2820924Y-8227821D02*
G01*
X2820924Y-8107426D01*
X2996184Y-8107426D01*
X2996184Y-8227821D01*
G37*
G36*
X765047Y-9292336D02*
G01*
X765047Y-9117076D01*
X885444Y-9117076D01*
X885444Y-9292336D01*
G37*
G36*
X565150Y-9292336D02*
G01*
X565150Y-9117076D01*
X685545Y-9117076D01*
X685545Y-9292336D01*
G37*
G36*
X1093470Y-8008873D02*
G01*
X1093470Y-7888478D01*
X1268729Y-7888478D01*
X1268729Y-8008873D01*
G37*
G36*
X1093470Y-7808721D02*
G01*
X1093470Y-7688326D01*
X1268729Y-7688326D01*
X1268729Y-7808721D01*
G37*
G36*
X1093470Y-8265921D02*
G01*
X1093470Y-8145526D01*
X1268729Y-8145526D01*
X1268729Y-8265921D01*
G37*
G36*
X1093470Y-8466074D02*
G01*
X1093470Y-8345678D01*
X1268729Y-8345678D01*
X1268729Y-8466074D01*
G37*
G36*
X1494028Y-4688078D02*
G01*
X1494028Y-4567681D01*
X1669287Y-4567681D01*
X1669287Y-4688078D01*
G37*
G36*
X1494028Y-4487926D02*
G01*
X1494028Y-4367529D01*
X1669287Y-4367529D01*
X1669287Y-4487926D01*
G37*
G36*
X1786128Y-4688078D02*
G01*
X1786128Y-4567681D01*
X1961388Y-4567681D01*
X1961388Y-4688078D01*
G37*
G36*
X1786128Y-4487926D02*
G01*
X1786128Y-4367529D01*
X1961388Y-4367529D01*
X1961388Y-4487926D01*
G37*
G36*
X1266444Y-4463034D02*
G01*
X1266444Y-4362704D01*
X1336802Y-4362704D01*
X1336802Y-4463034D01*
G37*
G36*
X1166368Y-4463034D02*
G01*
X1166368Y-4362704D01*
X1236726Y-4362704D01*
X1236726Y-4463034D01*
G37*
G36*
X2124709Y-4463034D02*
G01*
X2124709Y-4362704D01*
X2195068Y-4362704D01*
X2195068Y-4463034D01*
G37*
G36*
X2224531Y-4463034D02*
G01*
X2224531Y-4362704D01*
X2294890Y-4362704D01*
X2294890Y-4463034D01*
G37*
G36*
X308355Y-5969000D02*
G01*
X308355Y-5830570D01*
X388620Y-5830570D01*
X388620Y-5969000D01*
G37*
G36*
X678434Y-5969000D02*
G01*
X678434Y-5830570D01*
X758444Y-5830570D01*
X758444Y-5969000D01*
G37*
G36*
X308355Y-5370829D02*
G01*
X308355Y-5232400D01*
X388620Y-5232400D01*
X388620Y-5370829D01*
G37*
G36*
X678434Y-5370829D02*
G01*
X678434Y-5232400D01*
X758444Y-5232400D01*
X758444Y-5370829D01*
G37*
G36*
X1058671Y-4682997D02*
G01*
X1058671Y-4562602D01*
X1179068Y-4562602D01*
X1179068Y-4682997D01*
G37*
G36*
X1298702Y-4682997D02*
G01*
X1298702Y-4562602D01*
X1419097Y-4562602D01*
X1419097Y-4682997D01*
G37*
G36*
X2257043Y-4682997D02*
G01*
X2257043Y-4562602D01*
X2377186Y-4562602D01*
X2377186Y-4682997D01*
G37*
G36*
X2017013Y-4682997D02*
G01*
X2017013Y-4562602D01*
X2137156Y-4562602D01*
X2137156Y-4682997D01*
G37*
G36*
X12739370Y-10119360D02*
G01*
X12739370Y-9979152D01*
X12889484Y-9979152D01*
X12889484Y-10119360D01*
G37*
G36*
X12739370Y-9909302D02*
G01*
X12739370Y-9769094D01*
X12889484Y-9769094D01*
X12889484Y-9909302D01*
G37*
G36*
X13028422Y-9928605D02*
G01*
X13028422Y-9808210D01*
X13203936Y-9808210D01*
X13203936Y-9928605D01*
G37*
G36*
X13028422Y-10128504D02*
G01*
X13028422Y-10008108D01*
X13203936Y-10008108D01*
X13203936Y-10128504D01*
G37*
G01*
X15252420Y-8343900D03*
G01*
X12992430Y-8343900D03*
G36*
X13331443Y-10123424D02*
G01*
X13331443Y-9983215D01*
X13541756Y-9983215D01*
X13541756Y-10123424D01*
G37*
G36*
X13331443Y-9803637D02*
G01*
X13331443Y-9663176D01*
X13541756Y-9663176D01*
X13541756Y-9803637D01*
G37*
G36*
X4305808Y-8595868D02*
G01*
X4305808Y-8525510D01*
X4406138Y-8525510D01*
X4406138Y-8595868D01*
G37*
G36*
X4305808Y-8695689D02*
G01*
X4305808Y-8625331D01*
X4406138Y-8625331D01*
X4406138Y-8695689D01*
G37*
G36*
X7645908Y-8595868D02*
G01*
X7645908Y-8525510D01*
X7746238Y-8525510D01*
X7746238Y-8595868D01*
G37*
G36*
X7645908Y-8695689D02*
G01*
X7645908Y-8625331D01*
X7746238Y-8625331D01*
X7746238Y-8695689D01*
G37*
G36*
X1258570Y-6670547D02*
G01*
X1258570Y-6550405D01*
X1433829Y-6550405D01*
X1433829Y-6670547D01*
G37*
G36*
X1258570Y-6870700D02*
G01*
X1258570Y-6750304D01*
X1433829Y-6750304D01*
X1433829Y-6870700D01*
G37*
G36*
X1055878Y-6871208D02*
G01*
X1055878Y-6695947D01*
X1176273Y-6695947D01*
X1176273Y-6871208D01*
G37*
G36*
X855726Y-6871208D02*
G01*
X855726Y-6695947D01*
X976121Y-6695947D01*
X976121Y-6871208D01*
G37*
G01*
X4533900Y-1378000D03*
G01*
X4533900Y-2177999D03*
G36*
X648462Y-4519168D02*
G01*
X648462Y-4448810D01*
X748537Y-4448810D01*
X748537Y-4519168D01*
G37*
G36*
X648462Y-4618989D02*
G01*
X648462Y-4548631D01*
X748537Y-4548631D01*
X748537Y-4618989D01*
G37*
G36*
X610362Y-5012689D02*
G01*
X610362Y-4942331D01*
X710437Y-4942331D01*
X710437Y-5012689D01*
G37*
G36*
X610362Y-4912868D02*
G01*
X610362Y-4842510D01*
X710437Y-4842510D01*
X710437Y-4912868D01*
G37*
G36*
X880110Y-5892037D02*
G01*
X880110Y-5791962D01*
X950468Y-5791962D01*
X950468Y-5892037D01*
G37*
G36*
X979931Y-5892037D02*
G01*
X979931Y-5791962D01*
X1050289Y-5791962D01*
X1050289Y-5892037D01*
G37*
G36*
X1245362Y-6398768D02*
G01*
X1245362Y-6328410D01*
X1345437Y-6328410D01*
X1345437Y-6398768D01*
G37*
G36*
X1245362Y-6498589D02*
G01*
X1245362Y-6428231D01*
X1345437Y-6428231D01*
X1345437Y-6498589D01*
G37*
G36*
X2917697Y-4206494D02*
G01*
X2917697Y-4136389D01*
X3038093Y-4136389D01*
X3038093Y-4206494D01*
G37*
G36*
X2917697Y-4296410D02*
G01*
X2917697Y-4226305D01*
X3038093Y-4226305D01*
X3038093Y-4296410D01*
G37*
G36*
X2727706Y-4206494D02*
G01*
X2727706Y-4136389D01*
X2848102Y-4136389D01*
X2848102Y-4206494D01*
G37*
G36*
X2727706Y-4296410D02*
G01*
X2727706Y-4226305D01*
X2848102Y-4226305D01*
X2848102Y-4296410D01*
G37*
G36*
X1298702Y-2611628D02*
G01*
X1298702Y-2501392D01*
X1419097Y-2501392D01*
X1419097Y-2611628D01*
G37*
G36*
X1298702Y-2451607D02*
G01*
X1298702Y-2341371D01*
X1419097Y-2341371D01*
X1419097Y-2451607D01*
G37*
G36*
X1134871Y-2828797D02*
G01*
X1134871Y-2708402D01*
X1245107Y-2708402D01*
X1245107Y-2828797D01*
G37*
G36*
X1294892Y-2828797D02*
G01*
X1294892Y-2708402D01*
X1405128Y-2708402D01*
X1405128Y-2828797D01*
G37*
G36*
X2171191Y-2828797D02*
G01*
X2171191Y-2708402D01*
X2281427Y-2708402D01*
X2281427Y-2828797D01*
G37*
G36*
X2011172Y-2828797D02*
G01*
X2011172Y-2708402D01*
X2121408Y-2708402D01*
X2121408Y-2828797D01*
G37*
G36*
X2009902Y-2598928D02*
G01*
X2009902Y-2488692D01*
X2130297Y-2488692D01*
X2130297Y-2598928D01*
G37*
G36*
X2009902Y-2438907D02*
G01*
X2009902Y-2328671D01*
X2130297Y-2328671D01*
X2130297Y-2438907D01*
G37*
G36*
X12106147Y-9116568D02*
G01*
X12087859Y-9098279D01*
X12087859Y-8928354D01*
X12058650Y-8896604D01*
X12058904Y-8896604D01*
X12021820Y-8859520D01*
X12021820Y-8657336D01*
X12078208Y-8600947D01*
X12178791Y-8600947D01*
X12235179Y-8657336D01*
X12235179Y-8859520D01*
X12169140Y-8928100D01*
X12169140Y-9098279D01*
X12150852Y-9116568D01*
G37*
D90*
G01*
X1355242Y-1511300D03*
G01*
X845235Y-1511300D03*
G01*
X1099235Y-1511300D03*
G01*
X2693390Y-1511300D03*
G01*
X2183384Y-1511300D03*
G01*
X2437384Y-1511300D03*
M02*
