G04 Layer: BottomLayer*
G04 EasyEDA v6.4.25, 2022-01-11T20:07:54+10:00*
G04 7104220f9c2d43f39f118c43d8da538e,d80d0e5f2d5a449f809f9e2067d82b7d,10*
G04 Gerber Generator version 0.2*
G04 Scale: 100 percent, Rotated: No, Reflected: No *
G04 Dimensions in millimeters *
G04 leading zeros omitted , absolute positions ,4 integer and 5 decimal *
%FSLAX45Y45*%
%MOMM*%

%ADD10C,0.2540*%
%ADD11C,6.5000*%
%ADD12C,0.5000*%
%ADD13C,1.0000*%
%ADD14C,0.3000*%
%ADD20C,0.6096*%
%ADD21C,0.6100*%
%ADD43C,1.6000*%
%ADD44C,1.5748*%
%ADD45R,1.5748X1.5748*%
%ADD47C,2.4000*%
%ADD48C,2.5000*%
%ADD49C,1.9000*%

%LPD*%
G36*
X35814Y-10574324D02*
G01*
X31902Y-10573562D01*
X28651Y-10571378D01*
X26416Y-10568076D01*
X25654Y-10564164D01*
X25654Y-35814D01*
X26416Y-31902D01*
X28651Y-28651D01*
X31902Y-26416D01*
X35814Y-25654D01*
X15964204Y-25654D01*
X15968065Y-26416D01*
X15971367Y-28651D01*
X15973551Y-31902D01*
X15974364Y-35814D01*
X15974364Y-10564164D01*
X15973551Y-10568076D01*
X15971367Y-10571378D01*
X15968065Y-10573562D01*
X15964204Y-10574324D01*
G37*

%LPC*%
G36*
X4206595Y-10115143D02*
G01*
X4259630Y-10115143D01*
X4259630Y-10035844D01*
X4180332Y-10035844D01*
X4180332Y-10088930D01*
X4181043Y-10095179D01*
X4182922Y-10100614D01*
X4185970Y-10105440D01*
X4190034Y-10109504D01*
X4194911Y-10112552D01*
X4200296Y-10114432D01*
G37*
G36*
X4392371Y-10115143D02*
G01*
X4445406Y-10115143D01*
X4451705Y-10114432D01*
X4457090Y-10112552D01*
X4461967Y-10109504D01*
X4466031Y-10105440D01*
X4469079Y-10100614D01*
X4470958Y-10095179D01*
X4471670Y-10088930D01*
X4471670Y-10035844D01*
X4392371Y-10035844D01*
G37*
G36*
X13951457Y-10115143D02*
G01*
X14004544Y-10115143D01*
X14004544Y-10035844D01*
X13925245Y-10035844D01*
X13925245Y-10088930D01*
X13925956Y-10095179D01*
X13927836Y-10100614D01*
X13930884Y-10105440D01*
X13934948Y-10109504D01*
X13939774Y-10112552D01*
X13945209Y-10114432D01*
G37*
G36*
X14137233Y-10115143D02*
G01*
X14190319Y-10115143D01*
X14196568Y-10114432D01*
X14202003Y-10112552D01*
X14206829Y-10109504D01*
X14210893Y-10105440D01*
X14213941Y-10100614D01*
X14215821Y-10095179D01*
X14216532Y-10088930D01*
X14216532Y-10035844D01*
X14137233Y-10035844D01*
G37*
G36*
X14570913Y-10115143D02*
G01*
X14587219Y-10114229D01*
X14603272Y-10111486D01*
X14618969Y-10106964D01*
X14634057Y-10100716D01*
X14648383Y-10092791D01*
X14661692Y-10083342D01*
X14673884Y-10072471D01*
X14684756Y-10060279D01*
X14694204Y-10046970D01*
X14702129Y-10032695D01*
X14708378Y-10017607D01*
X14712899Y-10001910D01*
X14715591Y-9985806D01*
X14716506Y-9969500D01*
X14715591Y-9953193D01*
X14712899Y-9937089D01*
X14708378Y-9921392D01*
X14702129Y-9906304D01*
X14694204Y-9892030D01*
X14684756Y-9878720D01*
X14673884Y-9866528D01*
X14661692Y-9855657D01*
X14648383Y-9846208D01*
X14634057Y-9838283D01*
X14618969Y-9832035D01*
X14603272Y-9827514D01*
X14587219Y-9824770D01*
X14570913Y-9823856D01*
X14554606Y-9824770D01*
X14538502Y-9827514D01*
X14522805Y-9832035D01*
X14507718Y-9838283D01*
X14493392Y-9846208D01*
X14480082Y-9855657D01*
X14467890Y-9866528D01*
X14457019Y-9878720D01*
X14447570Y-9892030D01*
X14439696Y-9906304D01*
X14433448Y-9921392D01*
X14428927Y-9937089D01*
X14426184Y-9953193D01*
X14425269Y-9969500D01*
X14426184Y-9985806D01*
X14428927Y-10001910D01*
X14433448Y-10017607D01*
X14439696Y-10032695D01*
X14447570Y-10046970D01*
X14457019Y-10060279D01*
X14467890Y-10072471D01*
X14480082Y-10083342D01*
X14493392Y-10092791D01*
X14507718Y-10100716D01*
X14522805Y-10106964D01*
X14538502Y-10111486D01*
X14554606Y-10114229D01*
G37*
G36*
X1880311Y-10115143D02*
G01*
X1896618Y-10114229D01*
X1912721Y-10111486D01*
X1928418Y-10106964D01*
X1943506Y-10100716D01*
X1957781Y-10092791D01*
X1971090Y-10083342D01*
X1983282Y-10072471D01*
X1994154Y-10060279D01*
X2003602Y-10046970D01*
X2011527Y-10032695D01*
X2017775Y-10017607D01*
X2022297Y-10001910D01*
X2025040Y-9985806D01*
X2025954Y-9969500D01*
X2025040Y-9953193D01*
X2022297Y-9937089D01*
X2017775Y-9921392D01*
X2011527Y-9906304D01*
X2003602Y-9892030D01*
X1994154Y-9878720D01*
X1983282Y-9866528D01*
X1971090Y-9855657D01*
X1957781Y-9846208D01*
X1943506Y-9838283D01*
X1928418Y-9832035D01*
X1912721Y-9827514D01*
X1896618Y-9824770D01*
X1880311Y-9823856D01*
X1864004Y-9824770D01*
X1847900Y-9827514D01*
X1832203Y-9832035D01*
X1817116Y-9838283D01*
X1802790Y-9846208D01*
X1789480Y-9855657D01*
X1777339Y-9866528D01*
X1766417Y-9878720D01*
X1756968Y-9892030D01*
X1749094Y-9906304D01*
X1742846Y-9921392D01*
X1738325Y-9937089D01*
X1735582Y-9953193D01*
X1734667Y-9969500D01*
X1735582Y-9985806D01*
X1738325Y-10001910D01*
X1742846Y-10017607D01*
X1749094Y-10032695D01*
X1756968Y-10046970D01*
X1766417Y-10060279D01*
X1777339Y-10072471D01*
X1789480Y-10083342D01*
X1802790Y-10092791D01*
X1817116Y-10100716D01*
X1832203Y-10106964D01*
X1847900Y-10111486D01*
X1864004Y-10114229D01*
G37*
G36*
X2380284Y-10115143D02*
G01*
X2396591Y-10114229D01*
X2412695Y-10111486D01*
X2428392Y-10106964D01*
X2443480Y-10100716D01*
X2457805Y-10092791D01*
X2471115Y-10083342D01*
X2483256Y-10072471D01*
X2494178Y-10060279D01*
X2503627Y-10046970D01*
X2511501Y-10032695D01*
X2517749Y-10017607D01*
X2522270Y-10001910D01*
X2525014Y-9985806D01*
X2525928Y-9969500D01*
X2525014Y-9953193D01*
X2522270Y-9937089D01*
X2517749Y-9921392D01*
X2511501Y-9906304D01*
X2503627Y-9892030D01*
X2494178Y-9878720D01*
X2483256Y-9866528D01*
X2471115Y-9855657D01*
X2457805Y-9846208D01*
X2443480Y-9838283D01*
X2428392Y-9832035D01*
X2412695Y-9827514D01*
X2396591Y-9824770D01*
X2380284Y-9823856D01*
X2363978Y-9824770D01*
X2347874Y-9827514D01*
X2332177Y-9832035D01*
X2317089Y-9838283D01*
X2302814Y-9846208D01*
X2289505Y-9855657D01*
X2277313Y-9866528D01*
X2266442Y-9878720D01*
X2256993Y-9892030D01*
X2249068Y-9906304D01*
X2242820Y-9921392D01*
X2238298Y-9937089D01*
X2235555Y-9953193D01*
X2234641Y-9969500D01*
X2235555Y-9985806D01*
X2238298Y-10001910D01*
X2242820Y-10017607D01*
X2249068Y-10032695D01*
X2256993Y-10046970D01*
X2266442Y-10060279D01*
X2277313Y-10072471D01*
X2289505Y-10083342D01*
X2302814Y-10092791D01*
X2317089Y-10100716D01*
X2332177Y-10106964D01*
X2347874Y-10111486D01*
X2363978Y-10114229D01*
G37*
G36*
X15070886Y-10115143D02*
G01*
X15087193Y-10114229D01*
X15103297Y-10111486D01*
X15118994Y-10106964D01*
X15134082Y-10100716D01*
X15148356Y-10092791D01*
X15161717Y-10083342D01*
X15173858Y-10072471D01*
X15184729Y-10060279D01*
X15194229Y-10046970D01*
X15202103Y-10032695D01*
X15208351Y-10017607D01*
X15212872Y-10001910D01*
X15215616Y-9985806D01*
X15216530Y-9969500D01*
X15215616Y-9953193D01*
X15212872Y-9937089D01*
X15208351Y-9921392D01*
X15202103Y-9906304D01*
X15194229Y-9892030D01*
X15184729Y-9878720D01*
X15173858Y-9866528D01*
X15161717Y-9855657D01*
X15148356Y-9846208D01*
X15134082Y-9838283D01*
X15118994Y-9832035D01*
X15103297Y-9827514D01*
X15087193Y-9824770D01*
X15070886Y-9823856D01*
X15054580Y-9824770D01*
X15038476Y-9827514D01*
X15022779Y-9832035D01*
X15007691Y-9838283D01*
X14993416Y-9846208D01*
X14980107Y-9855657D01*
X14967915Y-9866528D01*
X14957044Y-9878720D01*
X14947595Y-9892030D01*
X14939670Y-9906304D01*
X14933422Y-9921392D01*
X14928900Y-9937089D01*
X14926157Y-9953193D01*
X14925243Y-9969500D01*
X14926157Y-9985806D01*
X14928900Y-10001910D01*
X14933422Y-10017607D01*
X14939670Y-10032695D01*
X14947595Y-10046970D01*
X14957044Y-10060279D01*
X14967915Y-10072471D01*
X14980107Y-10083342D01*
X14993416Y-10092791D01*
X15007691Y-10100716D01*
X15022779Y-10106964D01*
X15038476Y-10111486D01*
X15054580Y-10114229D01*
G37*
G36*
X2880309Y-10115143D02*
G01*
X2896616Y-10114229D01*
X2912719Y-10111486D01*
X2928416Y-10106964D01*
X2943504Y-10100716D01*
X2957779Y-10092791D01*
X2971088Y-10083342D01*
X2983280Y-10072471D01*
X2994152Y-10060279D01*
X3003600Y-10046970D01*
X3011525Y-10032695D01*
X3017774Y-10017607D01*
X3022295Y-10001910D01*
X3025038Y-9985806D01*
X3025952Y-9969500D01*
X3025038Y-9953193D01*
X3022295Y-9937089D01*
X3017774Y-9921392D01*
X3011525Y-9906304D01*
X3003600Y-9892030D01*
X2994152Y-9878720D01*
X2983280Y-9866528D01*
X2971088Y-9855657D01*
X2957779Y-9846208D01*
X2943504Y-9838283D01*
X2928416Y-9832035D01*
X2912719Y-9827514D01*
X2896616Y-9824770D01*
X2880309Y-9823856D01*
X2864002Y-9824770D01*
X2847898Y-9827514D01*
X2832201Y-9832035D01*
X2817114Y-9838283D01*
X2802839Y-9846208D01*
X2789478Y-9855657D01*
X2777337Y-9866528D01*
X2766415Y-9878720D01*
X2756966Y-9892030D01*
X2749092Y-9906304D01*
X2742844Y-9921392D01*
X2738323Y-9937089D01*
X2735580Y-9953193D01*
X2734665Y-9969500D01*
X2735580Y-9985806D01*
X2738323Y-10001910D01*
X2742844Y-10017607D01*
X2749092Y-10032695D01*
X2756966Y-10046970D01*
X2766415Y-10060279D01*
X2777337Y-10072471D01*
X2789478Y-10083342D01*
X2802839Y-10092791D01*
X2817114Y-10100716D01*
X2832201Y-10106964D01*
X2847898Y-10111486D01*
X2864002Y-10114229D01*
G37*
G36*
X3380282Y-10115143D02*
G01*
X3396589Y-10114229D01*
X3412693Y-10111486D01*
X3428390Y-10106964D01*
X3443478Y-10100716D01*
X3457803Y-10092791D01*
X3471113Y-10083342D01*
X3483305Y-10072471D01*
X3494176Y-10060279D01*
X3503625Y-10046970D01*
X3511499Y-10032695D01*
X3517747Y-10017607D01*
X3522268Y-10001910D01*
X3525012Y-9985806D01*
X3525926Y-9969500D01*
X3525012Y-9953193D01*
X3522268Y-9937089D01*
X3517747Y-9921392D01*
X3511499Y-9906304D01*
X3503625Y-9892030D01*
X3494176Y-9878720D01*
X3483305Y-9866528D01*
X3471113Y-9855657D01*
X3457803Y-9846208D01*
X3443478Y-9838283D01*
X3428390Y-9832035D01*
X3412693Y-9827514D01*
X3396589Y-9824770D01*
X3380282Y-9823856D01*
X3363976Y-9824770D01*
X3347872Y-9827514D01*
X3332175Y-9832035D01*
X3317087Y-9838283D01*
X3302812Y-9846208D01*
X3289503Y-9855657D01*
X3277311Y-9866528D01*
X3266440Y-9878720D01*
X3256991Y-9892030D01*
X3249066Y-9906304D01*
X3242818Y-9921392D01*
X3238296Y-9937089D01*
X3235553Y-9953193D01*
X3234639Y-9969500D01*
X3235553Y-9985806D01*
X3238296Y-10001910D01*
X3242818Y-10017607D01*
X3249066Y-10032695D01*
X3256991Y-10046970D01*
X3266440Y-10060279D01*
X3277311Y-10072471D01*
X3289503Y-10083342D01*
X3302812Y-10092791D01*
X3317087Y-10100716D01*
X3332175Y-10106964D01*
X3347872Y-10111486D01*
X3363976Y-10114229D01*
G37*
G36*
X760882Y-10115143D02*
G01*
X999744Y-10115143D01*
X1005992Y-10114432D01*
X1011428Y-10112552D01*
X1016253Y-10109504D01*
X1020318Y-10105440D01*
X1023366Y-10100614D01*
X1025245Y-10095179D01*
X1025956Y-10088930D01*
X1025956Y-9935057D01*
X1026718Y-9931146D01*
X1028953Y-9927894D01*
X1139037Y-9817760D01*
X1142187Y-9815626D01*
X1145895Y-9814814D01*
X1149654Y-9815423D01*
X1152906Y-9817354D01*
X1155242Y-9820351D01*
X1156309Y-9824008D01*
X1157122Y-9832594D01*
X1157528Y-9834981D01*
X1159662Y-9843617D01*
X1160424Y-9845903D01*
X1163828Y-9854082D01*
X1164945Y-9856317D01*
X1169517Y-9863886D01*
X1176578Y-9872726D01*
X1234998Y-9931196D01*
X1236878Y-9933787D01*
X1237843Y-9936835D01*
X1237792Y-9940086D01*
X1235557Y-9953193D01*
X1234643Y-9969500D01*
X1235557Y-9985806D01*
X1238300Y-10001910D01*
X1242822Y-10017607D01*
X1249070Y-10032695D01*
X1256995Y-10046970D01*
X1266444Y-10060279D01*
X1277315Y-10072471D01*
X1289507Y-10083342D01*
X1302816Y-10092791D01*
X1317091Y-10100716D01*
X1332179Y-10106964D01*
X1347876Y-10111486D01*
X1363980Y-10114229D01*
X1380286Y-10115143D01*
X1396593Y-10114229D01*
X1412697Y-10111486D01*
X1428394Y-10106964D01*
X1443482Y-10100716D01*
X1457756Y-10092791D01*
X1471117Y-10083342D01*
X1483258Y-10072471D01*
X1494180Y-10060279D01*
X1503629Y-10046970D01*
X1511503Y-10032695D01*
X1517751Y-10017607D01*
X1522272Y-10001910D01*
X1525016Y-9985806D01*
X1525930Y-9969500D01*
X1525016Y-9953193D01*
X1522272Y-9937089D01*
X1517751Y-9921392D01*
X1511503Y-9906304D01*
X1503629Y-9892030D01*
X1494180Y-9878720D01*
X1483258Y-9866528D01*
X1471117Y-9855657D01*
X1457756Y-9846208D01*
X1443482Y-9838283D01*
X1428394Y-9832035D01*
X1412697Y-9827514D01*
X1396593Y-9824770D01*
X1380286Y-9823856D01*
X1363980Y-9824770D01*
X1350822Y-9827006D01*
X1347622Y-9827056D01*
X1344574Y-9826040D01*
X1341932Y-9824161D01*
X1310538Y-9792766D01*
X1308303Y-9789464D01*
X1307541Y-9785553D01*
X1307541Y-8979103D01*
X1307338Y-8973261D01*
X1306677Y-8967622D01*
X1305661Y-8962085D01*
X1304188Y-8956598D01*
X1302308Y-8951264D01*
X1300073Y-8946083D01*
X1297432Y-8941054D01*
X1294384Y-8936278D01*
X1291031Y-8931757D01*
X1287373Y-8927439D01*
X1283360Y-8923426D01*
X1279042Y-8919768D01*
X1274521Y-8916416D01*
X1269746Y-8913368D01*
X1264716Y-8910726D01*
X1259535Y-8908491D01*
X1254201Y-8906611D01*
X1248714Y-8905138D01*
X1243177Y-8904122D01*
X1237538Y-8903462D01*
X1231696Y-8903258D01*
X772160Y-8903258D01*
X768248Y-8902496D01*
X764946Y-8900261D01*
X713638Y-8848953D01*
X711403Y-8845651D01*
X710641Y-8841740D01*
X710641Y-8804402D01*
X709777Y-8792718D01*
X707288Y-8781745D01*
X703122Y-8771178D01*
X697484Y-8761425D01*
X690422Y-8752586D01*
X682142Y-8744864D01*
X672795Y-8738514D01*
X662635Y-8733637D01*
X651814Y-8730284D01*
X640638Y-8728608D01*
X629361Y-8728608D01*
X618185Y-8730284D01*
X607364Y-8733637D01*
X597204Y-8738514D01*
X587857Y-8744864D01*
X579577Y-8752586D01*
X572516Y-8761425D01*
X566877Y-8771178D01*
X562711Y-8781745D01*
X560222Y-8792718D01*
X559358Y-8804402D01*
X559409Y-8879941D01*
X560222Y-8888780D01*
X560628Y-8891168D01*
X562762Y-8899804D01*
X563524Y-8902090D01*
X566928Y-8910269D01*
X568045Y-8912504D01*
X572617Y-8920073D01*
X579678Y-8928912D01*
X684987Y-9034221D01*
X693826Y-9041282D01*
X701395Y-9045854D01*
X703630Y-9046972D01*
X711809Y-9050375D01*
X714095Y-9051137D01*
X722731Y-9053271D01*
X725119Y-9053677D01*
X733958Y-9054490D01*
X1146098Y-9054541D01*
X1149959Y-9055303D01*
X1153261Y-9057538D01*
X1155496Y-9060840D01*
X1156258Y-9064701D01*
X1156258Y-9089948D01*
X1155293Y-9094266D01*
X1152652Y-9097721D01*
X1148740Y-9099753D01*
X1144371Y-9099956D01*
X1140307Y-9098330D01*
X1129995Y-9091218D01*
X1119835Y-9086291D01*
X1109014Y-9082989D01*
X1097838Y-9081262D01*
X1086561Y-9081262D01*
X1075385Y-9082989D01*
X1064564Y-9086291D01*
X1054404Y-9091218D01*
X1045057Y-9097568D01*
X1036777Y-9105239D01*
X1029716Y-9114078D01*
X1024077Y-9123883D01*
X1019911Y-9134398D01*
X1017422Y-9145422D01*
X1016558Y-9157055D01*
X1016558Y-9722053D01*
X1015796Y-9725964D01*
X1013561Y-9729266D01*
X921969Y-9820859D01*
X918667Y-9823094D01*
X914755Y-9823856D01*
X760882Y-9823856D01*
X754583Y-9824567D01*
X749198Y-9826447D01*
X744321Y-9829495D01*
X740308Y-9833559D01*
X737260Y-9838385D01*
X735330Y-9843820D01*
X734669Y-9850069D01*
X734669Y-10088930D01*
X735330Y-10095179D01*
X737260Y-10100614D01*
X740308Y-10105440D01*
X744321Y-10109504D01*
X749198Y-10112552D01*
X754583Y-10114432D01*
G37*
G36*
X4826000Y-10115143D02*
G01*
X4842306Y-10114229D01*
X4858410Y-10111486D01*
X4874107Y-10106964D01*
X4889195Y-10100716D01*
X4903470Y-10092791D01*
X4916779Y-10083342D01*
X4928971Y-10072471D01*
X4939842Y-10060279D01*
X4949291Y-10046970D01*
X4957216Y-10032695D01*
X4963464Y-10017607D01*
X4967986Y-10001910D01*
X4970729Y-9985806D01*
X4971643Y-9969500D01*
X4970729Y-9953193D01*
X4967986Y-9937089D01*
X4963464Y-9921392D01*
X4957216Y-9906304D01*
X4949291Y-9892030D01*
X4939842Y-9878720D01*
X4928971Y-9866528D01*
X4916779Y-9855657D01*
X4903470Y-9846208D01*
X4889195Y-9838283D01*
X4874107Y-9832035D01*
X4858410Y-9827514D01*
X4842306Y-9824770D01*
X4826000Y-9823856D01*
X4809693Y-9824770D01*
X4793589Y-9827514D01*
X4777892Y-9832035D01*
X4762804Y-9838283D01*
X4748530Y-9846208D01*
X4735169Y-9855657D01*
X4723028Y-9866528D01*
X4712157Y-9878720D01*
X4702657Y-9892030D01*
X4694783Y-9906304D01*
X4688484Y-9921494D01*
X4686452Y-9925304D01*
X4682998Y-9927945D01*
X4678730Y-9928860D01*
X4669231Y-9928860D01*
X4665370Y-9928098D01*
X4662068Y-9925862D01*
X4478782Y-9742576D01*
X4476496Y-9739122D01*
X4475784Y-9735108D01*
X4476750Y-9731095D01*
X4479188Y-9727793D01*
X4482744Y-9725761D01*
X4486808Y-9725253D01*
X4490720Y-9726422D01*
X4492955Y-9727590D01*
X4500575Y-9729927D01*
X4509008Y-9730740D01*
X5025440Y-9730740D01*
X5029301Y-9731502D01*
X5032603Y-9733737D01*
X5193131Y-9894112D01*
X5195468Y-9897770D01*
X5196078Y-9902037D01*
X5194757Y-9906304D01*
X5188508Y-9921392D01*
X5183987Y-9937089D01*
X5181295Y-9953193D01*
X5180380Y-9969500D01*
X5181295Y-9985806D01*
X5183987Y-10001910D01*
X5188508Y-10017607D01*
X5194757Y-10032695D01*
X5202682Y-10046970D01*
X5212130Y-10060279D01*
X5223002Y-10072471D01*
X5235194Y-10083342D01*
X5248503Y-10092791D01*
X5262829Y-10100716D01*
X5277916Y-10106964D01*
X5293614Y-10111486D01*
X5309666Y-10114229D01*
X5325973Y-10115143D01*
X5342280Y-10114229D01*
X5358384Y-10111486D01*
X5374081Y-10106964D01*
X5389168Y-10100716D01*
X5403494Y-10092791D01*
X5416804Y-10083342D01*
X5428996Y-10072471D01*
X5439867Y-10060279D01*
X5449316Y-10046970D01*
X5457190Y-10032695D01*
X5463438Y-10017607D01*
X5467959Y-10001910D01*
X5470702Y-9985806D01*
X5471617Y-9969500D01*
X5470702Y-9953193D01*
X5467959Y-9937089D01*
X5463438Y-9921392D01*
X5457190Y-9906304D01*
X5449316Y-9892030D01*
X5439867Y-9878720D01*
X5428996Y-9866528D01*
X5416804Y-9855657D01*
X5403494Y-9846208D01*
X5389168Y-9838283D01*
X5374081Y-9832035D01*
X5358384Y-9827514D01*
X5342280Y-9824770D01*
X5325973Y-9823856D01*
X5309666Y-9824770D01*
X5293614Y-9827514D01*
X5277916Y-9832035D01*
X5261762Y-9838791D01*
X5257850Y-9839604D01*
X5253939Y-9838842D01*
X5250637Y-9836607D01*
X5075580Y-9661702D01*
X5069027Y-9656318D01*
X5062016Y-9652609D01*
X5054396Y-9650272D01*
X5045964Y-9649460D01*
X4529531Y-9649460D01*
X4525670Y-9648698D01*
X4522368Y-9646462D01*
X4493869Y-9618014D01*
X4491685Y-9614712D01*
X4490923Y-9610801D01*
X4491685Y-9606940D01*
X4493869Y-9603638D01*
X4497171Y-9601403D01*
X4501083Y-9600641D01*
X5435244Y-9600641D01*
X5446877Y-9599777D01*
X5457901Y-9597288D01*
X5468416Y-9593122D01*
X5478221Y-9587484D01*
X5487060Y-9580422D01*
X5494731Y-9572142D01*
X5501081Y-9562795D01*
X5506008Y-9552635D01*
X5509310Y-9541814D01*
X5511038Y-9530638D01*
X5511038Y-9519361D01*
X5509310Y-9508185D01*
X5506008Y-9497364D01*
X5501081Y-9487204D01*
X5494731Y-9477857D01*
X5487060Y-9469577D01*
X5478221Y-9462516D01*
X5468416Y-9456877D01*
X5457901Y-9452711D01*
X5446877Y-9450222D01*
X5435244Y-9449358D01*
X5085283Y-9449358D01*
X5081371Y-9448596D01*
X5078069Y-9446361D01*
X5075885Y-9443059D01*
X5075123Y-9439198D01*
X5075885Y-9435287D01*
X5078069Y-9431985D01*
X5144668Y-9365437D01*
X5147970Y-9363252D01*
X5151831Y-9362440D01*
X6158992Y-9362440D01*
X6167424Y-9361627D01*
X6175044Y-9359290D01*
X6182055Y-9355582D01*
X6188608Y-9350197D01*
X6274968Y-9263837D01*
X6278270Y-9261652D01*
X6282131Y-9260840D01*
X7497775Y-9260840D01*
X7500823Y-9261348D01*
X7503566Y-9262668D01*
X7512253Y-9268764D01*
X7521143Y-9272930D01*
X7530592Y-9275419D01*
X7540345Y-9276283D01*
X7550048Y-9275419D01*
X7559497Y-9272930D01*
X7568387Y-9268764D01*
X7577074Y-9262668D01*
X7579817Y-9261348D01*
X7582916Y-9260840D01*
X7721092Y-9260840D01*
X7729524Y-9260027D01*
X7737144Y-9257690D01*
X7744155Y-9253982D01*
X7750302Y-9248902D01*
X7755381Y-9242755D01*
X7759090Y-9235744D01*
X7761427Y-9228124D01*
X7762189Y-9220200D01*
X7761833Y-9216390D01*
X7762290Y-9212275D01*
X7764322Y-9208719D01*
X7767574Y-9206230D01*
X7771587Y-9205264D01*
X7775651Y-9205976D01*
X7779105Y-9208211D01*
X7946491Y-9375597D01*
X7953044Y-9380982D01*
X7960055Y-9384690D01*
X7967675Y-9387027D01*
X7976108Y-9387840D01*
X8495792Y-9387840D01*
X8504224Y-9387027D01*
X8511844Y-9384690D01*
X8518855Y-9380982D01*
X8525408Y-9375597D01*
X8738768Y-9162237D01*
X8742070Y-9160052D01*
X8745931Y-9159240D01*
X9143492Y-9159240D01*
X9151924Y-9158427D01*
X9159544Y-9156090D01*
X9166555Y-9152382D01*
X9173108Y-9146997D01*
X9284868Y-9035237D01*
X9288170Y-9033052D01*
X9292031Y-9032240D01*
X9317329Y-9032240D01*
X9320377Y-9032748D01*
X9323171Y-9034068D01*
X9331858Y-9040164D01*
X9340697Y-9044330D01*
X9350146Y-9046819D01*
X9359900Y-9047683D01*
X9369653Y-9046819D01*
X9379102Y-9044330D01*
X9387941Y-9040164D01*
X9395968Y-9034576D01*
X9402876Y-9027668D01*
X9408464Y-9019641D01*
X9412630Y-9010802D01*
X9415119Y-9001353D01*
X9415983Y-8991600D01*
X9415119Y-8981846D01*
X9412630Y-8972397D01*
X9408464Y-8963558D01*
X9402876Y-8955532D01*
X9395968Y-8948623D01*
X9387941Y-8943035D01*
X9379102Y-8938869D01*
X9369653Y-8936380D01*
X9359900Y-8935516D01*
X9350146Y-8936380D01*
X9340697Y-8938869D01*
X9331858Y-8943035D01*
X9323171Y-8949131D01*
X9320377Y-8950452D01*
X9317329Y-8950960D01*
X9271508Y-8950960D01*
X9263075Y-8951772D01*
X9255455Y-8954109D01*
X9248444Y-8957818D01*
X9241891Y-8963202D01*
X9130131Y-9074962D01*
X9126829Y-9077198D01*
X9122968Y-9077960D01*
X8725408Y-9077960D01*
X8716975Y-9078772D01*
X8709355Y-9081109D01*
X8702344Y-9084818D01*
X8695791Y-9090202D01*
X8482431Y-9303562D01*
X8479129Y-9305798D01*
X8475268Y-9306560D01*
X7996631Y-9306560D01*
X7992770Y-9305798D01*
X7989468Y-9303562D01*
X7939024Y-9253118D01*
X7936738Y-9249562D01*
X7936077Y-9245346D01*
X7937246Y-9241231D01*
X7939989Y-9237929D01*
X7943850Y-9236100D01*
X7948117Y-9235948D01*
X7952028Y-9237624D01*
X7960258Y-9243364D01*
X7969097Y-9247530D01*
X7978546Y-9250019D01*
X7988300Y-9250883D01*
X7998053Y-9250019D01*
X8007502Y-9247530D01*
X8016341Y-9243364D01*
X8024368Y-9237776D01*
X8031276Y-9230868D01*
X8036864Y-9222841D01*
X8041030Y-9214002D01*
X8043519Y-9204553D01*
X8044383Y-9194800D01*
X8043519Y-9185046D01*
X8041030Y-9175597D01*
X8036864Y-9166758D01*
X8031276Y-9158732D01*
X8024368Y-9151823D01*
X8016341Y-9146235D01*
X8007502Y-9142069D01*
X7998053Y-9139580D01*
X7988300Y-9138716D01*
X7978546Y-9139580D01*
X7969097Y-9142069D01*
X7965948Y-9143593D01*
X7961934Y-9144508D01*
X7957870Y-9143796D01*
X7954467Y-9141561D01*
X7814208Y-9001302D01*
X7807655Y-8995918D01*
X7800644Y-8992209D01*
X7793024Y-8989872D01*
X7789062Y-8989466D01*
X7785862Y-8988602D01*
X7775041Y-8981135D01*
X7766202Y-8976969D01*
X7756753Y-8974480D01*
X7747000Y-8973616D01*
X7737246Y-8974480D01*
X7727797Y-8976969D01*
X7718958Y-8981135D01*
X7710271Y-8987231D01*
X7707477Y-8988552D01*
X7704429Y-8989060D01*
X7696708Y-8989060D01*
X7688275Y-8989872D01*
X7680655Y-8992209D01*
X7673644Y-8995918D01*
X7667091Y-9001302D01*
X7618831Y-9049562D01*
X7615529Y-9051798D01*
X7611668Y-9052560D01*
X6223508Y-9052560D01*
X6215075Y-9053372D01*
X6207455Y-9055709D01*
X6200444Y-9059418D01*
X6193891Y-9064802D01*
X6094831Y-9163862D01*
X6091529Y-9166098D01*
X6087668Y-9166860D01*
X5685282Y-9166860D01*
X5681370Y-9166098D01*
X5678068Y-9163862D01*
X5675884Y-9160560D01*
X5675122Y-9156700D01*
X5675884Y-9152788D01*
X5678068Y-9149486D01*
X5830417Y-8997188D01*
X5833313Y-8995156D01*
X5836716Y-8994241D01*
X5840222Y-8994546D01*
X5843422Y-8996019D01*
X5852058Y-9002064D01*
X5860897Y-9006230D01*
X5870346Y-9008719D01*
X5880100Y-9009583D01*
X5889853Y-9008719D01*
X5899302Y-9006230D01*
X5908141Y-9002064D01*
X5916168Y-8996476D01*
X5923076Y-8989568D01*
X5928664Y-8981541D01*
X5932830Y-8972702D01*
X5935319Y-8963253D01*
X5936183Y-8953500D01*
X5935319Y-8943746D01*
X5932830Y-8934297D01*
X5928664Y-8925458D01*
X5923076Y-8917432D01*
X5916168Y-8910523D01*
X5908141Y-8904935D01*
X5899302Y-8900769D01*
X5889853Y-8898280D01*
X5880100Y-8897416D01*
X5870346Y-8898280D01*
X5860897Y-8900769D01*
X5852058Y-8904935D01*
X5843371Y-8911031D01*
X5840577Y-8912352D01*
X5837529Y-8912860D01*
X5817108Y-8912860D01*
X5808675Y-8913672D01*
X5801055Y-8916009D01*
X5794044Y-8919718D01*
X5787491Y-8925102D01*
X5612231Y-9100362D01*
X5608929Y-9102598D01*
X5605068Y-9103360D01*
X5122621Y-9103360D01*
X5118709Y-9102547D01*
X5115407Y-9100362D01*
X5113223Y-9097060D01*
X5112461Y-9093200D01*
X5113223Y-9089288D01*
X5115407Y-9085986D01*
X5122976Y-9078468D01*
X5128564Y-9070441D01*
X5132730Y-9061602D01*
X5135219Y-9052153D01*
X5136083Y-9042400D01*
X5135219Y-9032646D01*
X5132730Y-9023197D01*
X5128564Y-9014358D01*
X5122976Y-9006332D01*
X5116068Y-8999423D01*
X5108041Y-8993835D01*
X5099202Y-8989669D01*
X5089753Y-8987180D01*
X5080000Y-8986316D01*
X5070246Y-8987180D01*
X5060797Y-8989669D01*
X5051958Y-8993835D01*
X5043932Y-8999423D01*
X5037023Y-9006332D01*
X5031435Y-9014358D01*
X5027269Y-9023197D01*
X5024831Y-9032290D01*
X5022799Y-9036202D01*
X5019344Y-9038894D01*
X5015026Y-9039860D01*
X4766970Y-9039860D01*
X4763922Y-9039352D01*
X4761128Y-9038031D01*
X4752441Y-9031935D01*
X4743602Y-9027769D01*
X4734153Y-9025280D01*
X4724400Y-9024416D01*
X4714646Y-9025280D01*
X4705197Y-9027769D01*
X4696358Y-9031935D01*
X4688332Y-9037523D01*
X4681423Y-9044432D01*
X4675835Y-9052458D01*
X4671669Y-9061297D01*
X4669180Y-9070746D01*
X4668316Y-9080500D01*
X4669536Y-9094266D01*
X4668469Y-9097822D01*
X4666234Y-9100718D01*
X4663084Y-9102648D01*
X4659426Y-9103360D01*
X4567631Y-9103360D01*
X4563770Y-9102598D01*
X4560468Y-9100362D01*
X4343958Y-8883853D01*
X4341672Y-8880348D01*
X4341012Y-8876182D01*
X4342079Y-8872067D01*
X4344771Y-8868816D01*
X4358741Y-8862364D01*
X4366768Y-8856776D01*
X4373676Y-8849868D01*
X4379264Y-8841841D01*
X4383430Y-8833002D01*
X4385919Y-8823553D01*
X4386783Y-8813800D01*
X4385919Y-8804046D01*
X4383430Y-8794597D01*
X4379264Y-8785758D01*
X4373676Y-8777732D01*
X4366768Y-8770823D01*
X4358741Y-8765235D01*
X4349902Y-8761069D01*
X4340453Y-8758580D01*
X4335932Y-8758174D01*
X4332528Y-8757259D01*
X4329633Y-8755227D01*
X4158437Y-8584031D01*
X4156252Y-8580729D01*
X4155440Y-8576868D01*
X4155440Y-8526170D01*
X4155948Y-8523122D01*
X4157268Y-8520328D01*
X4163364Y-8511641D01*
X4167530Y-8502802D01*
X4170019Y-8493353D01*
X4170883Y-8483600D01*
X4170019Y-8473846D01*
X4167530Y-8464397D01*
X4163364Y-8455558D01*
X4157776Y-8447532D01*
X4150868Y-8440623D01*
X4142841Y-8435035D01*
X4134002Y-8430869D01*
X4124553Y-8428380D01*
X4114800Y-8427516D01*
X4105046Y-8428380D01*
X4102658Y-8428990D01*
X4098899Y-8429294D01*
X4095242Y-8428126D01*
X4092295Y-8425688D01*
X4090415Y-8422386D01*
X4089908Y-8418576D01*
X4093819Y-8404453D01*
X4094683Y-8394700D01*
X4093819Y-8384946D01*
X4091330Y-8375497D01*
X4087164Y-8366658D01*
X4081576Y-8358631D01*
X4074668Y-8351723D01*
X4066641Y-8346135D01*
X4057802Y-8341969D01*
X4048353Y-8339480D01*
X4037990Y-8338616D01*
X4034180Y-8338108D01*
X4030878Y-8336229D01*
X4028440Y-8333282D01*
X4027322Y-8329625D01*
X4027576Y-8325866D01*
X4030319Y-8315553D01*
X4031183Y-8305800D01*
X4030319Y-8296046D01*
X4027830Y-8286597D01*
X4023664Y-8277758D01*
X4018076Y-8269731D01*
X4011168Y-8262823D01*
X4003141Y-8257235D01*
X3994302Y-8253069D01*
X3984853Y-8250580D01*
X3975100Y-8249716D01*
X3965346Y-8250580D01*
X3955897Y-8253069D01*
X3951630Y-8253933D01*
X3947363Y-8252968D01*
X3943959Y-8250275D01*
X3941978Y-8246364D01*
X3941775Y-8241995D01*
X3943451Y-8237981D01*
X3947464Y-8232241D01*
X3951630Y-8223402D01*
X3954119Y-8213953D01*
X3954983Y-8204200D01*
X3954119Y-8194446D01*
X3951630Y-8184997D01*
X3947464Y-8176158D01*
X3941876Y-8168131D01*
X3934968Y-8161223D01*
X3926941Y-8155635D01*
X3918102Y-8151469D01*
X3908653Y-8148980D01*
X3898290Y-8148116D01*
X3894480Y-8147608D01*
X3891178Y-8145729D01*
X3888740Y-8142782D01*
X3887622Y-8139125D01*
X3887876Y-8135366D01*
X3890619Y-8125053D01*
X3891483Y-8115300D01*
X3890619Y-8105546D01*
X3888130Y-8096097D01*
X3883964Y-8087258D01*
X3878376Y-8079231D01*
X3871468Y-8072323D01*
X3863441Y-8066735D01*
X3854602Y-8062569D01*
X3845153Y-8060080D01*
X3836415Y-8059318D01*
X3832606Y-8058200D01*
X3829507Y-8055711D01*
X3827627Y-8052206D01*
X3827170Y-8048294D01*
X3827983Y-8039100D01*
X3827119Y-8029346D01*
X3824630Y-8019897D01*
X3820464Y-8011058D01*
X3814876Y-8003031D01*
X3807968Y-7996123D01*
X3799941Y-7990535D01*
X3791102Y-7986369D01*
X3781653Y-7983880D01*
X3771900Y-7983016D01*
X3762146Y-7983880D01*
X3752697Y-7986369D01*
X3743858Y-7990535D01*
X3735832Y-7996123D01*
X3728923Y-8003031D01*
X3723335Y-8011058D01*
X3719169Y-8019897D01*
X3716680Y-8029346D01*
X3715816Y-8039100D01*
X3716680Y-8048853D01*
X3719169Y-8058302D01*
X3723335Y-8067141D01*
X3729431Y-8075828D01*
X3730751Y-8078622D01*
X3731260Y-8081670D01*
X3731260Y-8654338D01*
X3730447Y-8658199D01*
X3728262Y-8661501D01*
X3724960Y-8663736D01*
X3721100Y-8664498D01*
X3717188Y-8663736D01*
X3713886Y-8661501D01*
X3685438Y-8633053D01*
X3683203Y-8629751D01*
X3682441Y-8625840D01*
X3682441Y-8166455D01*
X3681577Y-8154822D01*
X3679088Y-8143798D01*
X3674922Y-8133283D01*
X3669284Y-8123478D01*
X3662222Y-8114639D01*
X3653942Y-8106968D01*
X3644595Y-8100618D01*
X3634435Y-8095691D01*
X3623614Y-8092389D01*
X3612438Y-8090662D01*
X3601161Y-8090662D01*
X3589985Y-8092389D01*
X3579164Y-8095691D01*
X3573119Y-8098637D01*
X3569157Y-8099602D01*
X3565144Y-8098993D01*
X3561689Y-8096808D01*
X3559352Y-8093456D01*
X3558540Y-8089442D01*
X3558540Y-6604508D01*
X3557727Y-6596075D01*
X3555390Y-6588455D01*
X3551682Y-6581444D01*
X3546297Y-6574891D01*
X3159150Y-6187744D01*
X3156966Y-6184544D01*
X3156153Y-6180734D01*
X3156813Y-6176924D01*
X3158896Y-6173622D01*
X3162046Y-6171336D01*
X3164941Y-6169964D01*
X3172968Y-6164376D01*
X3179876Y-6157468D01*
X3185464Y-6149441D01*
X3189630Y-6140602D01*
X3192119Y-6131153D01*
X3192983Y-6121400D01*
X3192119Y-6111646D01*
X3191510Y-6109258D01*
X3191205Y-6105499D01*
X3192373Y-6101842D01*
X3194812Y-6098895D01*
X3198114Y-6097016D01*
X3201924Y-6096508D01*
X3216046Y-6100419D01*
X3225800Y-6101283D01*
X3235553Y-6100419D01*
X3245002Y-6097930D01*
X3253841Y-6093764D01*
X3261867Y-6088176D01*
X3268776Y-6081268D01*
X3274364Y-6073241D01*
X3278530Y-6064402D01*
X3281019Y-6054953D01*
X3281883Y-6045200D01*
X3281019Y-6035446D01*
X3278530Y-6025997D01*
X3274364Y-6017158D01*
X3268776Y-6009132D01*
X3261867Y-6002223D01*
X3253841Y-5996635D01*
X3245002Y-5992469D01*
X3235553Y-5989980D01*
X3225800Y-5989116D01*
X3216046Y-5989980D01*
X3206597Y-5992469D01*
X3197758Y-5996635D01*
X3189071Y-6002731D01*
X3186277Y-6004052D01*
X3183229Y-6004560D01*
X3157931Y-6004560D01*
X3154070Y-6003798D01*
X3150768Y-6001562D01*
X1986737Y-4837531D01*
X1984552Y-4834229D01*
X1983739Y-4830368D01*
X1983739Y-4326331D01*
X1984552Y-4322470D01*
X1986737Y-4319168D01*
X2015642Y-4290263D01*
X2022906Y-4284827D01*
X2029866Y-4277868D01*
X2035454Y-4269841D01*
X2039620Y-4261002D01*
X2042109Y-4251553D01*
X2042972Y-4241800D01*
X2042109Y-4232046D01*
X2039620Y-4222597D01*
X2035454Y-4213758D01*
X2029866Y-4205732D01*
X2022957Y-4198823D01*
X2014931Y-4193235D01*
X2006092Y-4189069D01*
X1996643Y-4186580D01*
X1986889Y-4185716D01*
X1977136Y-4186580D01*
X1967687Y-4189069D01*
X1958848Y-4193235D01*
X1950821Y-4198823D01*
X1943912Y-4205732D01*
X1938324Y-4213758D01*
X1934159Y-4222597D01*
X1931670Y-4232046D01*
X1930806Y-4241800D01*
X1932076Y-4255465D01*
X1931162Y-4258868D01*
X1929130Y-4261764D01*
X1918512Y-4272381D01*
X1915261Y-4274566D01*
X1911350Y-4275328D01*
X1907438Y-4274566D01*
X1904187Y-4272381D01*
X1781708Y-4149902D01*
X1775155Y-4144518D01*
X1768144Y-4140809D01*
X1760524Y-4138472D01*
X1752092Y-4137660D01*
X1521460Y-4137660D01*
X1518412Y-4137151D01*
X1515618Y-4135831D01*
X1506931Y-4129735D01*
X1498092Y-4125569D01*
X1488643Y-4123080D01*
X1478889Y-4122216D01*
X1469136Y-4123080D01*
X1459687Y-4125569D01*
X1450848Y-4129735D01*
X1442821Y-4135323D01*
X1435912Y-4142232D01*
X1430324Y-4150258D01*
X1426159Y-4159097D01*
X1423670Y-4168546D01*
X1422806Y-4178300D01*
X1423670Y-4188053D01*
X1426159Y-4197502D01*
X1430324Y-4206341D01*
X1435912Y-4214368D01*
X1442821Y-4221276D01*
X1450848Y-4226864D01*
X1459687Y-4231030D01*
X1469136Y-4233519D01*
X1478889Y-4234383D01*
X1488643Y-4233519D01*
X1498092Y-4231030D01*
X1506931Y-4226864D01*
X1515618Y-4220768D01*
X1518412Y-4219448D01*
X1521460Y-4218940D01*
X1731568Y-4218940D01*
X1735429Y-4219752D01*
X1738731Y-4221937D01*
X1751025Y-4234180D01*
X1753362Y-4237888D01*
X1753920Y-4242257D01*
X1752600Y-4246473D01*
X1749653Y-4249724D01*
X1745589Y-4251401D01*
X1741170Y-4251198D01*
X1736953Y-4250080D01*
X1727200Y-4249216D01*
X1717446Y-4250080D01*
X1707997Y-4252569D01*
X1699158Y-4256735D01*
X1691132Y-4262323D01*
X1684223Y-4269232D01*
X1678635Y-4277258D01*
X1674469Y-4286097D01*
X1671980Y-4295546D01*
X1671116Y-4305300D01*
X1671980Y-4315053D01*
X1674469Y-4324502D01*
X1678635Y-4333341D01*
X1684731Y-4342028D01*
X1686052Y-4344822D01*
X1686560Y-4347870D01*
X1686560Y-5198668D01*
X1685798Y-5202529D01*
X1683562Y-5205831D01*
X1657553Y-5231841D01*
X1654048Y-5234127D01*
X1649882Y-5234787D01*
X1645767Y-5233720D01*
X1642516Y-5231028D01*
X1636064Y-5217058D01*
X1629968Y-5208371D01*
X1628648Y-5205577D01*
X1628139Y-5202529D01*
X1628139Y-5144008D01*
X1627327Y-5135575D01*
X1624990Y-5127955D01*
X1621282Y-5120944D01*
X1615897Y-5114391D01*
X1273708Y-4772202D01*
X1267155Y-4766818D01*
X1260144Y-4763109D01*
X1252524Y-4760772D01*
X1244092Y-4759960D01*
X817270Y-4759960D01*
X814222Y-4759452D01*
X811428Y-4758131D01*
X802741Y-4752035D01*
X793902Y-4747869D01*
X784453Y-4745380D01*
X774700Y-4744516D01*
X764946Y-4745380D01*
X755497Y-4747869D01*
X746658Y-4752035D01*
X738632Y-4757623D01*
X731723Y-4764532D01*
X726135Y-4772558D01*
X721969Y-4781397D01*
X719480Y-4790846D01*
X718616Y-4800600D01*
X719480Y-4810353D01*
X721969Y-4819802D01*
X726135Y-4828641D01*
X731723Y-4836668D01*
X738632Y-4843576D01*
X746658Y-4849164D01*
X755497Y-4853330D01*
X764946Y-4855819D01*
X774700Y-4856683D01*
X784453Y-4855819D01*
X793902Y-4853330D01*
X802741Y-4849164D01*
X811428Y-4843068D01*
X814222Y-4841748D01*
X817270Y-4841240D01*
X1223568Y-4841240D01*
X1227429Y-4842052D01*
X1230731Y-4844237D01*
X1366774Y-4980279D01*
X1369161Y-4983988D01*
X1369720Y-4988356D01*
X1368399Y-4992522D01*
X1365453Y-4995773D01*
X1360932Y-4998923D01*
X1354023Y-5005832D01*
X1348435Y-5013858D01*
X1344269Y-5022697D01*
X1341780Y-5032146D01*
X1341374Y-5036667D01*
X1340459Y-5040071D01*
X1338427Y-5042966D01*
X200202Y-6181191D01*
X194818Y-6187744D01*
X191109Y-6194755D01*
X188772Y-6202375D01*
X188163Y-6208674D01*
X187553Y-6211214D01*
X186334Y-6213551D01*
X180035Y-6222492D01*
X175869Y-6231331D01*
X173380Y-6240780D01*
X172516Y-6250533D01*
X173380Y-6260236D01*
X175869Y-6269685D01*
X180035Y-6278575D01*
X185623Y-6286550D01*
X192532Y-6293459D01*
X200558Y-6299098D01*
X209397Y-6303213D01*
X218846Y-6305753D01*
X228600Y-6306616D01*
X238353Y-6305753D01*
X247802Y-6303213D01*
X256641Y-6299098D01*
X264668Y-6293459D01*
X271576Y-6286550D01*
X277164Y-6278575D01*
X281330Y-6269685D01*
X283819Y-6260236D01*
X284683Y-6250533D01*
X283819Y-6240780D01*
X281330Y-6231331D01*
X279146Y-6226708D01*
X278231Y-6222695D01*
X278942Y-6218631D01*
X281178Y-6215227D01*
X288645Y-6207760D01*
X291947Y-6205575D01*
X295808Y-6204762D01*
X360680Y-6204762D01*
X360680Y-6139942D01*
X361442Y-6136030D01*
X363677Y-6132728D01*
X488086Y-6008268D01*
X491388Y-6006084D01*
X495300Y-6005322D01*
X499160Y-6006084D01*
X502462Y-6008268D01*
X504698Y-6011570D01*
X505459Y-6015482D01*
X505459Y-6137605D01*
X504698Y-6141364D01*
X502615Y-6144615D01*
X499465Y-6146850D01*
X495757Y-6147765D01*
X490829Y-6146800D01*
X484581Y-6146088D01*
X452120Y-6146088D01*
X452120Y-6204762D01*
X495300Y-6204762D01*
X499160Y-6205575D01*
X502462Y-6207760D01*
X504698Y-6211062D01*
X505459Y-6214922D01*
X505459Y-6286042D01*
X504698Y-6289954D01*
X502462Y-6293256D01*
X499160Y-6295440D01*
X495300Y-6296202D01*
X452120Y-6296202D01*
X452120Y-6354876D01*
X484936Y-6354876D01*
X488950Y-6355689D01*
X492251Y-6357975D01*
X494436Y-6361430D01*
X495096Y-6365392D01*
X494182Y-6369354D01*
X493369Y-6371031D01*
X490880Y-6380480D01*
X490016Y-6390233D01*
X490880Y-6399936D01*
X493369Y-6409385D01*
X497535Y-6418275D01*
X502615Y-6425488D01*
X510032Y-6433159D01*
X518058Y-6438798D01*
X526897Y-6442913D01*
X536346Y-6445453D01*
X546100Y-6446316D01*
X556209Y-6445402D01*
X560425Y-6445961D01*
X564083Y-6448145D01*
X566470Y-6451701D01*
X567232Y-6455918D01*
X566216Y-6460032D01*
X563981Y-6464554D01*
X559562Y-6477508D01*
X556920Y-6490868D01*
X556006Y-6504482D01*
X556920Y-6518148D01*
X559562Y-6531508D01*
X563981Y-6544462D01*
X570026Y-6556705D01*
X577596Y-6568033D01*
X586587Y-6578295D01*
X596849Y-6587286D01*
X608228Y-6594906D01*
X620471Y-6600952D01*
X633374Y-6605320D01*
X646785Y-6607962D01*
X660400Y-6608876D01*
X674014Y-6607962D01*
X687425Y-6605320D01*
X700328Y-6600952D01*
X712571Y-6594906D01*
X723950Y-6587286D01*
X734212Y-6578295D01*
X743204Y-6568033D01*
X750773Y-6556705D01*
X756818Y-6544462D01*
X761238Y-6531508D01*
X763879Y-6518148D01*
X764794Y-6504482D01*
X763879Y-6490868D01*
X761238Y-6477508D01*
X756818Y-6464554D01*
X750773Y-6452311D01*
X746404Y-6445758D01*
X744829Y-6441846D01*
X745032Y-6437579D01*
X746099Y-6435394D01*
X743254Y-6435953D01*
X739140Y-6435039D01*
X735787Y-6432499D01*
X734212Y-6430721D01*
X723950Y-6421678D01*
X712571Y-6414109D01*
X700328Y-6408064D01*
X687425Y-6403695D01*
X674014Y-6401003D01*
X660400Y-6400139D01*
X646785Y-6401003D01*
X633374Y-6403695D01*
X620471Y-6408064D01*
X615950Y-6410299D01*
X611784Y-6411366D01*
X607568Y-6410604D01*
X604062Y-6408166D01*
X601827Y-6404559D01*
X601319Y-6400292D01*
X602183Y-6390233D01*
X601319Y-6380480D01*
X598830Y-6371031D01*
X594664Y-6362141D01*
X588568Y-6353454D01*
X587248Y-6350711D01*
X586740Y-6345580D01*
X587705Y-6341313D01*
X590296Y-6337808D01*
X594156Y-6335776D01*
X598525Y-6335522D01*
X602538Y-6337096D01*
X608228Y-6340906D01*
X620471Y-6346952D01*
X633374Y-6351320D01*
X646785Y-6353962D01*
X660400Y-6354876D01*
X674014Y-6353962D01*
X687425Y-6351320D01*
X700328Y-6346952D01*
X712571Y-6340906D01*
X723950Y-6333286D01*
X729894Y-6328105D01*
X733196Y-6326124D01*
X737006Y-6325565D01*
X740765Y-6326479D01*
X743915Y-6328714D01*
X745998Y-6331915D01*
X746760Y-6335725D01*
X746760Y-6400292D01*
X747572Y-6408724D01*
X749909Y-6416344D01*
X752398Y-6421018D01*
X753567Y-6425031D01*
X753008Y-6429197D01*
X752195Y-6430568D01*
X754278Y-6429959D01*
X758494Y-6430619D01*
X762050Y-6432956D01*
X936091Y-6606997D01*
X942644Y-6612381D01*
X949655Y-6616090D01*
X957275Y-6618427D01*
X962202Y-6619646D01*
X965200Y-6621983D01*
X967130Y-6625234D01*
X967740Y-6628993D01*
X966876Y-6632702D01*
X964742Y-6635851D01*
X416102Y-7184491D01*
X410718Y-7191044D01*
X407009Y-7198055D01*
X404672Y-7205675D01*
X403860Y-7214108D01*
X403860Y-8102092D01*
X404672Y-8110524D01*
X407009Y-8118144D01*
X410718Y-8125155D01*
X416102Y-8131708D01*
X910691Y-8626297D01*
X917244Y-8631682D01*
X924255Y-8635390D01*
X931875Y-8637727D01*
X940308Y-8638540D01*
X2684068Y-8638540D01*
X2687929Y-8639352D01*
X2691231Y-8641537D01*
X2828391Y-8778697D01*
X2834944Y-8784082D01*
X2841955Y-8787790D01*
X2849575Y-8790127D01*
X2858008Y-8790940D01*
X2933192Y-8790940D01*
X2941624Y-8790127D01*
X2949244Y-8787790D01*
X2956255Y-8784082D01*
X2962808Y-8778697D01*
X3313633Y-8427872D01*
X3316528Y-8425840D01*
X3319932Y-8424926D01*
X3324453Y-8424519D01*
X3333902Y-8422030D01*
X3342741Y-8417864D01*
X3350768Y-8412276D01*
X3357676Y-8405368D01*
X3363264Y-8397341D01*
X3367430Y-8388502D01*
X3369919Y-8379053D01*
X3370783Y-8369300D01*
X3369919Y-8359546D01*
X3367430Y-8350097D01*
X3363264Y-8341258D01*
X3357676Y-8333231D01*
X3350768Y-8326323D01*
X3342741Y-8320735D01*
X3333902Y-8316569D01*
X3324453Y-8314080D01*
X3314700Y-8313216D01*
X3304946Y-8314080D01*
X3295497Y-8316569D01*
X3286658Y-8320735D01*
X3278428Y-8326475D01*
X3274517Y-8328152D01*
X3273552Y-8329117D01*
X3271875Y-8333028D01*
X3266135Y-8341258D01*
X3261969Y-8350097D01*
X3259480Y-8359546D01*
X3259074Y-8364067D01*
X3258159Y-8367471D01*
X3256127Y-8370366D01*
X2919831Y-8706662D01*
X2916529Y-8708898D01*
X2912668Y-8709660D01*
X2878531Y-8709660D01*
X2874670Y-8708898D01*
X2871368Y-8706662D01*
X2734208Y-8569502D01*
X2727655Y-8564118D01*
X2720644Y-8560409D01*
X2713024Y-8558072D01*
X2704592Y-8557260D01*
X960831Y-8557260D01*
X956970Y-8556498D01*
X953668Y-8554262D01*
X801624Y-8402218D01*
X799338Y-8398662D01*
X798880Y-8395919D01*
X796137Y-8395462D01*
X792581Y-8393176D01*
X488137Y-8088731D01*
X485952Y-8085429D01*
X485140Y-8081568D01*
X485140Y-7874304D01*
X486105Y-7869986D01*
X488746Y-7866532D01*
X492658Y-7864500D01*
X497027Y-7864246D01*
X501091Y-7865922D01*
X504088Y-7869123D01*
X505409Y-7873288D01*
X506272Y-7881924D01*
X508609Y-7889544D01*
X512318Y-7896555D01*
X517702Y-7903108D01*
X807262Y-8192668D01*
X809498Y-8195970D01*
X810260Y-8199831D01*
X810260Y-8301329D01*
X809752Y-8304377D01*
X808431Y-8307171D01*
X802335Y-8315858D01*
X798169Y-8324697D01*
X795680Y-8334146D01*
X794816Y-8343900D01*
X795680Y-8353653D01*
X798169Y-8363102D01*
X802335Y-8371941D01*
X808075Y-8380171D01*
X809752Y-8384082D01*
X810717Y-8385048D01*
X814628Y-8386724D01*
X822858Y-8392464D01*
X831697Y-8396630D01*
X841146Y-8399119D01*
X850900Y-8399983D01*
X860653Y-8399119D01*
X870102Y-8396630D01*
X878941Y-8392464D01*
X886968Y-8386876D01*
X893876Y-8379968D01*
X899464Y-8371941D01*
X903630Y-8363102D01*
X906119Y-8353653D01*
X906983Y-8343900D01*
X906119Y-8334146D01*
X903630Y-8324697D01*
X899464Y-8315858D01*
X893368Y-8307171D01*
X892048Y-8304377D01*
X891540Y-8301329D01*
X891540Y-8179308D01*
X890727Y-8170875D01*
X888390Y-8163255D01*
X884682Y-8156244D01*
X879297Y-8149691D01*
X589737Y-7860131D01*
X587552Y-7856829D01*
X586740Y-7852968D01*
X586740Y-7666431D01*
X587552Y-7662570D01*
X589737Y-7659268D01*
X648868Y-7600137D01*
X652170Y-7597952D01*
X656031Y-7597140D01*
X812292Y-7597140D01*
X820724Y-7596327D01*
X828344Y-7593990D01*
X835355Y-7590281D01*
X841908Y-7584897D01*
X1148486Y-7278268D01*
X1151788Y-7276084D01*
X1155700Y-7275322D01*
X1159560Y-7276084D01*
X1162862Y-7278268D01*
X1165098Y-7281570D01*
X1165860Y-7285481D01*
X1165860Y-7454392D01*
X1166672Y-7462824D01*
X1169009Y-7470444D01*
X1172718Y-7477455D01*
X1178102Y-7484008D01*
X1287627Y-7593533D01*
X1289659Y-7596428D01*
X1290574Y-7599832D01*
X1290980Y-7604353D01*
X1293469Y-7613802D01*
X1297635Y-7622641D01*
X1303223Y-7630668D01*
X1310132Y-7637576D01*
X1318158Y-7643164D01*
X1326997Y-7647330D01*
X1336446Y-7649819D01*
X1340967Y-7650225D01*
X1344371Y-7651140D01*
X1347266Y-7653172D01*
X1659991Y-7965897D01*
X1662226Y-7967725D01*
X1664817Y-7970926D01*
X1665935Y-7974939D01*
X1665376Y-7979003D01*
X1663192Y-7982508D01*
X1659839Y-7984896D01*
X1655775Y-7985759D01*
X1557731Y-7985759D01*
X1553870Y-7984998D01*
X1550568Y-7982762D01*
X1286408Y-7718602D01*
X1279855Y-7713218D01*
X1272844Y-7709509D01*
X1265224Y-7707172D01*
X1256792Y-7706359D01*
X715670Y-7706359D01*
X712622Y-7705852D01*
X709828Y-7704531D01*
X701141Y-7698435D01*
X692302Y-7694269D01*
X682853Y-7691780D01*
X673100Y-7690916D01*
X663346Y-7691780D01*
X653897Y-7694269D01*
X645058Y-7698435D01*
X637032Y-7704023D01*
X630123Y-7710931D01*
X624535Y-7718958D01*
X620369Y-7727797D01*
X617880Y-7737246D01*
X617016Y-7747000D01*
X617880Y-7756753D01*
X620369Y-7766202D01*
X624535Y-7775041D01*
X630123Y-7783068D01*
X637032Y-7789976D01*
X645058Y-7795564D01*
X653897Y-7799730D01*
X663346Y-7802219D01*
X673100Y-7803083D01*
X682853Y-7802219D01*
X692302Y-7799730D01*
X701141Y-7795564D01*
X709828Y-7789468D01*
X712622Y-7788148D01*
X715670Y-7787640D01*
X1236268Y-7787640D01*
X1240129Y-7788452D01*
X1243431Y-7790637D01*
X1507591Y-8054797D01*
X1514144Y-8060181D01*
X1521155Y-8063890D01*
X1528775Y-8066227D01*
X1537208Y-8067040D01*
X2679192Y-8067040D01*
X2687624Y-8066227D01*
X2695244Y-8063890D01*
X2702255Y-8060181D01*
X2708808Y-8054797D01*
X2723286Y-8040268D01*
X2726588Y-8038084D01*
X2730500Y-8037322D01*
X2734360Y-8038084D01*
X2737662Y-8040268D01*
X2739847Y-8043570D01*
X2740660Y-8047481D01*
X2740660Y-8140192D01*
X2741472Y-8148624D01*
X2743809Y-8156244D01*
X2747518Y-8163255D01*
X2752902Y-8169808D01*
X2828391Y-8245297D01*
X2834944Y-8250681D01*
X2841955Y-8254390D01*
X2849575Y-8256727D01*
X2858008Y-8257540D01*
X3022092Y-8257540D01*
X3030524Y-8256727D01*
X3038144Y-8254390D01*
X3045155Y-8250681D01*
X3051708Y-8245297D01*
X3101797Y-8195208D01*
X3107182Y-8188655D01*
X3110890Y-8181644D01*
X3113227Y-8174024D01*
X3114040Y-8165592D01*
X3114040Y-7983931D01*
X3114852Y-7980070D01*
X3117037Y-7976768D01*
X3250133Y-7843672D01*
X3253028Y-7841640D01*
X3256432Y-7840725D01*
X3260953Y-7840319D01*
X3270402Y-7837830D01*
X3279241Y-7833664D01*
X3287268Y-7828076D01*
X3294176Y-7821168D01*
X3299764Y-7813141D01*
X3303930Y-7804302D01*
X3306419Y-7794853D01*
X3307283Y-7785100D01*
X3306419Y-7775346D01*
X3303930Y-7765897D01*
X3299764Y-7757058D01*
X3294176Y-7749031D01*
X3287268Y-7742123D01*
X3279241Y-7736535D01*
X3270402Y-7732369D01*
X3260953Y-7729880D01*
X3251200Y-7729016D01*
X3241446Y-7729880D01*
X3231997Y-7732369D01*
X3223158Y-7736535D01*
X3218789Y-7738821D01*
X3215284Y-7739125D01*
X3211880Y-7738211D01*
X3208985Y-7736179D01*
X3142437Y-7669631D01*
X3140252Y-7666329D01*
X3139440Y-7662468D01*
X3139440Y-7488631D01*
X3140252Y-7484770D01*
X3142437Y-7481468D01*
X3214268Y-7409637D01*
X3217570Y-7407452D01*
X3221431Y-7406640D01*
X3301492Y-7406640D01*
X3309924Y-7405827D01*
X3317544Y-7403490D01*
X3324555Y-7399781D01*
X3331108Y-7394397D01*
X3332886Y-7392568D01*
X3336188Y-7390384D01*
X3340100Y-7389622D01*
X3343960Y-7390384D01*
X3347262Y-7392568D01*
X3349447Y-7395870D01*
X3350260Y-7399781D01*
X3350260Y-8106968D01*
X3349447Y-8110829D01*
X3347262Y-8114131D01*
X2919882Y-8541512D01*
X2916986Y-8543544D01*
X2913583Y-8544458D01*
X2910078Y-8544153D01*
X2906877Y-8542680D01*
X2898241Y-8536635D01*
X2889402Y-8532469D01*
X2879953Y-8529980D01*
X2870200Y-8529116D01*
X2860446Y-8529980D01*
X2850997Y-8532469D01*
X2842158Y-8536635D01*
X2834132Y-8542223D01*
X2827223Y-8549132D01*
X2821635Y-8557158D01*
X2817469Y-8565997D01*
X2814980Y-8575446D01*
X2814116Y-8585200D01*
X2814980Y-8594953D01*
X2817469Y-8604402D01*
X2821635Y-8613241D01*
X2827223Y-8621268D01*
X2834132Y-8628176D01*
X2842158Y-8633764D01*
X2850997Y-8637930D01*
X2860446Y-8640419D01*
X2870200Y-8641283D01*
X2879953Y-8640419D01*
X2889402Y-8637930D01*
X2898241Y-8633764D01*
X2906928Y-8627668D01*
X2909722Y-8626348D01*
X2912770Y-8625840D01*
X2933192Y-8625840D01*
X2941624Y-8625027D01*
X2949244Y-8622690D01*
X2956255Y-8618982D01*
X2962808Y-8613597D01*
X3256381Y-8320024D01*
X3259937Y-8317738D01*
X3262680Y-8317280D01*
X3263138Y-8314537D01*
X3265424Y-8310981D01*
X3396386Y-8179968D01*
X3399688Y-8177784D01*
X3403600Y-8177022D01*
X3407460Y-8177784D01*
X3410762Y-8179968D01*
X3412947Y-8183270D01*
X3413760Y-8187181D01*
X3413760Y-8775192D01*
X3414572Y-8783624D01*
X3416909Y-8791244D01*
X3420618Y-8798255D01*
X3426002Y-8804808D01*
X4427728Y-9806482D01*
X4429912Y-9809784D01*
X4430674Y-9813696D01*
X4429912Y-9817557D01*
X4427728Y-9820859D01*
X4424426Y-9823094D01*
X4420514Y-9823856D01*
X4392371Y-9823856D01*
X4392371Y-9903155D01*
X4471670Y-9903155D01*
X4471670Y-9874961D01*
X4472432Y-9871100D01*
X4474616Y-9867798D01*
X4477918Y-9865614D01*
X4481830Y-9864801D01*
X4485690Y-9865614D01*
X4488992Y-9867798D01*
X4619091Y-9997897D01*
X4625644Y-10003282D01*
X4632655Y-10006990D01*
X4640275Y-10009327D01*
X4648708Y-10010140D01*
X4678730Y-10010140D01*
X4682998Y-10011054D01*
X4686452Y-10013696D01*
X4688535Y-10017607D01*
X4694783Y-10032695D01*
X4702657Y-10046970D01*
X4712157Y-10060279D01*
X4723028Y-10072471D01*
X4735169Y-10083342D01*
X4748530Y-10092791D01*
X4762804Y-10100716D01*
X4777892Y-10106964D01*
X4793589Y-10111486D01*
X4809693Y-10114229D01*
G37*
G36*
X14137233Y-9903155D02*
G01*
X14216532Y-9903155D01*
X14216532Y-9850069D01*
X14215821Y-9843820D01*
X14213941Y-9838385D01*
X14210893Y-9833559D01*
X14206829Y-9829495D01*
X14202003Y-9826447D01*
X14196568Y-9824567D01*
X14190319Y-9823856D01*
X14137233Y-9823856D01*
G37*
G36*
X13925245Y-9903155D02*
G01*
X14004544Y-9903155D01*
X14004544Y-9823856D01*
X13951457Y-9823856D01*
X13945209Y-9824567D01*
X13939774Y-9826447D01*
X13934948Y-9829495D01*
X13930884Y-9833559D01*
X13927836Y-9838385D01*
X13925956Y-9843820D01*
X13925245Y-9850069D01*
G37*
G36*
X4180332Y-9903155D02*
G01*
X4259630Y-9903155D01*
X4259630Y-9823856D01*
X4206595Y-9823856D01*
X4200296Y-9824567D01*
X4194911Y-9826447D01*
X4190034Y-9829495D01*
X4185970Y-9833559D01*
X4182922Y-9838385D01*
X4181043Y-9843820D01*
X4180332Y-9850069D01*
G37*
G36*
X14008303Y-8694572D02*
G01*
X15252242Y-8694572D01*
X15265552Y-8694318D01*
X15278607Y-8693556D01*
X15285313Y-8692794D01*
X15291663Y-8692337D01*
X15304668Y-8690610D01*
X15317622Y-8688425D01*
X15330424Y-8685733D01*
X15343174Y-8682583D01*
X15349626Y-8680602D01*
X15355773Y-8678976D01*
X15362123Y-8676741D01*
X15368219Y-8674862D01*
X15380512Y-8670290D01*
X15386710Y-8667597D01*
X15392654Y-8665311D01*
X15398699Y-8662365D01*
X15404541Y-8659825D01*
X15416276Y-8653932D01*
X15422118Y-8650528D01*
X15427756Y-8647582D01*
X15433446Y-8643975D01*
X15438983Y-8640826D01*
X15449956Y-8633612D01*
X15455392Y-8629599D01*
X15460624Y-8626043D01*
X15465907Y-8621826D01*
X15471038Y-8618067D01*
X15476169Y-8613648D01*
X15481147Y-8609685D01*
X15490901Y-8600948D01*
X15495676Y-8596172D01*
X15500350Y-8591854D01*
X15509443Y-8582406D01*
X15518180Y-8572601D01*
X15526562Y-8562543D01*
X15534538Y-8552129D01*
X15538348Y-8546541D01*
X15542158Y-8541410D01*
X15545714Y-8535720D01*
X15549321Y-8530437D01*
X15556077Y-8519210D01*
X15562427Y-8507730D01*
X15568320Y-8496046D01*
X15573806Y-8484108D01*
X15578836Y-8472017D01*
X15581071Y-8465616D01*
X15583407Y-8459724D01*
X15587472Y-8447278D01*
X15591129Y-8434679D01*
X15594279Y-8421928D01*
X15596971Y-8409076D01*
X15599156Y-8396173D01*
X15599918Y-8389467D01*
X15600883Y-8383168D01*
X15602102Y-8370112D01*
X15602813Y-8357006D01*
X15602813Y-8350250D01*
X15603067Y-8343900D01*
X15602813Y-8330793D01*
X15602305Y-8324037D01*
X15602102Y-8317687D01*
X15601340Y-8310981D01*
X15600883Y-8304631D01*
X15599867Y-8297976D01*
X15599156Y-8291626D01*
X15597886Y-8285022D01*
X15596971Y-8278723D01*
X15595447Y-8272119D01*
X15594279Y-8265871D01*
X15591129Y-8253171D01*
X15587472Y-8240522D01*
X15583407Y-8228075D01*
X15580918Y-8221827D01*
X15578836Y-8215782D01*
X15573806Y-8203692D01*
X15568320Y-8191753D01*
X15562427Y-8180070D01*
X15556077Y-8168589D01*
X15549321Y-8157362D01*
X15545511Y-8151774D01*
X15542158Y-8146389D01*
X15534538Y-8135670D01*
X15526562Y-8125256D01*
X15518180Y-8115198D01*
X15509443Y-8105394D01*
X15500248Y-8095792D01*
X14680133Y-7275728D01*
X14677948Y-7272426D01*
X14677186Y-7268565D01*
X14677186Y-4103624D01*
X14677948Y-4099712D01*
X14680133Y-4096410D01*
X14683435Y-4094226D01*
X14687346Y-4093464D01*
X14731238Y-4093464D01*
X14737232Y-4092803D01*
X14742668Y-4090873D01*
X14747544Y-4087825D01*
X14749881Y-4085742D01*
X15004643Y-3830929D01*
X15008453Y-3826256D01*
X15010942Y-3821074D01*
X15012212Y-3815486D01*
X15012365Y-3812336D01*
X15012365Y-2538679D01*
X15011704Y-2532684D01*
X15009825Y-2527249D01*
X15006777Y-2522372D01*
X15004643Y-2520035D01*
X14752878Y-2268220D01*
X14748205Y-2264460D01*
X14743023Y-2261971D01*
X14737435Y-2260701D01*
X14734235Y-2260549D01*
X13770559Y-2260549D01*
X13766444Y-2259685D01*
X13763040Y-2257247D01*
X13760907Y-2253640D01*
X13760450Y-2249474D01*
X13761669Y-2245461D01*
X13762837Y-2243378D01*
X13769289Y-2227732D01*
X13773962Y-2211527D01*
X13776807Y-2194864D01*
X13777722Y-2177999D01*
X13776807Y-2161133D01*
X13773962Y-2144471D01*
X13769289Y-2128266D01*
X13762837Y-2112619D01*
X13754658Y-2097836D01*
X13744854Y-2084070D01*
X13733627Y-2071471D01*
X13721029Y-2060244D01*
X13707262Y-2050440D01*
X13692479Y-2042261D01*
X13676833Y-2035810D01*
X13660628Y-2031136D01*
X13643965Y-2028291D01*
X13627100Y-2027377D01*
X13610234Y-2028291D01*
X13593572Y-2031136D01*
X13577366Y-2035810D01*
X13561720Y-2042261D01*
X13546937Y-2050440D01*
X13533170Y-2060244D01*
X13520572Y-2071471D01*
X13509345Y-2084070D01*
X13499541Y-2097836D01*
X13491362Y-2112619D01*
X13484910Y-2128266D01*
X13480237Y-2144471D01*
X13477392Y-2161133D01*
X13476478Y-2177999D01*
X13477392Y-2194864D01*
X13480237Y-2211527D01*
X13484910Y-2227732D01*
X13491362Y-2243378D01*
X13492530Y-2245461D01*
X13493750Y-2249474D01*
X13493292Y-2253640D01*
X13491159Y-2257247D01*
X13487755Y-2259685D01*
X13483640Y-2260549D01*
X11154359Y-2260549D01*
X11150244Y-2259685D01*
X11146840Y-2257247D01*
X11144707Y-2253640D01*
X11144250Y-2249474D01*
X11145469Y-2245461D01*
X11146637Y-2243378D01*
X11153089Y-2227732D01*
X11157762Y-2211527D01*
X11160607Y-2194864D01*
X11161522Y-2177999D01*
X11160607Y-2161133D01*
X11157762Y-2144471D01*
X11153089Y-2128266D01*
X11146637Y-2112619D01*
X11138458Y-2097836D01*
X11128654Y-2084070D01*
X11117427Y-2071471D01*
X11104829Y-2060244D01*
X11091062Y-2050440D01*
X11076279Y-2042261D01*
X11060633Y-2035810D01*
X11044428Y-2031136D01*
X11027765Y-2028291D01*
X11010900Y-2027377D01*
X10994034Y-2028291D01*
X10977372Y-2031136D01*
X10961166Y-2035810D01*
X10945520Y-2042261D01*
X10930737Y-2050440D01*
X10916970Y-2060244D01*
X10904372Y-2071471D01*
X10893145Y-2084070D01*
X10883341Y-2097836D01*
X10875162Y-2112619D01*
X10868710Y-2128266D01*
X10864037Y-2144471D01*
X10861192Y-2161133D01*
X10860278Y-2177999D01*
X10861192Y-2194864D01*
X10864037Y-2211527D01*
X10868710Y-2227732D01*
X10875162Y-2243378D01*
X10876330Y-2245461D01*
X10877550Y-2249474D01*
X10877092Y-2253640D01*
X10874959Y-2257247D01*
X10871555Y-2259685D01*
X10867440Y-2260549D01*
X7293559Y-2260549D01*
X7289444Y-2259685D01*
X7286040Y-2257247D01*
X7283907Y-2253640D01*
X7283450Y-2249474D01*
X7284669Y-2245461D01*
X7285837Y-2243378D01*
X7292289Y-2227732D01*
X7296962Y-2211527D01*
X7299807Y-2194864D01*
X7300722Y-2177999D01*
X7299807Y-2161133D01*
X7296962Y-2144471D01*
X7292289Y-2128266D01*
X7285837Y-2112619D01*
X7277658Y-2097836D01*
X7267854Y-2084070D01*
X7256627Y-2071471D01*
X7244029Y-2060244D01*
X7230262Y-2050440D01*
X7215479Y-2042261D01*
X7199833Y-2035810D01*
X7183628Y-2031136D01*
X7166965Y-2028291D01*
X7150100Y-2027377D01*
X7133234Y-2028291D01*
X7116572Y-2031136D01*
X7100366Y-2035810D01*
X7084720Y-2042261D01*
X7069937Y-2050440D01*
X7056170Y-2060244D01*
X7043572Y-2071471D01*
X7032345Y-2084070D01*
X7022541Y-2097836D01*
X7014362Y-2112619D01*
X7007910Y-2128266D01*
X7003237Y-2144471D01*
X7000392Y-2161133D01*
X6999478Y-2177999D01*
X7000392Y-2194864D01*
X7003237Y-2211527D01*
X7007910Y-2227732D01*
X7014362Y-2243378D01*
X7015530Y-2245461D01*
X7016750Y-2249474D01*
X7016292Y-2253640D01*
X7014159Y-2257247D01*
X7010755Y-2259685D01*
X7006640Y-2260549D01*
X4677359Y-2260549D01*
X4673244Y-2259685D01*
X4669840Y-2257247D01*
X4667707Y-2253640D01*
X4667250Y-2249474D01*
X4668469Y-2245461D01*
X4669637Y-2243378D01*
X4676089Y-2227732D01*
X4680762Y-2211527D01*
X4683607Y-2194864D01*
X4684522Y-2177999D01*
X4683607Y-2161133D01*
X4680762Y-2144471D01*
X4676089Y-2128266D01*
X4669637Y-2112619D01*
X4661458Y-2097836D01*
X4651654Y-2084070D01*
X4640427Y-2071471D01*
X4627829Y-2060244D01*
X4614062Y-2050440D01*
X4599279Y-2042261D01*
X4583633Y-2035810D01*
X4567428Y-2031136D01*
X4550765Y-2028291D01*
X4533900Y-2027377D01*
X4517034Y-2028291D01*
X4500372Y-2031136D01*
X4484166Y-2035810D01*
X4468520Y-2042261D01*
X4453737Y-2050440D01*
X4439970Y-2060244D01*
X4427372Y-2071471D01*
X4416145Y-2084070D01*
X4406341Y-2097836D01*
X4398162Y-2112619D01*
X4391710Y-2128266D01*
X4387037Y-2144471D01*
X4384192Y-2161133D01*
X4383278Y-2177999D01*
X4384192Y-2194864D01*
X4387037Y-2211527D01*
X4391710Y-2227732D01*
X4398162Y-2243378D01*
X4399330Y-2245461D01*
X4400550Y-2249474D01*
X4400092Y-2253640D01*
X4397959Y-2257247D01*
X4394555Y-2259685D01*
X4390440Y-2260549D01*
X3556457Y-2260549D01*
X3550513Y-2261158D01*
X3543706Y-2263190D01*
X3538474Y-2265680D01*
X3533800Y-2269439D01*
X3503777Y-2299462D01*
X3280054Y-2524861D01*
X3276295Y-2529586D01*
X3273806Y-2534767D01*
X3272586Y-2540355D01*
X3272383Y-2543403D01*
X3272383Y-3810101D01*
X3273044Y-3816096D01*
X3274974Y-3821480D01*
X3278022Y-3826357D01*
X3280105Y-3828694D01*
X3537153Y-4085742D01*
X3541826Y-4089501D01*
X3547008Y-4091990D01*
X3552494Y-4093260D01*
X3555847Y-4094429D01*
X3558540Y-4096715D01*
X3560318Y-4099763D01*
X3560927Y-4103268D01*
X3560927Y-4317796D01*
X3561181Y-4331106D01*
X3561943Y-4344212D01*
X3562705Y-4350918D01*
X3563162Y-4357268D01*
X3564178Y-4363923D01*
X3564890Y-4370273D01*
X3567074Y-4383176D01*
X3569766Y-4396028D01*
X3572916Y-4408779D01*
X3574897Y-4415180D01*
X3576523Y-4421378D01*
X3578758Y-4427728D01*
X3580637Y-4433824D01*
X3585210Y-4446117D01*
X3587902Y-4452315D01*
X3590188Y-4458208D01*
X3593134Y-4464304D01*
X3595674Y-4470146D01*
X3598824Y-4476089D01*
X3601567Y-4481830D01*
X3604971Y-4487672D01*
X3607917Y-4493310D01*
X3611524Y-4499051D01*
X3614674Y-4504537D01*
X3621887Y-4515510D01*
X3625900Y-4520946D01*
X3629456Y-4526229D01*
X3633673Y-4531512D01*
X3637432Y-4536643D01*
X3641851Y-4541723D01*
X3645814Y-4546701D01*
X3654551Y-4556506D01*
X3659327Y-4561281D01*
X3663797Y-4566107D01*
X3904792Y-4807102D01*
X3914394Y-4816348D01*
X3924198Y-4825085D01*
X3934256Y-4833467D01*
X3944670Y-4841443D01*
X3955389Y-4849012D01*
X3966362Y-4856226D01*
X3972204Y-4859578D01*
X3977589Y-4862982D01*
X3989070Y-4869332D01*
X3995115Y-4872228D01*
X4000754Y-4875225D01*
X4006951Y-4877917D01*
X4012692Y-4880711D01*
X4024782Y-4885690D01*
X4031183Y-4887925D01*
X4037076Y-4890262D01*
X4043527Y-4892243D01*
X4049522Y-4894376D01*
X4056075Y-4896104D01*
X4062120Y-4897983D01*
X4074871Y-4901133D01*
X4087723Y-4903825D01*
X4100626Y-4906010D01*
X4107332Y-4906772D01*
X4113631Y-4907737D01*
X4126687Y-4908956D01*
X4133443Y-4909210D01*
X4139793Y-4909718D01*
X4146550Y-4909718D01*
X4153103Y-4909972D01*
X10074046Y-4909972D01*
X10077958Y-4910734D01*
X10081209Y-4912918D01*
X13759992Y-8591702D01*
X13769594Y-8600948D01*
X13779398Y-8609685D01*
X13789456Y-8618067D01*
X13799870Y-8626043D01*
X13810589Y-8633612D01*
X13821562Y-8640826D01*
X13827404Y-8644178D01*
X13832789Y-8647582D01*
X13844269Y-8653932D01*
X13850315Y-8656828D01*
X13855954Y-8659825D01*
X13862151Y-8662517D01*
X13867892Y-8665311D01*
X13879982Y-8670290D01*
X13886383Y-8672525D01*
X13892276Y-8674862D01*
X13898727Y-8676843D01*
X13904722Y-8678976D01*
X13911275Y-8680704D01*
X13917371Y-8682583D01*
X13930071Y-8685733D01*
X13942923Y-8688425D01*
X13955826Y-8690610D01*
X13962532Y-8691372D01*
X13968831Y-8692337D01*
X13981887Y-8693556D01*
X13988643Y-8693810D01*
X13994993Y-8694318D01*
X14001750Y-8694318D01*
G37*
G36*
X12992404Y-8494522D02*
G01*
X13009270Y-8493607D01*
X13025932Y-8490762D01*
X13042138Y-8486089D01*
X13057784Y-8479637D01*
X13072567Y-8471458D01*
X13086334Y-8461654D01*
X13098932Y-8450427D01*
X13110159Y-8437829D01*
X13119963Y-8424062D01*
X13128142Y-8409279D01*
X13134594Y-8393633D01*
X13139267Y-8377428D01*
X13142112Y-8360765D01*
X13143026Y-8343900D01*
X13142112Y-8327034D01*
X13139267Y-8310372D01*
X13134594Y-8294166D01*
X13128142Y-8278520D01*
X13119963Y-8263737D01*
X13110159Y-8249970D01*
X13098932Y-8237372D01*
X13086334Y-8226145D01*
X13072567Y-8216341D01*
X13057784Y-8208162D01*
X13042138Y-8201710D01*
X13025932Y-8197037D01*
X13009270Y-8194192D01*
X12992404Y-8193278D01*
X12975539Y-8194192D01*
X12958876Y-8197037D01*
X12942671Y-8201710D01*
X12927025Y-8208162D01*
X12912242Y-8216341D01*
X12898475Y-8226145D01*
X12885877Y-8237372D01*
X12874650Y-8249970D01*
X12864846Y-8263737D01*
X12856667Y-8278520D01*
X12850215Y-8294166D01*
X12845542Y-8310372D01*
X12842697Y-8327034D01*
X12841782Y-8343900D01*
X12842697Y-8360765D01*
X12845542Y-8377428D01*
X12850215Y-8393633D01*
X12856667Y-8409279D01*
X12864846Y-8424062D01*
X12874650Y-8437829D01*
X12885877Y-8450427D01*
X12898475Y-8461654D01*
X12912242Y-8471458D01*
X12927025Y-8479637D01*
X12942671Y-8486089D01*
X12958876Y-8490762D01*
X12975539Y-8493607D01*
G37*
G36*
X660400Y-6862876D02*
G01*
X674014Y-6861962D01*
X687425Y-6859320D01*
X700328Y-6854952D01*
X712571Y-6848906D01*
X723950Y-6841286D01*
X734212Y-6832295D01*
X743204Y-6822033D01*
X750773Y-6810705D01*
X756818Y-6798462D01*
X761238Y-6785508D01*
X763879Y-6772148D01*
X764794Y-6758482D01*
X763879Y-6744868D01*
X761238Y-6731508D01*
X756818Y-6718553D01*
X750773Y-6706311D01*
X743204Y-6694982D01*
X734212Y-6684721D01*
X723950Y-6675678D01*
X712571Y-6668109D01*
X700328Y-6662064D01*
X687425Y-6657695D01*
X674014Y-6655003D01*
X660400Y-6654139D01*
X646785Y-6655003D01*
X633374Y-6657695D01*
X620471Y-6662064D01*
X608228Y-6668109D01*
X596849Y-6675678D01*
X586587Y-6684721D01*
X577596Y-6694982D01*
X570026Y-6706311D01*
X563981Y-6718553D01*
X559562Y-6731508D01*
X556920Y-6744868D01*
X556006Y-6758482D01*
X556920Y-6772148D01*
X559562Y-6785508D01*
X563981Y-6798462D01*
X570026Y-6810705D01*
X577596Y-6822033D01*
X586587Y-6832295D01*
X596849Y-6841286D01*
X608228Y-6848906D01*
X620471Y-6854952D01*
X633374Y-6859320D01*
X646785Y-6861962D01*
G37*
G36*
X406400Y-6862876D02*
G01*
X420014Y-6861962D01*
X433425Y-6859320D01*
X446328Y-6854952D01*
X458571Y-6848906D01*
X469950Y-6841286D01*
X480212Y-6832295D01*
X489204Y-6822033D01*
X496773Y-6810705D01*
X502818Y-6798462D01*
X507238Y-6785508D01*
X509879Y-6772148D01*
X510793Y-6758482D01*
X509879Y-6744868D01*
X507238Y-6731508D01*
X502818Y-6718553D01*
X496773Y-6706311D01*
X489204Y-6694982D01*
X480212Y-6684721D01*
X469950Y-6675678D01*
X458571Y-6668109D01*
X446328Y-6662064D01*
X433425Y-6657695D01*
X420014Y-6655003D01*
X406400Y-6654139D01*
X392785Y-6655003D01*
X379374Y-6657695D01*
X366471Y-6662064D01*
X354228Y-6668109D01*
X342849Y-6675678D01*
X332587Y-6684721D01*
X323596Y-6694982D01*
X316026Y-6706311D01*
X309981Y-6718553D01*
X305562Y-6731508D01*
X302920Y-6744868D01*
X302006Y-6758482D01*
X302920Y-6772148D01*
X305562Y-6785508D01*
X309981Y-6798462D01*
X316026Y-6810705D01*
X323596Y-6822033D01*
X332587Y-6832295D01*
X342849Y-6841286D01*
X354228Y-6848906D01*
X366471Y-6854952D01*
X379374Y-6859320D01*
X392785Y-6861962D01*
G37*
G36*
X406400Y-6608876D02*
G01*
X420014Y-6607962D01*
X433425Y-6605320D01*
X446328Y-6600952D01*
X458571Y-6594906D01*
X469950Y-6587286D01*
X480212Y-6578295D01*
X489204Y-6568033D01*
X496773Y-6556705D01*
X502818Y-6544462D01*
X507238Y-6531508D01*
X509879Y-6518148D01*
X510793Y-6504482D01*
X509879Y-6490868D01*
X507238Y-6477508D01*
X502818Y-6464554D01*
X496773Y-6452311D01*
X488899Y-6440474D01*
X488442Y-6439357D01*
X486664Y-6438036D01*
X480212Y-6430721D01*
X469950Y-6421678D01*
X458571Y-6414109D01*
X446328Y-6408064D01*
X433425Y-6403695D01*
X420014Y-6401003D01*
X406400Y-6400139D01*
X392785Y-6401003D01*
X379374Y-6403695D01*
X366471Y-6408064D01*
X354228Y-6414109D01*
X342849Y-6421678D01*
X332587Y-6430721D01*
X323596Y-6440982D01*
X316026Y-6452311D01*
X309981Y-6464554D01*
X305562Y-6477508D01*
X302920Y-6490868D01*
X302006Y-6504482D01*
X302920Y-6518148D01*
X305562Y-6531508D01*
X309981Y-6544462D01*
X316026Y-6556705D01*
X323596Y-6568033D01*
X332587Y-6578295D01*
X342849Y-6587286D01*
X354228Y-6594906D01*
X366471Y-6600952D01*
X379374Y-6605320D01*
X392785Y-6607962D01*
G37*
G36*
X328218Y-6354876D02*
G01*
X360680Y-6354876D01*
X360680Y-6296202D01*
X302006Y-6296202D01*
X302006Y-6328664D01*
X302717Y-6334912D01*
X304596Y-6340348D01*
X307644Y-6345174D01*
X311708Y-6349238D01*
X316534Y-6352286D01*
X321970Y-6354165D01*
G37*
G36*
X3213100Y-5872683D02*
G01*
X3222853Y-5871819D01*
X3232302Y-5869330D01*
X3241141Y-5865164D01*
X3249168Y-5859576D01*
X3256076Y-5852668D01*
X3261664Y-5844641D01*
X3265830Y-5835802D01*
X3268319Y-5826353D01*
X3269183Y-5816600D01*
X3268319Y-5806846D01*
X3265830Y-5797397D01*
X3261664Y-5788558D01*
X3256076Y-5780532D01*
X3249168Y-5773623D01*
X3241141Y-5768035D01*
X3232302Y-5763869D01*
X3222853Y-5761380D01*
X3218332Y-5760974D01*
X3214928Y-5760059D01*
X3212033Y-5758027D01*
X2921558Y-5467553D01*
X2919272Y-5464048D01*
X2918612Y-5459882D01*
X2919679Y-5455767D01*
X2922371Y-5452516D01*
X2936341Y-5446064D01*
X2944368Y-5440476D01*
X2951276Y-5433568D01*
X2956864Y-5425541D01*
X2961030Y-5416702D01*
X2963519Y-5407253D01*
X2964383Y-5397500D01*
X2963519Y-5387746D01*
X2961030Y-5378297D01*
X2956864Y-5369458D01*
X2951276Y-5361432D01*
X2944368Y-5354523D01*
X2936341Y-5348935D01*
X2927502Y-5344769D01*
X2918053Y-5342280D01*
X2913532Y-5341874D01*
X2910128Y-5340959D01*
X2907233Y-5338927D01*
X2418537Y-4850231D01*
X2416352Y-4846929D01*
X2415540Y-4843068D01*
X2415540Y-3408070D01*
X2416048Y-3405022D01*
X2417368Y-3402228D01*
X2423464Y-3393541D01*
X2427630Y-3384702D01*
X2430119Y-3375253D01*
X2430983Y-3365500D01*
X2430119Y-3355746D01*
X2427630Y-3346297D01*
X2423464Y-3337458D01*
X2417876Y-3329432D01*
X2410968Y-3322523D01*
X2402941Y-3316935D01*
X2394102Y-3312769D01*
X2384653Y-3310280D01*
X2374900Y-3309416D01*
X2365146Y-3310280D01*
X2355697Y-3312769D01*
X2346858Y-3316935D01*
X2338832Y-3322523D01*
X2331923Y-3329432D01*
X2326335Y-3337458D01*
X2322169Y-3346297D01*
X2319680Y-3355746D01*
X2318816Y-3365500D01*
X2319680Y-3375253D01*
X2322169Y-3384702D01*
X2326335Y-3393541D01*
X2332431Y-3402228D01*
X2333752Y-3405022D01*
X2334260Y-3408070D01*
X2334260Y-3903218D01*
X2333447Y-3907129D01*
X2331262Y-3910431D01*
X2327960Y-3912615D01*
X2324100Y-3913378D01*
X2320188Y-3912615D01*
X2316886Y-3910431D01*
X2289708Y-3883202D01*
X2283155Y-3877818D01*
X2276144Y-3874109D01*
X2268524Y-3871772D01*
X2260092Y-3870960D01*
X1519631Y-3870960D01*
X1515770Y-3870198D01*
X1512468Y-3867962D01*
X1413408Y-3768902D01*
X1406855Y-3763518D01*
X1399844Y-3759809D01*
X1392224Y-3757472D01*
X1383792Y-3756660D01*
X1252931Y-3756660D01*
X1249070Y-3755898D01*
X1245768Y-3753662D01*
X1097737Y-3605631D01*
X1095552Y-3602329D01*
X1094740Y-3598468D01*
X1094740Y-3344570D01*
X1095248Y-3341522D01*
X1096568Y-3338728D01*
X1102664Y-3330041D01*
X1106830Y-3321202D01*
X1109319Y-3311753D01*
X1110183Y-3302000D01*
X1109319Y-3292246D01*
X1106830Y-3282797D01*
X1102664Y-3273958D01*
X1097076Y-3265932D01*
X1090168Y-3259023D01*
X1082141Y-3253435D01*
X1073302Y-3249269D01*
X1063853Y-3246780D01*
X1054100Y-3245916D01*
X1044346Y-3246780D01*
X1034897Y-3249269D01*
X1026058Y-3253435D01*
X1018032Y-3259023D01*
X1011123Y-3265932D01*
X1005535Y-3273958D01*
X1001369Y-3282797D01*
X998880Y-3292246D01*
X998016Y-3302000D01*
X998880Y-3311753D01*
X1001369Y-3321202D01*
X1005535Y-3330041D01*
X1011631Y-3338728D01*
X1012952Y-3341522D01*
X1013460Y-3344570D01*
X1013460Y-3618992D01*
X1014272Y-3627424D01*
X1016609Y-3635044D01*
X1020318Y-3642055D01*
X1025702Y-3648608D01*
X1202791Y-3825697D01*
X1209344Y-3831082D01*
X1216355Y-3834790D01*
X1223975Y-3837127D01*
X1232408Y-3837940D01*
X1363268Y-3837940D01*
X1367129Y-3838752D01*
X1370431Y-3840937D01*
X1469491Y-3939997D01*
X1476044Y-3945382D01*
X1483055Y-3949090D01*
X1490675Y-3951427D01*
X1499108Y-3952240D01*
X2239568Y-3952240D01*
X2243429Y-3953052D01*
X2246731Y-3955237D01*
X2280462Y-3988968D01*
X2282647Y-3992270D01*
X2283460Y-3996131D01*
X2283460Y-4927092D01*
X2284272Y-4935524D01*
X2286609Y-4943144D01*
X2290318Y-4950155D01*
X2295702Y-4956708D01*
X3154527Y-5815533D01*
X3156559Y-5818428D01*
X3157474Y-5821832D01*
X3157880Y-5826353D01*
X3160369Y-5835802D01*
X3164535Y-5844641D01*
X3170123Y-5852668D01*
X3177032Y-5859576D01*
X3185058Y-5865164D01*
X3193897Y-5869330D01*
X3203346Y-5871819D01*
G37*
G36*
X452120Y-5072176D02*
G01*
X484581Y-5072176D01*
X490829Y-5071465D01*
X496265Y-5069586D01*
X501091Y-5066538D01*
X505155Y-5062474D01*
X508203Y-5057648D01*
X510082Y-5052212D01*
X510793Y-5045964D01*
X510793Y-5013502D01*
X452120Y-5013502D01*
G37*
G36*
X328218Y-5072176D02*
G01*
X360680Y-5072176D01*
X360680Y-5013502D01*
X302006Y-5013502D01*
X302006Y-5045964D01*
X302717Y-5052212D01*
X304596Y-5057648D01*
X307644Y-5062474D01*
X311708Y-5066538D01*
X316534Y-5069586D01*
X321970Y-5071465D01*
G37*
G36*
X452120Y-4922062D02*
G01*
X510793Y-4922062D01*
X510793Y-4889652D01*
X510082Y-4883353D01*
X508203Y-4877968D01*
X505155Y-4873091D01*
X501091Y-4869078D01*
X496265Y-4866030D01*
X490829Y-4864100D01*
X484581Y-4863388D01*
X452120Y-4863388D01*
G37*
G36*
X302006Y-4922062D02*
G01*
X360680Y-4922062D01*
X360680Y-4863388D01*
X328218Y-4863388D01*
X321970Y-4864100D01*
X316534Y-4866030D01*
X311708Y-4869078D01*
X307644Y-4873091D01*
X304596Y-4877968D01*
X302717Y-4883353D01*
X302006Y-4889652D01*
G37*
G36*
X406400Y-4818176D02*
G01*
X420014Y-4817262D01*
X433425Y-4814620D01*
X446328Y-4810252D01*
X458571Y-4804206D01*
X469950Y-4796586D01*
X480212Y-4787595D01*
X489204Y-4777333D01*
X496773Y-4766005D01*
X502818Y-4753762D01*
X507238Y-4740808D01*
X509879Y-4727448D01*
X510793Y-4713782D01*
X509879Y-4700168D01*
X507238Y-4686808D01*
X502818Y-4673854D01*
X496773Y-4661611D01*
X489204Y-4650282D01*
X480212Y-4640021D01*
X469950Y-4630978D01*
X458571Y-4623409D01*
X446328Y-4617364D01*
X433425Y-4612995D01*
X420014Y-4610303D01*
X406400Y-4609439D01*
X392785Y-4610303D01*
X379374Y-4612995D01*
X366471Y-4617364D01*
X354228Y-4623409D01*
X342849Y-4630978D01*
X332587Y-4640021D01*
X323596Y-4650282D01*
X316026Y-4661611D01*
X309981Y-4673854D01*
X305562Y-4686808D01*
X302920Y-4700168D01*
X302006Y-4713782D01*
X302920Y-4727448D01*
X305562Y-4740808D01*
X309981Y-4753762D01*
X316026Y-4766005D01*
X323596Y-4777333D01*
X332587Y-4787595D01*
X342849Y-4796586D01*
X354228Y-4804206D01*
X366471Y-4810252D01*
X379374Y-4814620D01*
X392785Y-4817262D01*
G37*
G36*
X406400Y-4564176D02*
G01*
X420014Y-4563262D01*
X433425Y-4560620D01*
X446328Y-4556252D01*
X458571Y-4550206D01*
X469950Y-4542586D01*
X480212Y-4533595D01*
X489204Y-4523333D01*
X496773Y-4512005D01*
X502818Y-4499762D01*
X507238Y-4486808D01*
X509879Y-4473448D01*
X510793Y-4459782D01*
X509879Y-4446168D01*
X507238Y-4432808D01*
X502818Y-4419854D01*
X496773Y-4407611D01*
X489204Y-4396282D01*
X480212Y-4386021D01*
X469950Y-4376978D01*
X458571Y-4369409D01*
X446328Y-4363364D01*
X433425Y-4358995D01*
X420014Y-4356303D01*
X406400Y-4355439D01*
X392785Y-4356303D01*
X379374Y-4358995D01*
X366471Y-4363364D01*
X354228Y-4369409D01*
X342849Y-4376978D01*
X332587Y-4386021D01*
X323596Y-4396282D01*
X316026Y-4407611D01*
X309981Y-4419854D01*
X305562Y-4432808D01*
X302920Y-4446168D01*
X302006Y-4459782D01*
X302920Y-4473448D01*
X305562Y-4486808D01*
X309981Y-4499762D01*
X316026Y-4512005D01*
X323596Y-4523333D01*
X332587Y-4533595D01*
X342849Y-4542586D01*
X354228Y-4550206D01*
X366471Y-4556252D01*
X379374Y-4560620D01*
X392785Y-4563262D01*
G37*
G36*
X406400Y-4310176D02*
G01*
X420014Y-4309262D01*
X433425Y-4306620D01*
X446328Y-4302252D01*
X458571Y-4296206D01*
X469950Y-4288586D01*
X480212Y-4279595D01*
X489204Y-4269333D01*
X496773Y-4258005D01*
X502818Y-4245762D01*
X507238Y-4232808D01*
X509879Y-4219448D01*
X510793Y-4205782D01*
X509879Y-4192168D01*
X507238Y-4178808D01*
X502818Y-4165854D01*
X496773Y-4153611D01*
X489204Y-4142282D01*
X480212Y-4132021D01*
X469950Y-4122978D01*
X458571Y-4115409D01*
X446328Y-4109364D01*
X433425Y-4104995D01*
X420014Y-4102303D01*
X406400Y-4101439D01*
X392785Y-4102303D01*
X379374Y-4104995D01*
X366471Y-4109364D01*
X354228Y-4115409D01*
X342849Y-4122978D01*
X332587Y-4132021D01*
X323596Y-4142282D01*
X316026Y-4153611D01*
X309981Y-4165854D01*
X305562Y-4178808D01*
X302920Y-4192168D01*
X302006Y-4205782D01*
X302920Y-4219448D01*
X305562Y-4232808D01*
X309981Y-4245762D01*
X316026Y-4258005D01*
X323596Y-4269333D01*
X332587Y-4279595D01*
X342849Y-4288586D01*
X354228Y-4296206D01*
X366471Y-4302252D01*
X379374Y-4306620D01*
X392785Y-4309262D01*
G37*
G36*
X1600200Y-3828034D02*
G01*
X1609953Y-3827170D01*
X1619402Y-3824630D01*
X1628241Y-3820515D01*
X1636268Y-3814876D01*
X1643176Y-3807968D01*
X1648815Y-3799941D01*
X1652930Y-3791102D01*
X1655470Y-3781653D01*
X1656181Y-3773525D01*
X1657096Y-3770122D01*
X1659128Y-3767226D01*
X1753971Y-3672382D01*
X1759051Y-3666185D01*
X1762607Y-3659581D01*
X1764792Y-3652367D01*
X1765554Y-3644392D01*
X1765554Y-1874316D01*
X1766316Y-1870405D01*
X1768551Y-1867103D01*
X1892503Y-1743151D01*
X1895805Y-1740916D01*
X1899716Y-1740154D01*
X2564892Y-1740154D01*
X2572867Y-1739392D01*
X2580081Y-1737207D01*
X2586685Y-1733651D01*
X2592882Y-1728571D01*
X2686710Y-1634744D01*
X2689860Y-1632610D01*
X2693568Y-1631746D01*
X2704541Y-1631442D01*
X2719171Y-1629156D01*
X2733497Y-1625092D01*
X2747162Y-1619300D01*
X2760014Y-1611884D01*
X2771851Y-1602892D01*
X2782519Y-1592580D01*
X2791866Y-1580997D01*
X2799689Y-1568348D01*
X2805887Y-1554886D01*
X2810357Y-1540713D01*
X2813100Y-1526133D01*
X2814015Y-1511300D01*
X2813100Y-1496466D01*
X2810357Y-1481886D01*
X2805887Y-1467713D01*
X2799689Y-1454251D01*
X2791866Y-1441602D01*
X2782519Y-1430020D01*
X2771851Y-1419707D01*
X2760014Y-1410716D01*
X2747162Y-1403299D01*
X2733497Y-1397508D01*
X2719171Y-1393444D01*
X2704541Y-1391158D01*
X2689656Y-1390700D01*
X2674874Y-1392072D01*
X2660396Y-1395272D01*
X2646375Y-1400200D01*
X2633065Y-1406804D01*
X2620670Y-1415034D01*
X2609392Y-1424686D01*
X2599385Y-1435658D01*
X2590800Y-1447800D01*
X2583789Y-1460855D01*
X2578455Y-1474724D01*
X2575204Y-1487678D01*
X2573528Y-1491183D01*
X2570632Y-1493824D01*
X2566974Y-1495196D01*
X2563063Y-1495094D01*
X2559507Y-1493520D01*
X2556764Y-1490675D01*
X2555341Y-1487068D01*
X2554376Y-1481886D01*
X2549855Y-1467713D01*
X2543657Y-1454251D01*
X2535834Y-1441602D01*
X2526538Y-1430020D01*
X2515870Y-1419707D01*
X2504033Y-1410716D01*
X2491130Y-1403299D01*
X2477465Y-1397508D01*
X2463190Y-1393444D01*
X2448509Y-1391158D01*
X2433675Y-1390700D01*
X2418892Y-1392072D01*
X2404364Y-1395272D01*
X2390343Y-1400200D01*
X2377084Y-1406804D01*
X2364689Y-1415034D01*
X2353411Y-1424686D01*
X2343404Y-1435658D01*
X2334818Y-1447800D01*
X2327808Y-1460855D01*
X2322423Y-1474724D01*
X2318816Y-1489151D01*
X2316988Y-1503883D01*
X2316988Y-1518716D01*
X2318816Y-1533448D01*
X2322423Y-1547876D01*
X2327808Y-1561744D01*
X2334818Y-1574800D01*
X2343404Y-1586941D01*
X2353411Y-1597914D01*
X2364689Y-1607566D01*
X2377084Y-1615795D01*
X2390343Y-1622399D01*
X2404364Y-1627327D01*
X2418892Y-1630527D01*
X2433675Y-1631899D01*
X2448509Y-1631442D01*
X2463190Y-1629156D01*
X2477465Y-1625092D01*
X2491130Y-1619300D01*
X2504033Y-1611884D01*
X2515870Y-1602892D01*
X2526538Y-1592580D01*
X2535834Y-1580997D01*
X2543657Y-1568348D01*
X2549855Y-1554886D01*
X2554376Y-1540713D01*
X2555341Y-1535531D01*
X2556764Y-1531924D01*
X2559507Y-1529080D01*
X2563063Y-1527505D01*
X2566974Y-1527403D01*
X2570632Y-1528775D01*
X2573528Y-1531416D01*
X2575204Y-1534922D01*
X2578455Y-1547876D01*
X2583789Y-1561744D01*
X2590800Y-1574800D01*
X2599385Y-1586941D01*
X2605582Y-1593697D01*
X2607564Y-1596948D01*
X2608224Y-1600758D01*
X2607411Y-1604518D01*
X2605227Y-1607718D01*
X2552496Y-1660448D01*
X2549194Y-1662684D01*
X2545283Y-1663446D01*
X1565859Y-1663446D01*
X1561947Y-1662684D01*
X1558645Y-1660448D01*
X1468120Y-1569923D01*
X1465884Y-1566519D01*
X1465122Y-1562506D01*
X1466088Y-1558493D01*
X1467713Y-1554886D01*
X1472234Y-1540713D01*
X1474978Y-1526133D01*
X1475892Y-1511300D01*
X1474978Y-1496466D01*
X1472234Y-1481886D01*
X1467713Y-1467713D01*
X1461516Y-1454251D01*
X1453692Y-1441602D01*
X1444396Y-1430020D01*
X1433728Y-1419707D01*
X1421892Y-1410716D01*
X1409039Y-1403299D01*
X1395323Y-1397508D01*
X1381048Y-1393444D01*
X1366367Y-1391158D01*
X1351534Y-1390700D01*
X1336751Y-1392072D01*
X1322222Y-1395272D01*
X1308201Y-1400200D01*
X1294942Y-1406804D01*
X1282547Y-1415034D01*
X1271270Y-1424686D01*
X1261262Y-1435658D01*
X1252677Y-1447800D01*
X1245666Y-1460855D01*
X1240282Y-1474724D01*
X1237030Y-1487678D01*
X1235354Y-1491183D01*
X1232509Y-1493824D01*
X1228852Y-1495196D01*
X1224940Y-1495094D01*
X1221333Y-1493520D01*
X1218641Y-1490675D01*
X1217218Y-1487068D01*
X1216253Y-1481886D01*
X1211732Y-1467713D01*
X1205534Y-1454251D01*
X1197711Y-1441602D01*
X1188415Y-1430020D01*
X1177747Y-1419707D01*
X1165860Y-1410716D01*
X1153007Y-1403299D01*
X1139342Y-1397508D01*
X1125067Y-1393444D01*
X1110386Y-1391158D01*
X1095502Y-1390700D01*
X1080719Y-1392072D01*
X1066241Y-1395272D01*
X1052220Y-1400200D01*
X1038910Y-1406804D01*
X1026566Y-1415034D01*
X1015237Y-1424686D01*
X1005281Y-1435658D01*
X996696Y-1447800D01*
X989634Y-1460855D01*
X984300Y-1474724D01*
X980643Y-1489151D01*
X978814Y-1503883D01*
X978814Y-1518716D01*
X980643Y-1533448D01*
X984300Y-1547876D01*
X989634Y-1561744D01*
X996696Y-1574800D01*
X1005281Y-1586941D01*
X1015237Y-1597914D01*
X1026566Y-1607566D01*
X1038910Y-1615795D01*
X1052220Y-1622399D01*
X1066241Y-1627327D01*
X1080719Y-1630527D01*
X1095502Y-1631899D01*
X1110386Y-1631442D01*
X1125067Y-1629156D01*
X1139342Y-1625092D01*
X1153007Y-1619300D01*
X1165860Y-1611884D01*
X1177747Y-1602892D01*
X1188415Y-1592580D01*
X1197711Y-1580997D01*
X1205534Y-1568348D01*
X1211732Y-1554886D01*
X1216253Y-1540713D01*
X1217218Y-1535531D01*
X1218641Y-1531924D01*
X1221333Y-1529080D01*
X1224940Y-1527505D01*
X1228852Y-1527403D01*
X1232509Y-1528775D01*
X1235354Y-1531416D01*
X1237030Y-1534922D01*
X1240282Y-1547876D01*
X1245666Y-1561744D01*
X1252677Y-1574800D01*
X1261262Y-1586941D01*
X1271270Y-1597914D01*
X1282547Y-1607566D01*
X1294942Y-1615795D01*
X1308201Y-1622399D01*
X1322222Y-1627327D01*
X1336751Y-1630527D01*
X1351534Y-1631899D01*
X1366367Y-1631442D01*
X1381048Y-1629156D01*
X1395323Y-1625092D01*
X1402689Y-1621942D01*
X1406601Y-1621180D01*
X1410512Y-1621942D01*
X1413865Y-1624126D01*
X1518259Y-1728571D01*
X1524457Y-1733651D01*
X1531112Y-1737207D01*
X1538274Y-1739392D01*
X1546250Y-1740154D01*
X1762455Y-1740154D01*
X1766366Y-1740916D01*
X1769668Y-1743151D01*
X1771853Y-1746402D01*
X1772615Y-1750314D01*
X1771853Y-1754225D01*
X1769668Y-1757476D01*
X1700428Y-1826717D01*
X1695348Y-1832914D01*
X1691792Y-1839518D01*
X1689607Y-1846732D01*
X1688846Y-1854707D01*
X1688846Y-3624783D01*
X1688084Y-3628694D01*
X1685848Y-3631996D01*
X1604873Y-3712972D01*
X1601978Y-3715004D01*
X1598574Y-3715918D01*
X1590446Y-3716629D01*
X1580997Y-3719169D01*
X1572158Y-3723284D01*
X1564132Y-3728923D01*
X1557223Y-3735832D01*
X1551584Y-3743858D01*
X1547469Y-3752697D01*
X1544929Y-3762146D01*
X1544066Y-3771900D01*
X1544929Y-3781653D01*
X1547469Y-3791102D01*
X1551584Y-3799941D01*
X1557223Y-3807968D01*
X1564132Y-3814876D01*
X1572158Y-3820515D01*
X1580997Y-3824630D01*
X1590446Y-3827170D01*
G37*
G36*
X2247900Y-2583383D02*
G01*
X2257653Y-2582519D01*
X2267102Y-2580030D01*
X2275941Y-2575864D01*
X2283968Y-2570276D01*
X2290876Y-2563368D01*
X2296464Y-2555341D01*
X2300630Y-2546502D01*
X2303119Y-2537053D01*
X2303526Y-2532532D01*
X2304440Y-2529128D01*
X2306472Y-2526233D01*
X3025597Y-1807108D01*
X3030982Y-1800555D01*
X3034690Y-1793544D01*
X3037027Y-1785924D01*
X3037840Y-1777492D01*
X3037840Y-1448308D01*
X3037027Y-1439875D01*
X3034690Y-1432255D01*
X3030982Y-1425244D01*
X3025597Y-1418691D01*
X2731973Y-1125067D01*
X2729738Y-1121765D01*
X2728976Y-1117904D01*
X2728976Y-680669D01*
X2729890Y-676452D01*
X2732532Y-672998D01*
X2736494Y-670864D01*
X2751582Y-664616D01*
X2765856Y-656691D01*
X2779217Y-647242D01*
X2791358Y-636371D01*
X2802280Y-624179D01*
X2811729Y-610870D01*
X2819603Y-596595D01*
X2825851Y-581507D01*
X2830372Y-565810D01*
X2833116Y-549706D01*
X2834030Y-533400D01*
X2833116Y-517093D01*
X2830372Y-500989D01*
X2825851Y-485292D01*
X2819603Y-470204D01*
X2811729Y-455930D01*
X2802280Y-442620D01*
X2791358Y-430428D01*
X2779217Y-419557D01*
X2765856Y-410108D01*
X2751582Y-402183D01*
X2736494Y-395935D01*
X2720797Y-391414D01*
X2704693Y-388670D01*
X2688386Y-387756D01*
X2672080Y-388670D01*
X2655976Y-391414D01*
X2640279Y-395935D01*
X2625191Y-402183D01*
X2610916Y-410108D01*
X2597607Y-419557D01*
X2585415Y-430428D01*
X2574544Y-442620D01*
X2565095Y-455930D01*
X2557170Y-470204D01*
X2550922Y-485292D01*
X2546400Y-500989D01*
X2543657Y-517093D01*
X2542743Y-533400D01*
X2543657Y-549706D01*
X2546400Y-565810D01*
X2550922Y-581507D01*
X2557170Y-596595D01*
X2565095Y-610870D01*
X2574544Y-624179D01*
X2585415Y-636371D01*
X2597607Y-647242D01*
X2610916Y-656691D01*
X2625191Y-664616D01*
X2641396Y-671220D01*
X2644698Y-673455D01*
X2646883Y-676757D01*
X2647696Y-680618D01*
X2647696Y-1138428D01*
X2648508Y-1146860D01*
X2650845Y-1154480D01*
X2654554Y-1161491D01*
X2659938Y-1168044D01*
X2953562Y-1461668D01*
X2955747Y-1464970D01*
X2956560Y-1468831D01*
X2956560Y-1756968D01*
X2955747Y-1760829D01*
X2953562Y-1764131D01*
X2248966Y-2468727D01*
X2246071Y-2470759D01*
X2242667Y-2471674D01*
X2238146Y-2472080D01*
X2228697Y-2474569D01*
X2219858Y-2478735D01*
X2211832Y-2484323D01*
X2204923Y-2491232D01*
X2199335Y-2499258D01*
X2195169Y-2508097D01*
X2192680Y-2517546D01*
X2191816Y-2527300D01*
X2192680Y-2537053D01*
X2195169Y-2546502D01*
X2199335Y-2555341D01*
X2204923Y-2563368D01*
X2211832Y-2570276D01*
X2219858Y-2575864D01*
X2228697Y-2580030D01*
X2238146Y-2582519D01*
G37*
G36*
X1193800Y-2583383D02*
G01*
X1203553Y-2582519D01*
X1213002Y-2580030D01*
X1221841Y-2575864D01*
X1229868Y-2570276D01*
X1236776Y-2563368D01*
X1242364Y-2555341D01*
X1246530Y-2546502D01*
X1249019Y-2537053D01*
X1249883Y-2527300D01*
X1249019Y-2517546D01*
X1246530Y-2508097D01*
X1242364Y-2499258D01*
X1236776Y-2491232D01*
X1229868Y-2484323D01*
X1221841Y-2478735D01*
X1213002Y-2474569D01*
X1203553Y-2472080D01*
X1199032Y-2471674D01*
X1195628Y-2470759D01*
X1192733Y-2468727D01*
X589737Y-1865731D01*
X587552Y-1862429D01*
X586740Y-1858568D01*
X586740Y-1519631D01*
X587552Y-1515770D01*
X589737Y-1512468D01*
X864768Y-1237437D01*
X868070Y-1235252D01*
X871931Y-1234440D01*
X1218692Y-1234440D01*
X1227124Y-1233627D01*
X1234744Y-1231290D01*
X1241755Y-1227582D01*
X1248308Y-1222197D01*
X1378661Y-1091844D01*
X1384046Y-1085291D01*
X1387805Y-1078280D01*
X1390091Y-1070660D01*
X1390904Y-1062228D01*
X1390904Y-680669D01*
X1391716Y-676757D01*
X1393901Y-673455D01*
X1397254Y-671271D01*
X1413459Y-664616D01*
X1427734Y-656691D01*
X1441043Y-647242D01*
X1453235Y-636371D01*
X1464106Y-624179D01*
X1473555Y-610870D01*
X1481480Y-596595D01*
X1487728Y-581507D01*
X1492250Y-565810D01*
X1494993Y-549706D01*
X1495907Y-533400D01*
X1494993Y-517093D01*
X1492250Y-500989D01*
X1487728Y-485292D01*
X1481480Y-470204D01*
X1473555Y-455930D01*
X1464106Y-442620D01*
X1453235Y-430428D01*
X1441043Y-419557D01*
X1427734Y-410108D01*
X1413459Y-402183D01*
X1398371Y-395935D01*
X1382674Y-391414D01*
X1366570Y-388670D01*
X1350264Y-387756D01*
X1333957Y-388670D01*
X1317853Y-391414D01*
X1302156Y-395935D01*
X1287068Y-402183D01*
X1272743Y-410108D01*
X1259433Y-419557D01*
X1247292Y-430428D01*
X1236370Y-442620D01*
X1226921Y-455930D01*
X1219047Y-470204D01*
X1212799Y-485292D01*
X1208278Y-500989D01*
X1205534Y-517093D01*
X1204620Y-533400D01*
X1205534Y-549706D01*
X1208278Y-565810D01*
X1212799Y-581507D01*
X1219047Y-596595D01*
X1226921Y-610870D01*
X1236370Y-624179D01*
X1247292Y-636371D01*
X1259433Y-647242D01*
X1272743Y-656691D01*
X1287068Y-664616D01*
X1302258Y-670915D01*
X1306068Y-672947D01*
X1308709Y-676402D01*
X1309624Y-680669D01*
X1309624Y-1041704D01*
X1308862Y-1045565D01*
X1306626Y-1048867D01*
X1205331Y-1150162D01*
X1202029Y-1152398D01*
X1198168Y-1153160D01*
X851408Y-1153160D01*
X842975Y-1153972D01*
X835355Y-1156309D01*
X828344Y-1160018D01*
X821791Y-1165402D01*
X517702Y-1469491D01*
X512318Y-1476044D01*
X508609Y-1483055D01*
X506272Y-1490675D01*
X505459Y-1499108D01*
X505459Y-1879092D01*
X506272Y-1887524D01*
X508609Y-1895144D01*
X512318Y-1902155D01*
X517702Y-1908708D01*
X1135227Y-2526233D01*
X1137259Y-2529128D01*
X1138174Y-2532532D01*
X1138580Y-2537053D01*
X1141069Y-2546502D01*
X1145235Y-2555341D01*
X1150823Y-2563368D01*
X1157732Y-2570276D01*
X1165758Y-2575864D01*
X1174597Y-2580030D01*
X1184046Y-2582519D01*
G37*
G36*
X7136993Y-1728419D02*
G01*
X7163206Y-1728419D01*
X7189368Y-1726438D01*
X7215276Y-1722526D01*
X7240879Y-1716684D01*
X7265924Y-1708962D01*
X7290308Y-1699412D01*
X7313930Y-1688033D01*
X7336637Y-1674926D01*
X7358329Y-1660143D01*
X7378801Y-1643786D01*
X7398054Y-1625955D01*
X7415885Y-1606702D01*
X7432243Y-1586230D01*
X7447025Y-1564538D01*
X7460132Y-1541830D01*
X7471511Y-1518208D01*
X7481062Y-1493824D01*
X7488783Y-1468780D01*
X7494625Y-1443177D01*
X7498537Y-1417269D01*
X7500518Y-1391107D01*
X7500518Y-1364894D01*
X7498537Y-1338732D01*
X7494625Y-1312824D01*
X7488783Y-1287272D01*
X7481062Y-1262176D01*
X7471511Y-1237792D01*
X7460132Y-1214170D01*
X7447025Y-1191463D01*
X7432243Y-1169771D01*
X7415885Y-1149299D01*
X7397902Y-1129893D01*
X7046518Y-778510D01*
X7044334Y-775258D01*
X7043572Y-771347D01*
X7043572Y-673608D01*
X7043318Y-660298D01*
X7042556Y-647192D01*
X7041794Y-640486D01*
X7041337Y-634136D01*
X7040321Y-627481D01*
X7039609Y-621131D01*
X7037425Y-608228D01*
X7034733Y-595376D01*
X7031583Y-582676D01*
X7029602Y-576224D01*
X7027976Y-570026D01*
X7025741Y-563676D01*
X7023862Y-557580D01*
X7019290Y-545287D01*
X7016597Y-539089D01*
X7014311Y-533196D01*
X7011365Y-527100D01*
X7008825Y-521258D01*
X7005675Y-515315D01*
X7002932Y-509574D01*
X6999528Y-503732D01*
X6996582Y-498093D01*
X6992975Y-492353D01*
X6989825Y-486867D01*
X6982612Y-475894D01*
X6978599Y-470458D01*
X6975043Y-465175D01*
X6970826Y-459892D01*
X6967067Y-454761D01*
X6962648Y-449681D01*
X6958685Y-444703D01*
X6949948Y-434898D01*
X6945172Y-430123D01*
X6940702Y-425297D01*
X6801002Y-285597D01*
X6791452Y-276402D01*
X6781647Y-267665D01*
X6776364Y-263448D01*
X6771589Y-259283D01*
X6761124Y-251307D01*
X6750456Y-243738D01*
X6739483Y-236524D01*
X6733641Y-233171D01*
X6728256Y-229768D01*
X6716775Y-223418D01*
X6705092Y-217525D01*
X6693153Y-212039D01*
X6681063Y-207010D01*
X6674662Y-204774D01*
X6668719Y-202438D01*
X6656324Y-198374D01*
X6643674Y-194716D01*
X6637121Y-193243D01*
X6630974Y-191566D01*
X6618122Y-188874D01*
X6605219Y-186690D01*
X6592163Y-184962D01*
X6579158Y-183743D01*
X6566052Y-183032D01*
X6559296Y-183032D01*
X6552742Y-182778D01*
X6235903Y-182727D01*
X6209538Y-183743D01*
X6183477Y-186690D01*
X6157722Y-191516D01*
X6132372Y-198323D01*
X6107633Y-206959D01*
X6083604Y-217474D01*
X6060389Y-229717D01*
X6038189Y-243687D01*
X6017107Y-259232D01*
X5997244Y-276352D01*
X5978652Y-294894D01*
X5961583Y-314756D01*
X5945987Y-335838D01*
X5932068Y-358038D01*
X5919774Y-381254D01*
X5909310Y-405282D01*
X5900623Y-430022D01*
X5893866Y-455371D01*
X5888990Y-481126D01*
X5886043Y-507187D01*
X5885027Y-533349D01*
X5886043Y-559562D01*
X5888990Y-585622D01*
X5893816Y-611378D01*
X5900623Y-636727D01*
X5909259Y-661466D01*
X5919774Y-685495D01*
X5932017Y-708710D01*
X5945987Y-730910D01*
X5961532Y-751992D01*
X5978652Y-771855D01*
X5997194Y-790448D01*
X6017056Y-807516D01*
X6038138Y-823112D01*
X6060338Y-837031D01*
X6083554Y-849325D01*
X6107582Y-859790D01*
X6132322Y-868476D01*
X6157671Y-875233D01*
X6183426Y-880110D01*
X6209487Y-883056D01*
X6235852Y-884072D01*
X6332067Y-884072D01*
X6335979Y-884834D01*
X6339281Y-887018D01*
X6341465Y-890320D01*
X6342227Y-894232D01*
X6342227Y-920597D01*
X6342481Y-933907D01*
X6343243Y-947013D01*
X6344005Y-953719D01*
X6344462Y-960069D01*
X6345478Y-966724D01*
X6346190Y-973074D01*
X6348374Y-985977D01*
X6351066Y-998829D01*
X6354216Y-1011580D01*
X6356197Y-1017981D01*
X6357823Y-1024178D01*
X6360058Y-1030528D01*
X6361938Y-1036624D01*
X6366510Y-1048918D01*
X6369202Y-1055116D01*
X6371488Y-1061008D01*
X6374434Y-1067104D01*
X6376974Y-1072946D01*
X6380124Y-1078890D01*
X6382867Y-1084630D01*
X6386271Y-1090472D01*
X6389217Y-1096111D01*
X6392824Y-1101852D01*
X6395974Y-1107338D01*
X6403187Y-1118311D01*
X6407200Y-1123746D01*
X6410756Y-1129030D01*
X6414973Y-1134313D01*
X6418732Y-1139444D01*
X6423152Y-1144524D01*
X6427114Y-1149502D01*
X6435852Y-1159306D01*
X6440627Y-1164082D01*
X6445097Y-1168908D01*
X6901992Y-1625803D01*
X6921398Y-1643786D01*
X6941870Y-1660143D01*
X6963562Y-1674926D01*
X6986270Y-1688033D01*
X7009892Y-1699412D01*
X7034275Y-1708962D01*
X7059371Y-1716684D01*
X7084923Y-1722526D01*
X7110831Y-1726438D01*
G37*
G36*
X13613993Y-1728419D02*
G01*
X13640206Y-1728419D01*
X13666368Y-1726438D01*
X13692276Y-1722526D01*
X13717879Y-1716684D01*
X13742924Y-1708962D01*
X13767307Y-1699412D01*
X13790930Y-1688033D01*
X13813637Y-1674926D01*
X13835329Y-1660143D01*
X13855801Y-1643786D01*
X13875054Y-1625955D01*
X13892885Y-1606702D01*
X13909243Y-1586230D01*
X13924026Y-1564538D01*
X13937132Y-1541830D01*
X13948511Y-1518208D01*
X13958062Y-1493824D01*
X13965783Y-1468780D01*
X13971625Y-1443177D01*
X13975537Y-1417269D01*
X13977518Y-1391107D01*
X13977518Y-1364894D01*
X13975537Y-1338732D01*
X13971625Y-1312824D01*
X13965783Y-1287272D01*
X13958062Y-1262176D01*
X13948511Y-1237792D01*
X13937132Y-1214170D01*
X13924026Y-1191463D01*
X13909243Y-1169771D01*
X13892885Y-1149299D01*
X13874902Y-1129893D01*
X13523518Y-778510D01*
X13521334Y-775258D01*
X13520572Y-771347D01*
X13520572Y-673608D01*
X13520318Y-660298D01*
X13519556Y-647192D01*
X13518794Y-640486D01*
X13518337Y-634136D01*
X13517321Y-627481D01*
X13516610Y-621131D01*
X13514425Y-608228D01*
X13511733Y-595376D01*
X13508583Y-582676D01*
X13506602Y-576224D01*
X13504976Y-570026D01*
X13502741Y-563676D01*
X13500862Y-557580D01*
X13496290Y-545287D01*
X13493597Y-539089D01*
X13491311Y-533196D01*
X13488365Y-527100D01*
X13485825Y-521258D01*
X13482675Y-515315D01*
X13479932Y-509574D01*
X13476528Y-503732D01*
X13473582Y-498093D01*
X13469975Y-492353D01*
X13466826Y-486867D01*
X13459612Y-475894D01*
X13455599Y-470458D01*
X13452043Y-465175D01*
X13447826Y-459892D01*
X13444067Y-454761D01*
X13439648Y-449681D01*
X13435685Y-444703D01*
X13426948Y-434898D01*
X13422172Y-430123D01*
X13417702Y-425297D01*
X13278002Y-285597D01*
X13268451Y-276402D01*
X13258647Y-267665D01*
X13253364Y-263448D01*
X13248589Y-259283D01*
X13238124Y-251307D01*
X13227456Y-243738D01*
X13216483Y-236524D01*
X13210641Y-233171D01*
X13205256Y-229768D01*
X13193776Y-223418D01*
X13182092Y-217525D01*
X13170154Y-212039D01*
X13158063Y-207010D01*
X13151662Y-204774D01*
X13145719Y-202438D01*
X13133324Y-198374D01*
X13120674Y-194716D01*
X13114121Y-193243D01*
X13107974Y-191566D01*
X13095122Y-188874D01*
X13082219Y-186690D01*
X13069163Y-184962D01*
X13056158Y-183743D01*
X13043052Y-183032D01*
X13036296Y-183032D01*
X13029742Y-182778D01*
X12712903Y-182727D01*
X12686538Y-183743D01*
X12660477Y-186690D01*
X12634722Y-191516D01*
X12609372Y-198323D01*
X12584633Y-206959D01*
X12560604Y-217474D01*
X12537389Y-229717D01*
X12515189Y-243687D01*
X12494107Y-259232D01*
X12474244Y-276352D01*
X12455652Y-294894D01*
X12438583Y-314756D01*
X12422987Y-335838D01*
X12409068Y-358038D01*
X12396774Y-381254D01*
X12386310Y-405282D01*
X12377623Y-430022D01*
X12370866Y-455371D01*
X12365990Y-481126D01*
X12363043Y-507187D01*
X12362027Y-533349D01*
X12363043Y-559562D01*
X12365990Y-585622D01*
X12370816Y-611378D01*
X12377623Y-636727D01*
X12386259Y-661466D01*
X12396774Y-685495D01*
X12409017Y-708710D01*
X12422987Y-730910D01*
X12438532Y-751992D01*
X12455652Y-771855D01*
X12474194Y-790448D01*
X12494056Y-807516D01*
X12515138Y-823112D01*
X12537338Y-837031D01*
X12560554Y-849325D01*
X12584582Y-859790D01*
X12609322Y-868476D01*
X12634671Y-875233D01*
X12660426Y-880110D01*
X12686487Y-883056D01*
X12712852Y-884072D01*
X12809067Y-884072D01*
X12812979Y-884834D01*
X12816281Y-887018D01*
X12818465Y-890320D01*
X12819227Y-894232D01*
X12819227Y-920597D01*
X12819481Y-933907D01*
X12820243Y-947013D01*
X12821005Y-953719D01*
X12821462Y-960069D01*
X12822478Y-966724D01*
X12823190Y-973074D01*
X12825374Y-985977D01*
X12828066Y-998829D01*
X12831216Y-1011580D01*
X12833197Y-1017981D01*
X12834823Y-1024178D01*
X12837058Y-1030528D01*
X12838938Y-1036624D01*
X12843510Y-1048918D01*
X12846202Y-1055116D01*
X12848488Y-1061008D01*
X12851434Y-1067104D01*
X12853974Y-1072946D01*
X12857124Y-1078890D01*
X12859867Y-1084630D01*
X12863271Y-1090472D01*
X12866217Y-1096111D01*
X12869824Y-1101852D01*
X12872974Y-1107338D01*
X12880187Y-1118311D01*
X12884200Y-1123746D01*
X12887756Y-1129030D01*
X12891973Y-1134313D01*
X12895732Y-1139444D01*
X12900152Y-1144524D01*
X12904114Y-1149502D01*
X12912852Y-1159306D01*
X12917627Y-1164082D01*
X12922097Y-1168908D01*
X13378992Y-1625803D01*
X13398398Y-1643786D01*
X13418870Y-1660143D01*
X13440562Y-1674926D01*
X13463269Y-1688033D01*
X13486892Y-1699412D01*
X13511276Y-1708962D01*
X13536371Y-1716684D01*
X13561923Y-1722526D01*
X13587831Y-1726438D01*
G37*
G36*
X10997793Y-1728419D02*
G01*
X11024006Y-1728419D01*
X11050168Y-1726438D01*
X11076076Y-1722526D01*
X11101679Y-1716684D01*
X11126724Y-1708962D01*
X11151108Y-1699412D01*
X11174730Y-1688033D01*
X11197437Y-1674926D01*
X11219129Y-1660143D01*
X11239601Y-1643786D01*
X11259007Y-1625803D01*
X11728602Y-1156208D01*
X11737848Y-1146606D01*
X11746585Y-1136802D01*
X11754967Y-1126744D01*
X11762943Y-1116330D01*
X11770512Y-1105611D01*
X11777726Y-1094638D01*
X11781078Y-1088796D01*
X11784482Y-1083411D01*
X11790832Y-1071930D01*
X11793728Y-1065885D01*
X11796725Y-1060246D01*
X11799417Y-1054049D01*
X11802211Y-1048308D01*
X11807190Y-1036218D01*
X11809425Y-1029817D01*
X11811762Y-1023924D01*
X11813743Y-1017473D01*
X11815876Y-1011478D01*
X11817604Y-1004925D01*
X11819483Y-998880D01*
X11822633Y-986129D01*
X11825325Y-973277D01*
X11827510Y-960374D01*
X11828272Y-953668D01*
X11829237Y-947369D01*
X11830456Y-934313D01*
X11830710Y-927557D01*
X11831218Y-921207D01*
X11831218Y-914450D01*
X11831472Y-907897D01*
X11831472Y-886155D01*
X11832183Y-882345D01*
X11834266Y-879094D01*
X11837466Y-876858D01*
X11841226Y-875995D01*
X11964416Y-871067D01*
X11990730Y-869035D01*
X12016689Y-865073D01*
X12042241Y-859180D01*
X12067286Y-851408D01*
X12091670Y-841756D01*
X12115241Y-830326D01*
X12137948Y-817168D01*
X12159589Y-802335D01*
X12180011Y-785977D01*
X12199213Y-768096D01*
X12216993Y-748792D01*
X12233300Y-728268D01*
X12248032Y-706577D01*
X12261088Y-683818D01*
X12272416Y-660196D01*
X12281916Y-635762D01*
X12289586Y-610666D01*
X12295378Y-585114D01*
X12299238Y-559155D01*
X12301118Y-532993D01*
X12301067Y-506780D01*
X12299035Y-480669D01*
X12295073Y-454710D01*
X12289180Y-429158D01*
X12281408Y-404114D01*
X12271756Y-379730D01*
X12260326Y-356158D01*
X12247168Y-333451D01*
X12232335Y-311810D01*
X12215977Y-291388D01*
X12198096Y-272186D01*
X12178792Y-254406D01*
X12158268Y-238099D01*
X12136577Y-223367D01*
X12113818Y-210312D01*
X12090196Y-198983D01*
X12065762Y-189484D01*
X12040666Y-181813D01*
X12015114Y-176022D01*
X11989155Y-172161D01*
X11962993Y-170281D01*
X11936577Y-170332D01*
X11617096Y-183032D01*
X11591544Y-184962D01*
X11565636Y-188874D01*
X11540083Y-194716D01*
X11514988Y-202438D01*
X11490604Y-211988D01*
X11466982Y-223367D01*
X11444274Y-236474D01*
X11422583Y-251256D01*
X11402110Y-267614D01*
X11382705Y-285597D01*
X11232997Y-435305D01*
X11223752Y-444906D01*
X11215014Y-454710D01*
X11206632Y-464769D01*
X11198656Y-475183D01*
X11191087Y-485901D01*
X11183874Y-496874D01*
X11180521Y-502716D01*
X11177117Y-508101D01*
X11170767Y-519582D01*
X11167872Y-525627D01*
X11164874Y-531266D01*
X11162182Y-537464D01*
X11159388Y-543204D01*
X11154410Y-555294D01*
X11152174Y-561695D01*
X11149838Y-567588D01*
X11147856Y-574040D01*
X11145723Y-580034D01*
X11143996Y-586587D01*
X11142116Y-592683D01*
X11138966Y-605383D01*
X11136274Y-618236D01*
X11134090Y-631139D01*
X11133328Y-637844D01*
X11132362Y-644144D01*
X11131143Y-657199D01*
X11130889Y-663956D01*
X11130381Y-670306D01*
X11130381Y-677062D01*
X11130127Y-683615D01*
X11130127Y-758647D01*
X11129365Y-762558D01*
X11127181Y-765810D01*
X10763097Y-1129893D01*
X10745114Y-1149299D01*
X10728756Y-1169771D01*
X10713974Y-1191463D01*
X10700867Y-1214170D01*
X10689488Y-1237792D01*
X10679938Y-1262176D01*
X10672216Y-1287272D01*
X10666374Y-1312824D01*
X10662462Y-1338732D01*
X10660481Y-1364894D01*
X10660481Y-1391107D01*
X10662462Y-1417269D01*
X10666374Y-1443177D01*
X10672216Y-1468780D01*
X10679938Y-1493824D01*
X10689488Y-1518208D01*
X10700867Y-1541830D01*
X10713974Y-1564538D01*
X10728756Y-1586230D01*
X10745114Y-1606702D01*
X10762945Y-1625955D01*
X10782198Y-1643786D01*
X10802670Y-1660143D01*
X10824362Y-1674926D01*
X10847070Y-1688033D01*
X10870692Y-1699412D01*
X10895076Y-1708962D01*
X10920171Y-1716684D01*
X10945723Y-1722526D01*
X10971631Y-1726438D01*
G37*
G36*
X4520793Y-1728419D02*
G01*
X4547006Y-1728419D01*
X4573168Y-1726438D01*
X4599076Y-1722526D01*
X4624679Y-1716684D01*
X4649724Y-1708962D01*
X4674108Y-1699412D01*
X4697730Y-1688033D01*
X4720437Y-1674926D01*
X4742129Y-1660143D01*
X4762601Y-1643786D01*
X4782007Y-1625803D01*
X5251602Y-1156208D01*
X5260848Y-1146606D01*
X5269585Y-1136802D01*
X5277967Y-1126744D01*
X5285943Y-1116330D01*
X5293512Y-1105611D01*
X5300726Y-1094638D01*
X5304078Y-1088796D01*
X5307482Y-1083411D01*
X5313832Y-1071930D01*
X5316728Y-1065885D01*
X5319725Y-1060246D01*
X5322417Y-1054049D01*
X5325211Y-1048308D01*
X5330190Y-1036218D01*
X5332425Y-1029817D01*
X5334762Y-1023924D01*
X5336743Y-1017473D01*
X5338876Y-1011478D01*
X5340604Y-1004925D01*
X5342483Y-998880D01*
X5345633Y-986129D01*
X5348325Y-973277D01*
X5350510Y-960374D01*
X5351272Y-953668D01*
X5352237Y-947369D01*
X5353456Y-934313D01*
X5353710Y-927557D01*
X5354218Y-921207D01*
X5354218Y-914450D01*
X5354472Y-907897D01*
X5354472Y-886155D01*
X5355183Y-882345D01*
X5357266Y-879094D01*
X5360466Y-876858D01*
X5364226Y-875995D01*
X5487416Y-871067D01*
X5513730Y-869035D01*
X5539689Y-865073D01*
X5565241Y-859180D01*
X5590286Y-851408D01*
X5614670Y-841756D01*
X5638241Y-830326D01*
X5660948Y-817168D01*
X5682589Y-802335D01*
X5703011Y-785977D01*
X5722213Y-768096D01*
X5739993Y-748792D01*
X5756300Y-728268D01*
X5771032Y-706577D01*
X5784088Y-683818D01*
X5795416Y-660196D01*
X5804916Y-635762D01*
X5812586Y-610666D01*
X5818378Y-585114D01*
X5822238Y-559155D01*
X5824118Y-532993D01*
X5824067Y-506780D01*
X5822035Y-480669D01*
X5818073Y-454710D01*
X5812180Y-429158D01*
X5804408Y-404114D01*
X5794756Y-379730D01*
X5783326Y-356158D01*
X5770168Y-333451D01*
X5755335Y-311810D01*
X5738977Y-291388D01*
X5721096Y-272186D01*
X5701792Y-254406D01*
X5681268Y-238099D01*
X5659577Y-223367D01*
X5636818Y-210312D01*
X5613196Y-198983D01*
X5588762Y-189484D01*
X5563666Y-181813D01*
X5538114Y-176022D01*
X5512155Y-172161D01*
X5485993Y-170281D01*
X5459577Y-170332D01*
X5140096Y-183032D01*
X5114544Y-184962D01*
X5088636Y-188874D01*
X5063083Y-194716D01*
X5037988Y-202438D01*
X5013604Y-211988D01*
X4989982Y-223367D01*
X4967274Y-236474D01*
X4945583Y-251256D01*
X4925110Y-267614D01*
X4905705Y-285597D01*
X4755997Y-435305D01*
X4746752Y-444906D01*
X4738014Y-454710D01*
X4729632Y-464769D01*
X4721656Y-475183D01*
X4714087Y-485901D01*
X4706874Y-496874D01*
X4703521Y-502716D01*
X4700117Y-508101D01*
X4693767Y-519582D01*
X4690872Y-525627D01*
X4687874Y-531266D01*
X4685182Y-537464D01*
X4682388Y-543204D01*
X4677410Y-555294D01*
X4675174Y-561695D01*
X4672838Y-567588D01*
X4670856Y-574040D01*
X4668723Y-580034D01*
X4666996Y-586587D01*
X4665116Y-592683D01*
X4661966Y-605383D01*
X4659274Y-618236D01*
X4657090Y-631139D01*
X4656328Y-637844D01*
X4655362Y-644144D01*
X4654143Y-657199D01*
X4653889Y-663956D01*
X4653381Y-670306D01*
X4653381Y-677062D01*
X4653127Y-683615D01*
X4653127Y-758647D01*
X4652365Y-762558D01*
X4650181Y-765810D01*
X4286097Y-1129893D01*
X4268114Y-1149299D01*
X4251756Y-1169771D01*
X4236974Y-1191463D01*
X4223867Y-1214170D01*
X4212488Y-1237792D01*
X4202938Y-1262176D01*
X4195216Y-1287272D01*
X4189374Y-1312824D01*
X4185462Y-1338732D01*
X4183481Y-1364894D01*
X4183481Y-1391107D01*
X4185462Y-1417269D01*
X4189374Y-1443177D01*
X4195216Y-1468780D01*
X4202938Y-1493824D01*
X4212488Y-1518208D01*
X4223867Y-1541830D01*
X4236974Y-1564538D01*
X4251756Y-1586230D01*
X4268114Y-1606702D01*
X4285945Y-1625955D01*
X4305198Y-1643786D01*
X4325670Y-1660143D01*
X4347362Y-1674926D01*
X4370070Y-1688033D01*
X4393692Y-1699412D01*
X4418076Y-1708962D01*
X4443171Y-1716684D01*
X4468723Y-1722526D01*
X4494631Y-1726438D01*
G37*
G36*
X898906Y-1619351D02*
G01*
X911860Y-1611884D01*
X923747Y-1602892D01*
X934415Y-1592580D01*
X943711Y-1580997D01*
X951534Y-1568348D01*
X953008Y-1565148D01*
X899058Y-1565148D01*
G37*
G36*
X2237079Y-1619351D02*
G01*
X2250033Y-1611884D01*
X2261870Y-1602892D01*
X2272538Y-1592580D01*
X2281834Y-1580997D01*
X2289657Y-1568348D01*
X2291130Y-1565148D01*
X2237181Y-1565148D01*
G37*
G36*
X791413Y-1618996D02*
G01*
X791413Y-1565148D01*
X737514Y-1565148D01*
X742696Y-1574800D01*
X751281Y-1586941D01*
X761238Y-1597914D01*
X772566Y-1607566D01*
X784910Y-1615795D01*
G37*
G36*
X2129536Y-1618996D02*
G01*
X2129536Y-1565148D01*
X2075637Y-1565148D01*
X2080818Y-1574800D01*
X2089404Y-1586941D01*
X2099411Y-1597914D01*
X2110689Y-1607566D01*
X2123084Y-1615795D01*
G37*
G36*
X737514Y-1457452D02*
G01*
X791413Y-1457452D01*
X791413Y-1403604D01*
X784910Y-1406804D01*
X772566Y-1415034D01*
X761238Y-1424686D01*
X751281Y-1435658D01*
X742696Y-1447800D01*
G37*
G36*
X2075637Y-1457452D02*
G01*
X2129536Y-1457452D01*
X2129536Y-1403604D01*
X2123084Y-1406804D01*
X2110689Y-1415034D01*
X2099411Y-1424686D01*
X2089404Y-1435658D01*
X2080818Y-1447800D01*
G37*
G36*
X899109Y-1457452D02*
G01*
X953008Y-1457452D01*
X951534Y-1454251D01*
X943711Y-1441602D01*
X934415Y-1430020D01*
X923747Y-1419707D01*
X911860Y-1410716D01*
X899109Y-1403350D01*
G37*
G36*
X2237232Y-1457452D02*
G01*
X2291130Y-1457452D01*
X2289657Y-1454251D01*
X2281834Y-1441602D01*
X2272538Y-1430020D01*
X2261870Y-1419707D01*
X2250033Y-1410716D01*
X2237232Y-1403350D01*
G37*
G36*
X4034129Y-778103D02*
G01*
X4040632Y-774903D01*
X4052112Y-767232D01*
X4062476Y-758088D01*
X4071620Y-747725D01*
X4079290Y-736244D01*
X4082491Y-729742D01*
X4034129Y-729742D01*
G37*
G36*
X3941470Y-778103D02*
G01*
X3941470Y-729742D01*
X3893108Y-729742D01*
X3896309Y-736244D01*
X3903979Y-747725D01*
X3913124Y-758088D01*
X3923487Y-767232D01*
X3934968Y-774903D01*
G37*
G36*
X7755229Y-768096D02*
G01*
X7761731Y-764895D01*
X7773212Y-757224D01*
X7783575Y-748080D01*
X7792720Y-737717D01*
X7800390Y-726236D01*
X7803591Y-719734D01*
X7755229Y-719734D01*
G37*
G36*
X10511129Y-768096D02*
G01*
X10517632Y-764895D01*
X10529112Y-757224D01*
X10539476Y-748080D01*
X10548620Y-737717D01*
X10556290Y-726236D01*
X10559491Y-719734D01*
X10511129Y-719734D01*
G37*
G36*
X14232229Y-768096D02*
G01*
X14238732Y-764895D01*
X14250212Y-757224D01*
X14260576Y-748080D01*
X14269719Y-737717D01*
X14277390Y-726236D01*
X14280591Y-719734D01*
X14232229Y-719734D01*
G37*
G36*
X7662570Y-768096D02*
G01*
X7662570Y-719734D01*
X7614208Y-719734D01*
X7617409Y-726236D01*
X7625080Y-737717D01*
X7634224Y-748080D01*
X7644587Y-757224D01*
X7656068Y-764895D01*
G37*
G36*
X10418470Y-768096D02*
G01*
X10418470Y-719734D01*
X10370108Y-719734D01*
X10373309Y-726236D01*
X10380980Y-737717D01*
X10390124Y-748080D01*
X10400487Y-757224D01*
X10411968Y-764895D01*
G37*
G36*
X14139570Y-768096D02*
G01*
X14139570Y-719734D01*
X14091208Y-719734D01*
X14094409Y-726236D01*
X14102080Y-737717D01*
X14111224Y-748080D01*
X14121587Y-757224D01*
X14133068Y-764895D01*
G37*
G36*
X916584Y-679043D02*
G01*
X969670Y-679043D01*
X975969Y-678332D01*
X981354Y-676452D01*
X986231Y-673404D01*
X990244Y-669340D01*
X993292Y-664514D01*
X995222Y-659079D01*
X995934Y-652830D01*
X995934Y-599744D01*
X916584Y-599744D01*
G37*
G36*
X730808Y-679043D02*
G01*
X783894Y-679043D01*
X783894Y-599744D01*
X704596Y-599744D01*
X704596Y-652830D01*
X705307Y-659079D01*
X707186Y-664514D01*
X710234Y-669340D01*
X714298Y-673404D01*
X719175Y-676452D01*
X724560Y-678332D01*
G37*
G36*
X2254758Y-679043D02*
G01*
X2307844Y-679043D01*
X2314092Y-678332D01*
X2319528Y-676452D01*
X2324354Y-673404D01*
X2328418Y-669340D01*
X2331466Y-664514D01*
X2333345Y-659079D01*
X2334056Y-652830D01*
X2334056Y-599744D01*
X2254758Y-599744D01*
G37*
G36*
X2068982Y-679043D02*
G01*
X2122068Y-679043D01*
X2122068Y-599744D01*
X2042769Y-599744D01*
X2042769Y-652830D01*
X2043430Y-659079D01*
X2045360Y-664514D01*
X2048408Y-669340D01*
X2052421Y-673404D01*
X2057298Y-676452D01*
X2062683Y-678332D01*
G37*
G36*
X3893108Y-637082D02*
G01*
X3941470Y-637082D01*
X3941470Y-588721D01*
X3934968Y-591921D01*
X3923487Y-599592D01*
X3913124Y-608736D01*
X3903979Y-619099D01*
X3896309Y-630580D01*
G37*
G36*
X4034129Y-637082D02*
G01*
X4082491Y-637082D01*
X4079290Y-630580D01*
X4071620Y-619099D01*
X4062476Y-608736D01*
X4052112Y-599592D01*
X4040632Y-591921D01*
X4034129Y-588721D01*
G37*
G36*
X14091208Y-627075D02*
G01*
X14139570Y-627075D01*
X14139570Y-578713D01*
X14133068Y-581914D01*
X14121587Y-589584D01*
X14111224Y-598728D01*
X14102080Y-609092D01*
X14094409Y-620572D01*
G37*
G36*
X10370108Y-627075D02*
G01*
X10418470Y-627075D01*
X10418470Y-578713D01*
X10411968Y-581914D01*
X10400487Y-589584D01*
X10390124Y-598728D01*
X10380980Y-609092D01*
X10373309Y-620572D01*
G37*
G36*
X7614208Y-627075D02*
G01*
X7662570Y-627075D01*
X7662570Y-578713D01*
X7656068Y-581914D01*
X7644587Y-589584D01*
X7634224Y-598728D01*
X7625080Y-609092D01*
X7617409Y-620572D01*
G37*
G36*
X7755229Y-627075D02*
G01*
X7803591Y-627075D01*
X7800390Y-620572D01*
X7792720Y-609092D01*
X7783575Y-598728D01*
X7773212Y-589584D01*
X7761731Y-581914D01*
X7755229Y-578713D01*
G37*
G36*
X10511129Y-627075D02*
G01*
X10559491Y-627075D01*
X10556290Y-620572D01*
X10548620Y-609092D01*
X10539476Y-598728D01*
X10529112Y-589584D01*
X10517632Y-581914D01*
X10511129Y-578713D01*
G37*
G36*
X14232229Y-627075D02*
G01*
X14280591Y-627075D01*
X14277390Y-620572D01*
X14269719Y-609092D01*
X14260576Y-598728D01*
X14250212Y-589584D01*
X14238732Y-581914D01*
X14232229Y-578713D01*
G37*
G36*
X3911600Y-487883D02*
G01*
X3921353Y-487019D01*
X3930802Y-484530D01*
X3939641Y-480364D01*
X3947668Y-474776D01*
X3954576Y-467868D01*
X3960164Y-459841D01*
X3964330Y-451002D01*
X3966819Y-441553D01*
X3967683Y-431800D01*
X3966819Y-422046D01*
X3964330Y-412597D01*
X3960164Y-403758D01*
X3954576Y-395732D01*
X3947668Y-388823D01*
X3939641Y-383235D01*
X3930802Y-379069D01*
X3921353Y-376580D01*
X3911600Y-375716D01*
X3901846Y-376580D01*
X3892397Y-379069D01*
X3883558Y-383235D01*
X3875532Y-388823D01*
X3868623Y-395732D01*
X3863035Y-403758D01*
X3858869Y-412597D01*
X3856380Y-422046D01*
X3855516Y-431800D01*
X3856380Y-441553D01*
X3858869Y-451002D01*
X3863035Y-459841D01*
X3868623Y-467868D01*
X3875532Y-474776D01*
X3883558Y-480364D01*
X3892397Y-484530D01*
X3901846Y-487019D01*
G37*
G36*
X916584Y-467055D02*
G01*
X995934Y-467055D01*
X995934Y-413969D01*
X995222Y-407720D01*
X993292Y-402285D01*
X990244Y-397459D01*
X986231Y-393395D01*
X981354Y-390347D01*
X975969Y-388467D01*
X969670Y-387756D01*
X916584Y-387756D01*
G37*
G36*
X704596Y-467055D02*
G01*
X783894Y-467055D01*
X783894Y-387756D01*
X730808Y-387756D01*
X724560Y-388467D01*
X719175Y-390347D01*
X714298Y-393395D01*
X710234Y-397459D01*
X707186Y-402285D01*
X705307Y-407720D01*
X704596Y-413969D01*
G37*
G36*
X2042769Y-467055D02*
G01*
X2122068Y-467055D01*
X2122068Y-387756D01*
X2068982Y-387756D01*
X2062683Y-388467D01*
X2057298Y-390347D01*
X2052421Y-393395D01*
X2048408Y-397459D01*
X2045360Y-402285D01*
X2043430Y-407720D01*
X2042769Y-413969D01*
G37*
G36*
X2254758Y-467055D02*
G01*
X2334056Y-467055D01*
X2334056Y-413969D01*
X2333345Y-407720D01*
X2331466Y-402285D01*
X2328418Y-397459D01*
X2324354Y-393395D01*
X2319528Y-390347D01*
X2314092Y-388467D01*
X2307844Y-387756D01*
X2254758Y-387756D01*
G37*

%LPD*%
G36*
X737006Y-6175400D02*
G01*
X733196Y-6174841D01*
X729894Y-6172911D01*
X723950Y-6167678D01*
X712571Y-6160109D01*
X700328Y-6154064D01*
X687425Y-6149695D01*
X674014Y-6147003D01*
X660400Y-6146139D01*
X646785Y-6147003D01*
X633374Y-6149695D01*
X620471Y-6154064D01*
X608228Y-6160109D01*
X602538Y-6163868D01*
X598525Y-6165494D01*
X594156Y-6165240D01*
X590296Y-6163157D01*
X587705Y-6159703D01*
X586740Y-6155436D01*
X586740Y-6015431D01*
X587552Y-6011570D01*
X589737Y-6008268D01*
X1395933Y-5202072D01*
X1398828Y-5200040D01*
X1402232Y-5199126D01*
X1406753Y-5198719D01*
X1416202Y-5196230D01*
X1425041Y-5192064D01*
X1433068Y-5186476D01*
X1439976Y-5179568D01*
X1445564Y-5171541D01*
X1449730Y-5162702D01*
X1452219Y-5153253D01*
X1453083Y-5143500D01*
X1452219Y-5133746D01*
X1449730Y-5124297D01*
X1445564Y-5115458D01*
X1439976Y-5107432D01*
X1432407Y-5099862D01*
X1430223Y-5096560D01*
X1429461Y-5092649D01*
X1430223Y-5088788D01*
X1432407Y-5085486D01*
X1439976Y-5077968D01*
X1443126Y-5073446D01*
X1446377Y-5070500D01*
X1450543Y-5069179D01*
X1454912Y-5069738D01*
X1458620Y-5072126D01*
X1543862Y-5157368D01*
X1546098Y-5160670D01*
X1546860Y-5164531D01*
X1546860Y-5202529D01*
X1546352Y-5205577D01*
X1545031Y-5208371D01*
X1538935Y-5217058D01*
X1534769Y-5225897D01*
X1532280Y-5235346D01*
X1531416Y-5245100D01*
X1532280Y-5254853D01*
X1534769Y-5264302D01*
X1538935Y-5273141D01*
X1544523Y-5281168D01*
X1552092Y-5288686D01*
X1554276Y-5291988D01*
X1555038Y-5295900D01*
X1554276Y-5299760D01*
X1552092Y-5303062D01*
X1548790Y-5305298D01*
X1544878Y-5306060D01*
X1384808Y-5306060D01*
X1376375Y-5306872D01*
X1368755Y-5309209D01*
X1361744Y-5312918D01*
X1355191Y-5318302D01*
X759002Y-5914491D01*
X753618Y-5921044D01*
X749909Y-5928055D01*
X747572Y-5935675D01*
X746760Y-5944108D01*
X746760Y-6165291D01*
X745998Y-6169050D01*
X743915Y-6172301D01*
X740765Y-6174536D01*
G37*

%LPD*%
G36*
X2256231Y-7452359D02*
G01*
X2252370Y-7451598D01*
X2249068Y-7449362D01*
X2228037Y-7428331D01*
X2225852Y-7425029D01*
X2225040Y-7421168D01*
X2225040Y-7201408D01*
X2224227Y-7192975D01*
X2221890Y-7185355D01*
X2218182Y-7178344D01*
X2212797Y-7171791D01*
X2090572Y-7049566D01*
X2088540Y-7046671D01*
X2087625Y-7043267D01*
X2087219Y-7038746D01*
X2084730Y-7029297D01*
X2080564Y-7020458D01*
X2074976Y-7012431D01*
X2068068Y-7005523D01*
X2060041Y-6999935D01*
X2051202Y-6995769D01*
X2041753Y-6993280D01*
X2033016Y-6992518D01*
X2029206Y-6991400D01*
X2026107Y-6988911D01*
X2024227Y-6985406D01*
X2023770Y-6981494D01*
X2024583Y-6972300D01*
X2023719Y-6962546D01*
X2021230Y-6953097D01*
X2017064Y-6944258D01*
X2011476Y-6936231D01*
X2004568Y-6929323D01*
X1996541Y-6923735D01*
X1987702Y-6919569D01*
X1978253Y-6917080D01*
X1968500Y-6916216D01*
X1958746Y-6917080D01*
X1949297Y-6919569D01*
X1940458Y-6923735D01*
X1932432Y-6929323D01*
X1925523Y-6936231D01*
X1919935Y-6944258D01*
X1915769Y-6953097D01*
X1914804Y-6956755D01*
X1912772Y-6960666D01*
X1909318Y-6963308D01*
X1905000Y-6964273D01*
X1900682Y-6963308D01*
X1897227Y-6960666D01*
X1895195Y-6956755D01*
X1894230Y-6953097D01*
X1890064Y-6944258D01*
X1884476Y-6936231D01*
X1877568Y-6929323D01*
X1869541Y-6923735D01*
X1860702Y-6919569D01*
X1851253Y-6917080D01*
X1841500Y-6916216D01*
X1831746Y-6917080D01*
X1822297Y-6919569D01*
X1813458Y-6923735D01*
X1805432Y-6929323D01*
X1798523Y-6936231D01*
X1792935Y-6944258D01*
X1788769Y-6953097D01*
X1787804Y-6956755D01*
X1785772Y-6960666D01*
X1782318Y-6963308D01*
X1778000Y-6964273D01*
X1773682Y-6963308D01*
X1770227Y-6960666D01*
X1768195Y-6956755D01*
X1767230Y-6953097D01*
X1763064Y-6944258D01*
X1757476Y-6936231D01*
X1750568Y-6929323D01*
X1742541Y-6923735D01*
X1733702Y-6919569D01*
X1724253Y-6917080D01*
X1709623Y-6915810D01*
X1706067Y-6913727D01*
X1703578Y-6910425D01*
X1702663Y-6906463D01*
X1703374Y-6902399D01*
X1705610Y-6898944D01*
X2172868Y-6431737D01*
X2176170Y-6429552D01*
X2180031Y-6428740D01*
X2747568Y-6428740D01*
X2751429Y-6429552D01*
X2754731Y-6431737D01*
X2815691Y-6492697D01*
X2822244Y-6498082D01*
X2829255Y-6501790D01*
X2836875Y-6504127D01*
X2845308Y-6504940D01*
X2859532Y-6504940D01*
X2862580Y-6505448D01*
X2865374Y-6506768D01*
X2874060Y-6512864D01*
X2882900Y-6517030D01*
X2892348Y-6519519D01*
X2902102Y-6520383D01*
X2911856Y-6519519D01*
X2921304Y-6517030D01*
X2930144Y-6512864D01*
X2938170Y-6507276D01*
X2945079Y-6500368D01*
X2950667Y-6492341D01*
X2954832Y-6483502D01*
X2957322Y-6474053D01*
X2958185Y-6464300D01*
X2957322Y-6454546D01*
X2954832Y-6445097D01*
X2950667Y-6436258D01*
X2945079Y-6428232D01*
X2938170Y-6421323D01*
X2930144Y-6415735D01*
X2921304Y-6411569D01*
X2911856Y-6409080D01*
X2902102Y-6408216D01*
X2892348Y-6409080D01*
X2882900Y-6411569D01*
X2874060Y-6415735D01*
X2869082Y-6419189D01*
X2865882Y-6420713D01*
X2862376Y-6421018D01*
X2858973Y-6420104D01*
X2856077Y-6418072D01*
X2797708Y-6359702D01*
X2791155Y-6354318D01*
X2784144Y-6350609D01*
X2776524Y-6348272D01*
X2768092Y-6347460D01*
X2159508Y-6347460D01*
X2151075Y-6348272D01*
X2143455Y-6350609D01*
X2136444Y-6354318D01*
X2129891Y-6359702D01*
X2039213Y-6450431D01*
X2035911Y-6452616D01*
X2032000Y-6453378D01*
X2028139Y-6452616D01*
X2024837Y-6450431D01*
X2022652Y-6447129D01*
X2021839Y-6443218D01*
X2021839Y-6066231D01*
X2022652Y-6062370D01*
X2024837Y-6059068D01*
X2170633Y-5913272D01*
X2173528Y-5911240D01*
X2176932Y-5910326D01*
X2181453Y-5909919D01*
X2190902Y-5907430D01*
X2199741Y-5903264D01*
X2207768Y-5897676D01*
X2214676Y-5890768D01*
X2220264Y-5882741D01*
X2224430Y-5873902D01*
X2226919Y-5864453D01*
X2227783Y-5854700D01*
X2226919Y-5844946D01*
X2224430Y-5835497D01*
X2220264Y-5826658D01*
X2217318Y-5822442D01*
X2215642Y-5818378D01*
X2215845Y-5814009D01*
X2217877Y-5810097D01*
X2221382Y-5807405D01*
X2225649Y-5806440D01*
X2259126Y-5806440D01*
X2262784Y-5807151D01*
X2265934Y-5809081D01*
X2268169Y-5811977D01*
X2269236Y-5815533D01*
X2268016Y-5829300D01*
X2268880Y-5839053D01*
X2271369Y-5848502D01*
X2275535Y-5857341D01*
X2281123Y-5865368D01*
X2288032Y-5872276D01*
X2296058Y-5877864D01*
X2304897Y-5882030D01*
X2314346Y-5884519D01*
X2324100Y-5885383D01*
X2333853Y-5884519D01*
X2343302Y-5882030D01*
X2352141Y-5877864D01*
X2360828Y-5871768D01*
X2363622Y-5870448D01*
X2366670Y-5869940D01*
X2430068Y-5869940D01*
X2433929Y-5870752D01*
X2437231Y-5872937D01*
X3237941Y-6673646D01*
X3240227Y-6677152D01*
X3240887Y-6681317D01*
X3239820Y-6685432D01*
X3237128Y-6688683D01*
X3223158Y-6695135D01*
X3215132Y-6700723D01*
X3210102Y-6705803D01*
X3207715Y-6707581D01*
X3203244Y-6709918D01*
X3196691Y-6715302D01*
X3133902Y-6778091D01*
X3128518Y-6784644D01*
X3124809Y-6791655D01*
X3122472Y-6799275D01*
X3121660Y-6807708D01*
X3121660Y-6811568D01*
X3120847Y-6815429D01*
X3118662Y-6818731D01*
X2703931Y-7233462D01*
X2700629Y-7235698D01*
X2696768Y-7236459D01*
X2565908Y-7236459D01*
X2557475Y-7237272D01*
X2549855Y-7239609D01*
X2542844Y-7243318D01*
X2536291Y-7248702D01*
X2335631Y-7449362D01*
X2332329Y-7451598D01*
X2328468Y-7452359D01*
G37*

%LPD*%
G36*
X497027Y-7655153D02*
G01*
X492658Y-7654899D01*
X488746Y-7652867D01*
X486105Y-7649413D01*
X485140Y-7645095D01*
X485140Y-7234631D01*
X485952Y-7230770D01*
X488137Y-7227468D01*
X1078433Y-6637172D01*
X1081328Y-6635140D01*
X1084732Y-6634225D01*
X1089253Y-6633819D01*
X1098702Y-6631330D01*
X1107541Y-6627164D01*
X1115568Y-6621576D01*
X1122476Y-6614668D01*
X1128064Y-6606641D01*
X1132230Y-6597802D01*
X1134719Y-6588353D01*
X1135583Y-6578600D01*
X1134719Y-6568846D01*
X1132230Y-6559397D01*
X1128064Y-6550558D01*
X1122476Y-6542531D01*
X1115568Y-6535623D01*
X1107541Y-6530035D01*
X1098702Y-6525869D01*
X1089253Y-6523380D01*
X1079500Y-6522516D01*
X1069746Y-6523380D01*
X1060297Y-6525869D01*
X1051458Y-6530035D01*
X1042771Y-6536131D01*
X1039977Y-6537452D01*
X1036929Y-6537959D01*
X986231Y-6537959D01*
X982370Y-6537198D01*
X979068Y-6534962D01*
X831037Y-6386931D01*
X828852Y-6383629D01*
X828040Y-6379768D01*
X828040Y-5964631D01*
X828852Y-5960770D01*
X831037Y-5957468D01*
X1186180Y-5602274D01*
X1189888Y-5599938D01*
X1194257Y-5599379D01*
X1198473Y-5600700D01*
X1201724Y-5603646D01*
X1203401Y-5607710D01*
X1203198Y-5612130D01*
X1202080Y-5616346D01*
X1201216Y-5626100D01*
X1202080Y-5635853D01*
X1204569Y-5645302D01*
X1208735Y-5654141D01*
X1214323Y-5662168D01*
X1221232Y-5669076D01*
X1229258Y-5674664D01*
X1238097Y-5678830D01*
X1247546Y-5681319D01*
X1257300Y-5682183D01*
X1267053Y-5681319D01*
X1276502Y-5678830D01*
X1285341Y-5674664D01*
X1293368Y-5669076D01*
X1300276Y-5662168D01*
X1305864Y-5654141D01*
X1308862Y-5647791D01*
X1311503Y-5644286D01*
X1315415Y-5642254D01*
X1319834Y-5642051D01*
X1323898Y-5643778D01*
X1326845Y-5646978D01*
X1328166Y-5651195D01*
X1329080Y-5661253D01*
X1331569Y-5670702D01*
X1335735Y-5679541D01*
X1341323Y-5687568D01*
X1348232Y-5694476D01*
X1356258Y-5700064D01*
X1365097Y-5704230D01*
X1374546Y-5706719D01*
X1379067Y-5707126D01*
X1382471Y-5708040D01*
X1385366Y-5710072D01*
X1507591Y-5832297D01*
X1514144Y-5837682D01*
X1521155Y-5841390D01*
X1528775Y-5843727D01*
X1537208Y-5844540D01*
X1544929Y-5844540D01*
X1547977Y-5845048D01*
X1550771Y-5846368D01*
X1559458Y-5852464D01*
X1568297Y-5856630D01*
X1577746Y-5859119D01*
X1587500Y-5859983D01*
X1597253Y-5859119D01*
X1606702Y-5856630D01*
X1615541Y-5852464D01*
X1623568Y-5846876D01*
X1630476Y-5839968D01*
X1636064Y-5831941D01*
X1640230Y-5823102D01*
X1642719Y-5813653D01*
X1643583Y-5803900D01*
X1642719Y-5794146D01*
X1640230Y-5784697D01*
X1636064Y-5775858D01*
X1630476Y-5767832D01*
X1623568Y-5760923D01*
X1615541Y-5755335D01*
X1606702Y-5751169D01*
X1597253Y-5748680D01*
X1587500Y-5747816D01*
X1577746Y-5748680D01*
X1568297Y-5751169D01*
X1559458Y-5755335D01*
X1555089Y-5757621D01*
X1551584Y-5757926D01*
X1548180Y-5757011D01*
X1545285Y-5754979D01*
X1442872Y-5652566D01*
X1440840Y-5649671D01*
X1439926Y-5646267D01*
X1439519Y-5641746D01*
X1437030Y-5632297D01*
X1432864Y-5623458D01*
X1428851Y-5617718D01*
X1427175Y-5613704D01*
X1427378Y-5609336D01*
X1429359Y-5605424D01*
X1432763Y-5602732D01*
X1437030Y-5601766D01*
X1441297Y-5602630D01*
X1450746Y-5605119D01*
X1460500Y-5605983D01*
X1470253Y-5605119D01*
X1479702Y-5602630D01*
X1488541Y-5598464D01*
X1496568Y-5592876D01*
X1503476Y-5585968D01*
X1509064Y-5577941D01*
X1513230Y-5569102D01*
X1515719Y-5559653D01*
X1516126Y-5555132D01*
X1517040Y-5551728D01*
X1519072Y-5548833D01*
X1550568Y-5517337D01*
X1553870Y-5515152D01*
X1557731Y-5514340D01*
X1896668Y-5514340D01*
X1900529Y-5515152D01*
X1903831Y-5517337D01*
X1922678Y-5536133D01*
X1925015Y-5539841D01*
X1925624Y-5544210D01*
X1925116Y-5549900D01*
X1925980Y-5559653D01*
X1928469Y-5569102D01*
X1932635Y-5577941D01*
X1938223Y-5585968D01*
X1945132Y-5592876D01*
X1953158Y-5598464D01*
X1961997Y-5602630D01*
X1971446Y-5605119D01*
X1981809Y-5605983D01*
X1985619Y-5606491D01*
X1988921Y-5608370D01*
X1991360Y-5611317D01*
X1992477Y-5614974D01*
X1992223Y-5618734D01*
X1989480Y-5629046D01*
X1989074Y-5633567D01*
X1988159Y-5636971D01*
X1986127Y-5639866D01*
X1936851Y-5689142D01*
X1933702Y-5691276D01*
X1929993Y-5692140D01*
X1926234Y-5691530D01*
X1922983Y-5689600D01*
X1920646Y-5686602D01*
X1919427Y-5681675D01*
X1917090Y-5674055D01*
X1913382Y-5667044D01*
X1910638Y-5663031D01*
X1909927Y-5660085D01*
X1909419Y-5654446D01*
X1906930Y-5644997D01*
X1902764Y-5636158D01*
X1897176Y-5628132D01*
X1890268Y-5621223D01*
X1882241Y-5615635D01*
X1873402Y-5611469D01*
X1863953Y-5608980D01*
X1854200Y-5608116D01*
X1844446Y-5608980D01*
X1834997Y-5611469D01*
X1826158Y-5615635D01*
X1818132Y-5621223D01*
X1811223Y-5628132D01*
X1805635Y-5636158D01*
X1801469Y-5644997D01*
X1798980Y-5654446D01*
X1798269Y-5662523D01*
X1797354Y-5665927D01*
X1795322Y-5668822D01*
X1792427Y-5670854D01*
X1789023Y-5671769D01*
X1780946Y-5672480D01*
X1771497Y-5674969D01*
X1762658Y-5679135D01*
X1754632Y-5684723D01*
X1747723Y-5691632D01*
X1742135Y-5699658D01*
X1737969Y-5708497D01*
X1735480Y-5717946D01*
X1734616Y-5727700D01*
X1735480Y-5737453D01*
X1737969Y-5746902D01*
X1742135Y-5755741D01*
X1749602Y-5766562D01*
X1750466Y-5769762D01*
X1750872Y-5773724D01*
X1753209Y-5781344D01*
X1756918Y-5788355D01*
X1762302Y-5794908D01*
X1784705Y-5817260D01*
X1786940Y-5820664D01*
X1787652Y-5824677D01*
X1778355Y-6234785D01*
X1777288Y-6239052D01*
X1774596Y-6242456D01*
X1770735Y-6244437D01*
X1766366Y-6244590D01*
X1762353Y-6242913D01*
X1755241Y-6237935D01*
X1746402Y-6233769D01*
X1736953Y-6231280D01*
X1727200Y-6230416D01*
X1717446Y-6231280D01*
X1707997Y-6233769D01*
X1699158Y-6237935D01*
X1691132Y-6243523D01*
X1684223Y-6250432D01*
X1678635Y-6258458D01*
X1674469Y-6267297D01*
X1671980Y-6276746D01*
X1671116Y-6286500D01*
X1671980Y-6296253D01*
X1674469Y-6305702D01*
X1678635Y-6314541D01*
X1684731Y-6323228D01*
X1686052Y-6326022D01*
X1686560Y-6329070D01*
X1686560Y-6354368D01*
X1685798Y-6358229D01*
X1683562Y-6361531D01*
X1586331Y-6458762D01*
X1583029Y-6460998D01*
X1579168Y-6461760D01*
X1519631Y-6461760D01*
X1515770Y-6460998D01*
X1512468Y-6458762D01*
X1480972Y-6427266D01*
X1478940Y-6424371D01*
X1478026Y-6420967D01*
X1477619Y-6416446D01*
X1475130Y-6406997D01*
X1470964Y-6398158D01*
X1465376Y-6390132D01*
X1458468Y-6383223D01*
X1450441Y-6377635D01*
X1441602Y-6373469D01*
X1432153Y-6370980D01*
X1422400Y-6370116D01*
X1412646Y-6370980D01*
X1403197Y-6373469D01*
X1394358Y-6377635D01*
X1386332Y-6383223D01*
X1379423Y-6390132D01*
X1373835Y-6398158D01*
X1369669Y-6406997D01*
X1367180Y-6416446D01*
X1366316Y-6426200D01*
X1367180Y-6435953D01*
X1369669Y-6445402D01*
X1373835Y-6454241D01*
X1379423Y-6462268D01*
X1386332Y-6469176D01*
X1394358Y-6474764D01*
X1403197Y-6478930D01*
X1412646Y-6481419D01*
X1417167Y-6481826D01*
X1420571Y-6482740D01*
X1423466Y-6484772D01*
X1469491Y-6530797D01*
X1476552Y-6536588D01*
X1479092Y-6539738D01*
X1480210Y-6543649D01*
X1479702Y-6547713D01*
X1477670Y-6551218D01*
X1474368Y-6553657D01*
X1470558Y-6555435D01*
X1462532Y-6561023D01*
X1455623Y-6567931D01*
X1450035Y-6575958D01*
X1445869Y-6584797D01*
X1443380Y-6594246D01*
X1442516Y-6604000D01*
X1443380Y-6613753D01*
X1445869Y-6623202D01*
X1450035Y-6632041D01*
X1455623Y-6640068D01*
X1463192Y-6647637D01*
X1465376Y-6650939D01*
X1466138Y-6654850D01*
X1465376Y-6658711D01*
X1463192Y-6662013D01*
X1455623Y-6669531D01*
X1450035Y-6677558D01*
X1445869Y-6686397D01*
X1443380Y-6695846D01*
X1442516Y-6705600D01*
X1443380Y-6715353D01*
X1445869Y-6724802D01*
X1450035Y-6733641D01*
X1455623Y-6741668D01*
X1462532Y-6748576D01*
X1470558Y-6754164D01*
X1479397Y-6758330D01*
X1488846Y-6760819D01*
X1498600Y-6761683D01*
X1508353Y-6760819D01*
X1517802Y-6758330D01*
X1526641Y-6754164D01*
X1534871Y-6748424D01*
X1538782Y-6746748D01*
X1543050Y-6746900D01*
X1546910Y-6748729D01*
X1549654Y-6752031D01*
X1550822Y-6756146D01*
X1550162Y-6760362D01*
X1547876Y-6763918D01*
X798931Y-7512862D01*
X795629Y-7515098D01*
X791768Y-7515859D01*
X635508Y-7515859D01*
X627075Y-7516672D01*
X619455Y-7519009D01*
X612444Y-7522718D01*
X605891Y-7528102D01*
X517702Y-7616291D01*
X512318Y-7622844D01*
X508609Y-7629855D01*
X506272Y-7637475D01*
X505409Y-7646111D01*
X504088Y-7650276D01*
X501091Y-7653477D01*
G37*

%LPD*%
G36*
X13859916Y-8242300D02*
G01*
X13856004Y-8241538D01*
X13852702Y-8239302D01*
X10226497Y-4613097D01*
X10224262Y-4609795D01*
X10223500Y-4605883D01*
X10223500Y-4573016D01*
X10222788Y-4571288D01*
X10109911Y-4458411D01*
X10108184Y-4457700D01*
X4150106Y-4457700D01*
X4146296Y-4456938D01*
X4142994Y-4454804D01*
X4140809Y-4451604D01*
X4139946Y-4447794D01*
X4130192Y-4067810D01*
X3559708Y-4067810D01*
X3555796Y-4066997D01*
X3552494Y-4064812D01*
X3301034Y-3813352D01*
X3298850Y-3810050D01*
X3298037Y-3806139D01*
X3298037Y-2547315D01*
X3298799Y-2543454D01*
X3300984Y-2540152D01*
X3549497Y-2290013D01*
X3551428Y-2288540D01*
X3556508Y-2286660D01*
X3559505Y-2286203D01*
X4418685Y-2286203D01*
X4422495Y-2286914D01*
X4425797Y-2289048D01*
X4431944Y-2295042D01*
X4445457Y-2305558D01*
X4460036Y-2314549D01*
X4475480Y-2321814D01*
X4491685Y-2327402D01*
X4508347Y-2331110D01*
X4525365Y-2332990D01*
X4542434Y-2332990D01*
X4559452Y-2331110D01*
X4576165Y-2327402D01*
X4592320Y-2321814D01*
X4607763Y-2314549D01*
X4622342Y-2305558D01*
X4635855Y-2295042D01*
X4642002Y-2289048D01*
X4645304Y-2286914D01*
X4649114Y-2286203D01*
X7034885Y-2286203D01*
X7038695Y-2286914D01*
X7041997Y-2289048D01*
X7048144Y-2295042D01*
X7061657Y-2305558D01*
X7076236Y-2314549D01*
X7091680Y-2321814D01*
X7107885Y-2327402D01*
X7124547Y-2331110D01*
X7141565Y-2332990D01*
X7158634Y-2332990D01*
X7175652Y-2331110D01*
X7192365Y-2327402D01*
X7208520Y-2321814D01*
X7223963Y-2314549D01*
X7238542Y-2305558D01*
X7252055Y-2295042D01*
X7258202Y-2289048D01*
X7261504Y-2286914D01*
X7265314Y-2286203D01*
X10895685Y-2286203D01*
X10899495Y-2286914D01*
X10902797Y-2289048D01*
X10908944Y-2295042D01*
X10922457Y-2305558D01*
X10937036Y-2314549D01*
X10952480Y-2321814D01*
X10968685Y-2327402D01*
X10985347Y-2331110D01*
X11002365Y-2332990D01*
X11019434Y-2332990D01*
X11036452Y-2331110D01*
X11053165Y-2327402D01*
X11069320Y-2321814D01*
X11084763Y-2314549D01*
X11099342Y-2305558D01*
X11112855Y-2295042D01*
X11119002Y-2289048D01*
X11122304Y-2286914D01*
X11126114Y-2286203D01*
X13511885Y-2286203D01*
X13515695Y-2286914D01*
X13518997Y-2289048D01*
X13525144Y-2295042D01*
X13538657Y-2305558D01*
X13553236Y-2314549D01*
X13568680Y-2321814D01*
X13584885Y-2327402D01*
X13601547Y-2331110D01*
X13618565Y-2332990D01*
X13635634Y-2332990D01*
X13652652Y-2331110D01*
X13669365Y-2327402D01*
X13685519Y-2321814D01*
X13700963Y-2314549D01*
X13715542Y-2305558D01*
X13729055Y-2295042D01*
X13735202Y-2289048D01*
X13738504Y-2286914D01*
X13742314Y-2286203D01*
X14730323Y-2286203D01*
X14734235Y-2286965D01*
X14737537Y-2289149D01*
X14983764Y-2535377D01*
X14985949Y-2538679D01*
X14986711Y-2542590D01*
X14986711Y-3808374D01*
X14985949Y-3812286D01*
X14983764Y-3815587D01*
X14734540Y-4064812D01*
X14731238Y-4066997D01*
X14727326Y-4067810D01*
X14240510Y-4067810D01*
X14398802Y-4226102D01*
X14401038Y-4229404D01*
X14401800Y-4233316D01*
X14401800Y-7517384D01*
X14402511Y-7519111D01*
X14741702Y-7858302D01*
X14743938Y-7861604D01*
X14744700Y-7865516D01*
X14744700Y-8161883D01*
X14743938Y-8165795D01*
X14741702Y-8169097D01*
X14671497Y-8239302D01*
X14668195Y-8241538D01*
X14664283Y-8242300D01*
G37*

%LPD*%
D11*
X15252420Y-8343900D02*
G01*
X14008100Y-8343900D01*
X10223500Y-4559300D01*
X4152900Y-4559300D01*
X3911600Y-4318000D01*
X3911600Y-3543300D01*
D13*
X880313Y-9969500D02*
G01*
X1092200Y-9757613D01*
X1092200Y-9156700D01*
D11*
X15252420Y-8343900D02*
G01*
X14326522Y-7418001D01*
X14326522Y-3513218D01*
X15252420Y-8343900D02*
G01*
X14008100Y-8343900D01*
X11010900Y-1378000D02*
G01*
X11480800Y-908100D01*
X11480800Y-683412D01*
X13627100Y-1378000D02*
G01*
X13169900Y-920800D01*
X13169900Y-673404D01*
X13169900Y-673404D02*
G01*
X13029920Y-533425D01*
X12712700Y-533400D01*
X11480800Y-683412D02*
G01*
X11630812Y-533400D01*
X11950700Y-520700D01*
X6692900Y-673404D02*
G01*
X6552920Y-533425D01*
X6235700Y-533400D01*
X7150100Y-1378000D02*
G01*
X6692900Y-920800D01*
X6692900Y-673404D01*
X4533900Y-1378000D02*
G01*
X5003800Y-908100D01*
X5003800Y-683412D01*
X5003800Y-683412D02*
G01*
X5153812Y-533400D01*
X5473700Y-520700D01*
D14*
X3771900Y-8039100D02*
G01*
X3771900Y-8686800D01*
X4495800Y-9410700D01*
X5041900Y-9410700D01*
X5130800Y-9321800D01*
X6159500Y-9321800D01*
X6261100Y-9220200D01*
X7540243Y-9220200D01*
X2095500Y-6972300D02*
G01*
X2336800Y-7213600D01*
X2565400Y-7213600D01*
X2095500Y-6972300D02*
G01*
X2171700Y-7048500D01*
X2222500Y-7048500D01*
X2679700Y-6591300D01*
X2679700Y-6527800D01*
X7747000Y-9029700D02*
G01*
X7785100Y-9029700D01*
X7950200Y-9194800D01*
X7988300Y-9194800D01*
X7540320Y-9220200D02*
G01*
X7721600Y-9220200D01*
X1714500Y-6972300D02*
G01*
X1714500Y-7213600D01*
X1917700Y-7416800D01*
X1917700Y-7531100D01*
X1917700Y-7569200D01*
X2120900Y-7772400D01*
X2489200Y-7772400D01*
X2590800Y-7670800D01*
X2730500Y-7531100D01*
X2819400Y-7531100D01*
X2921000Y-7531100D01*
X3048000Y-7404100D01*
X3238500Y-7213600D01*
X3251200Y-7213600D01*
X3835400Y-8115300D02*
G01*
X3835400Y-8674100D01*
X4445000Y-9283700D01*
X4508500Y-9347200D01*
X4724400Y-9347200D01*
X2895600Y-7480300D02*
G01*
X3251200Y-7124700D01*
X1778000Y-7048500D02*
G01*
X1778000Y-7188200D01*
X1968500Y-7378700D01*
X1968500Y-7543800D01*
X2133600Y-7708900D01*
X2476500Y-7708900D01*
X2705100Y-7480300D01*
X2895600Y-7480300D01*
X1841500Y-6972300D02*
G01*
X1841500Y-7175500D01*
X2019300Y-7353300D01*
X2019300Y-7518400D01*
X2159000Y-7658100D01*
X2438400Y-7658100D01*
X2667000Y-7429500D01*
X2844800Y-7429500D01*
X3251200Y-7023100D01*
X3898900Y-8204200D02*
G01*
X3898900Y-8661400D01*
X4013200Y-8775700D01*
X4508500Y-9271000D01*
X6096000Y-9271000D01*
X6134100Y-9271000D01*
X6248400Y-9156700D01*
X6261100Y-9144000D01*
X7772400Y-9144000D01*
X7975600Y-9347200D01*
X8496300Y-9347200D01*
X8724900Y-9118600D01*
X9144000Y-9118600D01*
X9271000Y-8991600D01*
X9359900Y-8991600D01*
X3251200Y-7785100D02*
G01*
X3073400Y-7962900D01*
X3073400Y-8166100D01*
X3022600Y-8216900D01*
X2857500Y-8216900D01*
X2781300Y-8140700D01*
X2781300Y-7924800D01*
X2781300Y-7924800D02*
G01*
X2679700Y-8026400D01*
X1536700Y-8026400D01*
X1257300Y-7747000D01*
X673100Y-7747000D01*
X2768600Y-7594600D02*
G01*
X2908300Y-7734300D01*
X2908300Y-8026400D01*
D13*
X5435600Y-9525000D02*
G01*
X4470400Y-9525000D01*
X3606800Y-8661400D01*
X3606800Y-8166100D01*
D14*
X5326125Y-9969500D02*
G01*
X5046472Y-9690100D01*
X4508500Y-9690100D01*
X3517900Y-8699500D01*
X3517900Y-6604000D01*
X1943100Y-5029200D01*
X4826000Y-9969500D02*
G01*
X4648200Y-9969500D01*
X3454400Y-8775700D01*
X3454400Y-6667500D01*
X1828800Y-5041900D01*
X3975100Y-8305800D02*
G01*
X3975100Y-8648700D01*
X4000500Y-8674100D01*
X4533900Y-9207500D01*
X5181600Y-9207500D01*
X6108700Y-9207500D01*
X6184900Y-9131300D01*
X6223000Y-9093200D01*
X7632700Y-9093200D01*
X7696200Y-9029700D01*
X7747000Y-9029700D01*
X1905000Y-7048500D02*
G01*
X1905000Y-7150100D01*
X2070100Y-7315200D01*
X2070100Y-7480300D01*
X2184400Y-7594600D01*
X2413000Y-7594600D01*
X2425700Y-7581900D01*
X2628900Y-7378700D01*
X2768600Y-7378700D01*
X2806700Y-7378700D01*
X3251200Y-6934200D01*
X1422400Y-6426200D02*
G01*
X1498600Y-6502400D01*
X1600200Y-6502400D01*
X1727200Y-6375400D01*
X1727200Y-6286500D01*
X1498600Y-6604000D02*
G01*
X1574800Y-6604000D01*
X1816100Y-6362700D01*
X1828800Y-5803900D01*
X1790700Y-5765800D01*
X1790700Y-5727700D01*
X1498600Y-6705600D02*
G01*
X1562100Y-6705600D01*
X1879600Y-6388100D01*
X1879600Y-5689600D01*
X1854200Y-5664200D01*
X850900Y-8343900D02*
G01*
X850900Y-8178800D01*
X546100Y-7874000D01*
X546100Y-7645400D01*
X635000Y-7556500D01*
X812800Y-7556500D01*
X1930400Y-6438900D01*
X1930400Y-5753100D01*
X2044700Y-5638800D01*
X1346200Y-7594600D02*
G01*
X1206500Y-7454900D01*
X1206500Y-7251700D01*
X1981200Y-6477000D01*
X1981200Y-6045200D01*
X2171700Y-5854700D01*
X1308100Y-6019800D02*
G01*
X1092200Y-6235700D01*
X850900Y-6235700D01*
X4038600Y-8394700D02*
G01*
X4038600Y-8636000D01*
X4432300Y-9029700D01*
X4546600Y-9144000D01*
X5029200Y-9144000D01*
X5626100Y-9144000D01*
X5778500Y-8991600D01*
X5816600Y-8953500D01*
X5880100Y-8953500D01*
X1968500Y-6972300D02*
G01*
X1968500Y-7124700D01*
X2133600Y-7289800D01*
X2133600Y-7454900D01*
X2133600Y-7467600D01*
X2209800Y-7543800D01*
X2387600Y-7543800D01*
X2400300Y-7531100D01*
X2603500Y-7327900D01*
X2667000Y-7327900D01*
X2755900Y-7327900D01*
X3238500Y-6845300D01*
X3251200Y-6845300D01*
X2032000Y-7048500D02*
G01*
X2184400Y-7200900D01*
X2184400Y-7442200D01*
X2235200Y-7493000D01*
X2349500Y-7493000D01*
X2565400Y-7277100D01*
X2717800Y-7277100D01*
X3162300Y-6832600D01*
X3162300Y-6807200D01*
X3225800Y-6743700D01*
X3251200Y-6743700D01*
X4114800Y-8483600D02*
G01*
X4114800Y-8597900D01*
X4330700Y-8813800D01*
X1321815Y-7366000D02*
G01*
X1320800Y-7226300D01*
X2159000Y-6388100D01*
X2768600Y-6388100D01*
X2844800Y-6464300D01*
X2902204Y-6464300D01*
X1079500Y-6578600D02*
G01*
X965200Y-6578600D01*
X787400Y-6400800D01*
X787400Y-5943600D01*
X1384300Y-5346700D01*
X1600200Y-5346700D01*
X1727200Y-5219700D01*
X1727200Y-4305300D01*
X4724400Y-9080500D02*
G01*
X5041900Y-9080500D01*
X5080000Y-9042400D01*
D12*
X10972800Y-8966200D02*
G01*
X11239500Y-8966200D01*
X9563100Y-8623300D02*
G01*
X9575800Y-8623300D01*
X9690100Y-8737600D01*
X9842500Y-8737600D01*
X9156700Y-8763000D02*
G01*
X9423400Y-8763000D01*
X9563100Y-8623300D01*
X7874000Y-8623300D02*
G01*
X7988300Y-8737600D01*
X8178800Y-8737600D01*
X7454900Y-8763000D02*
G01*
X7734300Y-8763000D01*
X7874000Y-8623300D01*
X5778500Y-8763000D02*
G01*
X6057900Y-8763000D01*
X6197600Y-8623300D01*
D14*
X3251200Y-7785100D02*
G01*
X3200400Y-7785100D01*
X3098800Y-7683500D01*
X3098800Y-7467600D01*
X3200400Y-7366000D01*
X3302000Y-7366000D01*
X3340100Y-7327900D01*
X3340100Y-6718300D01*
X2451100Y-5829300D01*
X2324100Y-5829300D01*
X1079500Y-6578600D02*
G01*
X444500Y-7213600D01*
X444500Y-7912100D01*
X444500Y-8102600D01*
X939800Y-8597900D01*
X2705100Y-8597900D01*
X2857500Y-8750300D01*
X2933700Y-8750300D01*
X3314700Y-8369300D01*
X2870200Y-8585200D02*
G01*
X2933700Y-8585200D01*
X3390900Y-8128000D01*
X3390900Y-6680200D01*
X2476500Y-5765800D01*
X2082800Y-5765800D01*
X2565400Y-7213600D02*
G01*
X2476500Y-7213600D01*
X2260600Y-7429500D01*
X2082800Y-4800600D02*
G01*
X2082800Y-4851400D01*
X2540000Y-5308600D01*
X2971800Y-4064000D02*
G01*
X2971800Y-4343400D01*
X1986892Y-4241800D02*
G01*
X1986892Y-4261507D01*
X1943100Y-4305300D01*
X1943100Y-4851400D01*
X3136900Y-6045200D01*
X3225800Y-6045200D01*
X1478787Y-4178300D02*
G01*
X1752600Y-4178300D01*
X1892300Y-4318000D01*
X1892300Y-4876800D01*
X3136900Y-6121400D01*
X1054100Y-3302000D02*
G01*
X1054100Y-3619500D01*
X1231900Y-3797300D01*
X1384300Y-3797300D01*
X1498600Y-3911600D01*
X2260600Y-3911600D01*
X2324100Y-3975100D01*
X2324100Y-4927600D01*
X3213100Y-5816600D01*
X2374900Y-3365500D02*
G01*
X2374900Y-4864100D01*
X2908300Y-5397500D01*
D12*
X6197600Y-8623300D02*
G01*
X6324600Y-8750300D01*
X6502400Y-8750300D01*
X4559300Y-8623300D02*
G01*
X4699000Y-8763000D01*
X4864100Y-8763000D01*
D13*
X1380312Y-9969525D02*
G01*
X1231900Y-9821113D01*
X1231900Y-8978900D01*
X1157947Y-8978900D02*
G01*
X1231900Y-8978900D01*
X635000Y-8877300D02*
G01*
X736600Y-8978900D01*
X1157947Y-8978900D01*
D14*
X1321930Y-7366000D02*
G01*
X1791830Y-7835900D01*
X1892300Y-7835900D01*
X1346200Y-7594600D02*
G01*
X1689100Y-7937500D01*
X1943100Y-7937500D01*
X1641627Y-8131327D02*
G01*
X1803400Y-8293100D01*
X2324100Y-8293100D01*
X2410459Y-8206739D01*
X2527300Y-8206739D01*
D13*
X635000Y-8877300D02*
G01*
X635000Y-8804010D01*
D14*
X1193800Y-2527300D02*
G01*
X546100Y-1879600D01*
X546100Y-1498600D01*
X850900Y-1193800D01*
X1219200Y-1193800D01*
X1350266Y-1062733D01*
X1350266Y-666775D01*
X2247900Y-2527300D02*
G01*
X2997200Y-1778000D01*
X2997200Y-1447800D01*
X2688336Y-1138936D01*
X2688336Y-666750D01*
D10*
X1355247Y-1511300D02*
G01*
X1545747Y-1701800D01*
X1887733Y-1701800D01*
X1600200Y-3771900D02*
G01*
X1727200Y-3644900D01*
X1727200Y-1854200D01*
X1879600Y-1701800D01*
X2565400Y-1701800D01*
X2693415Y-1573784D01*
X2693415Y-1511300D01*
D14*
X1384300Y-5651500D02*
G01*
X1536700Y-5803900D01*
X1587500Y-5803900D01*
X1257300Y-5626100D02*
G01*
X1333500Y-5549900D01*
X1460500Y-5549900D01*
X1460500Y-5549900D02*
G01*
X1536700Y-5473700D01*
X1917700Y-5473700D01*
X1981200Y-5537200D01*
X1981200Y-5549900D01*
X1117600Y-5511800D02*
G01*
X1320800Y-5308600D01*
X774700Y-4800600D02*
G01*
X1244600Y-4800600D01*
X1587500Y-5143500D01*
X1587500Y-5245100D01*
X546100Y-6390203D02*
G01*
X546100Y-5994400D01*
X1397000Y-5143500D01*
X228600Y-6250503D02*
G01*
X228600Y-6210300D01*
X1397000Y-5041900D01*
X1943100Y-5029200D02*
G01*
X1879600Y-4965700D01*
D43*
G01*
X3987800Y-683412D03*
G01*
X5003800Y-683412D03*
G01*
X7708900Y-673404D03*
G01*
X6692900Y-673404D03*
G01*
X10464800Y-673404D03*
G01*
X11480800Y-673404D03*
G01*
X14185900Y-673404D03*
G01*
X13169900Y-673404D03*
D44*
G01*
X660400Y-6758508D03*
G01*
X406400Y-6758508D03*
G01*
X660400Y-6504508D03*
G01*
X406400Y-6504508D03*
G01*
X660400Y-6250508D03*
D45*
G01*
X406400Y-6250508D03*
G01*
X406400Y-4967808D03*
D44*
G01*
X406400Y-4713808D03*
G01*
X406400Y-4459808D03*
G01*
X406400Y-4205808D03*
G36*
X5478350Y-413400D02*
G01*
X5718350Y-413400D01*
X5718350Y-653399D01*
X5478350Y-653399D01*
G37*
D47*
G01*
X6098362Y-533425D03*
G36*
X11955355Y-413400D02*
G01*
X12195355Y-413400D01*
X12195355Y-653399D01*
X11955355Y-653399D01*
G37*
G01*
X12575362Y-533425D03*
G36*
X730255Y-413400D02*
G01*
X970254Y-413400D01*
X970254Y-653399D01*
X730255Y-653399D01*
G37*
G01*
X1350263Y-533425D03*
G36*
X2068400Y-413400D02*
G01*
X2308400Y-413400D01*
X2308400Y-653399D01*
X2068400Y-653399D01*
G37*
G01*
X2688386Y-533425D03*
G36*
X760300Y-9849500D02*
G01*
X1000300Y-9849500D01*
X1000300Y-10089499D01*
X760300Y-10089499D01*
G37*
G01*
X1380312Y-9969525D03*
G01*
X1880311Y-9969525D03*
G01*
X2380310Y-9969525D03*
G01*
X2880309Y-9969525D03*
G01*
X3380308Y-9969525D03*
G36*
X13950894Y-9849500D02*
G01*
X14190893Y-9849500D01*
X14190893Y-10089499D01*
X13950894Y-10089499D01*
G37*
G01*
X14570887Y-9969525D03*
G01*
X15070886Y-9969525D03*
G36*
X4206001Y-9849500D02*
G01*
X4446000Y-9849500D01*
X4446000Y-10089499D01*
X4206001Y-10089499D01*
G37*
G01*
X4826000Y-9969525D03*
G01*
X5325999Y-9969525D03*
D48*
G01*
X7150100Y-1378000D03*
G01*
X7150100Y-2177999D03*
G01*
X11010900Y-1378000D03*
G01*
X11010900Y-2177999D03*
G01*
X13627100Y-1378000D03*
G01*
X13627100Y-2177999D03*
G01*
X15252420Y-8343900D03*
G01*
X12992430Y-8343900D03*
G01*
X4533900Y-1378000D03*
G01*
X4533900Y-2177999D03*
D49*
G01*
X1355242Y-1511300D03*
G01*
X845235Y-1511300D03*
G01*
X1099235Y-1511300D03*
G01*
X2693390Y-1511300D03*
G01*
X2183384Y-1511300D03*
G01*
X2437384Y-1511300D03*
D20*
G01*
X6502400Y-8750300D03*
G01*
X4864100Y-8763000D03*
G01*
X6197600Y-8623300D03*
G01*
X4559300Y-8623300D03*
G01*
X1193800Y-2527300D03*
G01*
X2247900Y-2527300D03*
G01*
X1157960Y-8978900D03*
G01*
X635000Y-8804020D03*
G01*
X3251200Y-7785100D03*
G01*
X1641627Y-8131327D03*
G01*
X2527300Y-8206739D03*
G01*
X673100Y-7747000D03*
G01*
X1943100Y-7937500D03*
G01*
X1346200Y-7594600D03*
G01*
X1892300Y-7835900D03*
G01*
X1321943Y-7366000D03*
G01*
X635000Y-8877300D03*
G01*
X1231900Y-8978900D03*
D21*
G01*
X1600200Y-3771900D03*
D20*
G01*
X1384300Y-5651500D03*
G01*
X546100Y-6390208D03*
G01*
X228600Y-6250508D03*
G01*
X1079500Y-6578600D03*
G01*
X1727200Y-4305300D03*
G01*
X1981200Y-5549900D03*
G01*
X1498600Y-6604000D03*
G01*
X1498600Y-6705600D03*
G01*
X1790700Y-5727700D03*
G01*
X1854200Y-5664200D03*
G01*
X1587500Y-5803900D03*
G01*
X774700Y-4800600D03*
G01*
X1587500Y-5245100D03*
G01*
X1257300Y-5626100D03*
G01*
X1460500Y-5549900D03*
G01*
X1117600Y-5511800D03*
G01*
X1320800Y-5308600D03*
G01*
X1397000Y-5041900D03*
G01*
X1397000Y-5143500D03*
G01*
X1828800Y-5041900D03*
G01*
X1879600Y-4965700D03*
G01*
X1054100Y-3302000D03*
G01*
X3213100Y-5816600D03*
G01*
X2374900Y-3365500D03*
G01*
X2908300Y-5397500D03*
G01*
X1478889Y-4178300D03*
G01*
X3136900Y-6121400D03*
G01*
X1986889Y-4241800D03*
G01*
X3225800Y-6045200D03*
G01*
X2971800Y-4064000D03*
G01*
X2971800Y-4343400D03*
G01*
X2082800Y-4800600D03*
G01*
X2540000Y-5308600D03*
G01*
X2679700Y-6527800D03*
G01*
X2565400Y-7213600D03*
G01*
X2260600Y-7429500D03*
G01*
X850900Y-8343900D03*
G01*
X2044700Y-5638800D03*
G01*
X2171700Y-5854700D03*
G01*
X2870200Y-8585200D03*
G01*
X2082800Y-5765800D03*
G01*
X2324100Y-5829300D03*
G01*
X2902102Y-6464300D03*
G01*
X3314700Y-8369300D03*
G01*
X5435600Y-9525000D03*
G01*
X3606800Y-8166100D03*
G01*
X5778500Y-8763000D03*
G01*
X7454900Y-8763000D03*
G01*
X7874000Y-8623300D03*
G01*
X8178800Y-8737600D03*
G01*
X9156700Y-8763000D03*
G01*
X9563100Y-8623300D03*
G01*
X9842500Y-8737600D03*
G01*
X10972800Y-8966200D03*
G01*
X11239500Y-8966200D03*
G01*
X4724400Y-9080500D03*
G01*
X5080000Y-9042400D03*
G01*
X850900Y-6235700D03*
G01*
X2032000Y-7048500D03*
G01*
X3251200Y-6743700D03*
G01*
X4114800Y-8483600D03*
G01*
X4330700Y-8813800D03*
G01*
X1968500Y-6972300D03*
G01*
X3251200Y-6845300D03*
G01*
X4038600Y-8394700D03*
G01*
X5880100Y-8953500D03*
G01*
X1308100Y-6019800D03*
G01*
X1422400Y-6426200D03*
G01*
X1727200Y-6286500D03*
G01*
X1905000Y-7048500D03*
G01*
X3251200Y-6934200D03*
G01*
X3975100Y-8305800D03*
G01*
X7747000Y-9029700D03*
G01*
X1841500Y-6972300D03*
G01*
X2768600Y-7594600D03*
G01*
X2908300Y-8026400D03*
G01*
X2781300Y-7924800D03*
G01*
X3898900Y-8204200D03*
G01*
X9359900Y-8991600D03*
G01*
X1778000Y-7048500D03*
G01*
X3251200Y-7023100D03*
G01*
X3251200Y-7124700D03*
G01*
X3835400Y-8115300D03*
G01*
X4724400Y-9347200D03*
G01*
X1714500Y-6972300D03*
G01*
X3251200Y-7213600D03*
G01*
X3771900Y-8039100D03*
G01*
X7988300Y-9194800D03*
G01*
X2095500Y-6972300D03*
G01*
X7540320Y-9220200D03*
G01*
X3911600Y-431800D03*
G01*
X3696360Y-3128060D03*
G01*
X3772560Y-3128060D03*
G01*
X3848760Y-3128060D03*
G01*
X3924960Y-3128060D03*
G01*
X4001160Y-3128060D03*
G01*
X4077360Y-3128060D03*
G01*
X4153560Y-3128060D03*
G01*
X4229760Y-3128060D03*
G01*
X4305960Y-3128060D03*
G01*
X4382160Y-3128060D03*
G01*
X4458360Y-3128060D03*
G01*
X4534560Y-3128060D03*
G01*
X3696360Y-3204260D03*
G01*
X3772560Y-3204260D03*
G01*
X3848760Y-3204260D03*
G01*
X3924960Y-3204260D03*
G01*
X4001160Y-3204260D03*
G01*
X4077360Y-3204260D03*
G01*
X4153560Y-3204260D03*
G01*
X4229760Y-3204260D03*
G01*
X4305960Y-3204260D03*
G01*
X4382160Y-3204260D03*
G01*
X4458360Y-3204260D03*
G01*
X4534560Y-3204260D03*
G01*
X3696360Y-3280460D03*
G01*
X3772560Y-3280460D03*
G01*
X3848760Y-3280460D03*
G01*
X3924960Y-3280460D03*
G01*
X4001160Y-3280460D03*
G01*
X4077360Y-3280460D03*
G01*
X4153560Y-3280460D03*
G01*
X4229760Y-3280460D03*
G01*
X4305960Y-3280460D03*
G01*
X4382160Y-3280460D03*
G01*
X4458360Y-3280460D03*
G01*
X4534560Y-3280460D03*
G01*
X3696360Y-3356660D03*
G01*
X3772560Y-3356660D03*
G01*
X3848760Y-3356660D03*
G01*
X3924960Y-3356660D03*
G01*
X4001160Y-3356660D03*
G01*
X4077360Y-3356660D03*
G01*
X4153560Y-3356660D03*
G01*
X4229760Y-3356660D03*
G01*
X4305960Y-3356660D03*
G01*
X4382160Y-3356660D03*
G01*
X4458360Y-3356660D03*
G01*
X4534560Y-3356660D03*
G01*
X3696360Y-3432860D03*
G01*
X3772560Y-3432860D03*
G01*
X3848760Y-3432860D03*
G01*
X3924960Y-3432860D03*
G01*
X4001160Y-3432860D03*
G01*
X4077360Y-3432860D03*
G01*
X4153560Y-3432860D03*
G01*
X4229760Y-3432860D03*
G01*
X4305960Y-3432860D03*
G01*
X4382160Y-3432860D03*
G01*
X4458360Y-3432860D03*
G01*
X4534560Y-3432860D03*
G01*
X3696360Y-3509060D03*
G01*
X3772560Y-3509060D03*
G01*
X3848760Y-3509060D03*
G01*
X3924960Y-3509060D03*
G01*
X4001160Y-3509060D03*
G01*
X4077360Y-3509060D03*
G01*
X4153560Y-3509060D03*
G01*
X4229760Y-3509060D03*
G01*
X4305960Y-3509060D03*
G01*
X4382160Y-3509060D03*
G01*
X4458360Y-3509060D03*
G01*
X4534560Y-3509060D03*
G01*
X3696360Y-3585260D03*
G01*
X3772560Y-3585260D03*
G01*
X3848760Y-3585260D03*
G01*
X3924960Y-3585260D03*
G01*
X4001160Y-3585260D03*
G01*
X4077360Y-3585260D03*
G01*
X4153560Y-3585260D03*
G01*
X4229760Y-3585260D03*
G01*
X4305960Y-3585260D03*
G01*
X4382160Y-3585260D03*
G01*
X4458360Y-3585260D03*
G01*
X4534560Y-3585260D03*
G01*
X3696360Y-3661460D03*
G01*
X3772560Y-3661460D03*
G01*
X3848760Y-3661460D03*
G01*
X3924960Y-3661460D03*
G01*
X4001160Y-3661460D03*
G01*
X4077360Y-3661460D03*
G01*
X4153560Y-3661460D03*
G01*
X4229760Y-3661460D03*
G01*
X4305960Y-3661460D03*
G01*
X4382160Y-3661460D03*
G01*
X4458360Y-3661460D03*
G01*
X4534560Y-3661460D03*
G01*
X4610760Y-3128060D03*
G01*
X4686960Y-3128060D03*
G01*
X4763160Y-3128060D03*
G01*
X4610760Y-3204260D03*
G01*
X4686960Y-3204260D03*
G01*
X4763160Y-3204260D03*
G01*
X4610760Y-3280460D03*
G01*
X4686960Y-3280460D03*
G01*
X4763160Y-3280460D03*
G01*
X4610760Y-3356660D03*
G01*
X4686960Y-3356660D03*
G01*
X4763160Y-3356660D03*
G01*
X4610760Y-3432860D03*
G01*
X4686960Y-3432860D03*
G01*
X4763160Y-3432860D03*
G01*
X4610760Y-3509060D03*
G01*
X4686960Y-3509060D03*
G01*
X4763160Y-3509060D03*
G01*
X4610760Y-3585260D03*
G01*
X4686960Y-3585260D03*
G01*
X4763160Y-3585260D03*
G01*
X4610760Y-3661460D03*
G01*
X4686960Y-3661460D03*
G01*
X4763160Y-3661460D03*
G01*
X3696360Y-2823260D03*
G01*
X3772560Y-2823260D03*
G01*
X3848760Y-2823260D03*
G01*
X3924960Y-2823260D03*
G01*
X4001160Y-2823260D03*
G01*
X4077360Y-2823260D03*
G01*
X4153560Y-2823260D03*
G01*
X4229760Y-2823260D03*
G01*
X4305960Y-2823260D03*
G01*
X4382160Y-2823260D03*
G01*
X4458360Y-2823260D03*
G01*
X4534560Y-2823260D03*
G01*
X3696360Y-2899460D03*
G01*
X3772560Y-2899460D03*
G01*
X3848760Y-2899460D03*
G01*
X3924960Y-2899460D03*
G01*
X4001160Y-2899460D03*
G01*
X4077360Y-2899460D03*
G01*
X4153560Y-2899460D03*
G01*
X4229760Y-2899460D03*
G01*
X4305960Y-2899460D03*
G01*
X4382160Y-2899460D03*
G01*
X4458360Y-2899460D03*
G01*
X4534560Y-2899460D03*
G01*
X3696360Y-2975660D03*
G01*
X3772560Y-2975660D03*
G01*
X3848760Y-2975660D03*
G01*
X3924960Y-2975660D03*
G01*
X4001160Y-2975660D03*
G01*
X4077360Y-2975660D03*
G01*
X4153560Y-2975660D03*
G01*
X4229760Y-2975660D03*
G01*
X4305960Y-2975660D03*
G01*
X4382160Y-2975660D03*
G01*
X4458360Y-2975660D03*
G01*
X4534560Y-2975660D03*
G01*
X3696360Y-3051860D03*
G01*
X3772560Y-3051860D03*
G01*
X3848760Y-3051860D03*
G01*
X3924960Y-3051860D03*
G01*
X4001160Y-3051860D03*
G01*
X4077360Y-3051860D03*
G01*
X4153560Y-3051860D03*
G01*
X4229760Y-3051860D03*
G01*
X4305960Y-3051860D03*
G01*
X4382160Y-3051860D03*
G01*
X4458360Y-3051860D03*
G01*
X4534560Y-3051860D03*
G01*
X4610760Y-2823260D03*
G01*
X4686960Y-2823260D03*
G01*
X4763160Y-2823260D03*
G01*
X4610760Y-2899460D03*
G01*
X4686960Y-2899460D03*
G01*
X4763160Y-2899460D03*
G01*
X4610760Y-2975660D03*
G01*
X4686960Y-2975660D03*
G01*
X4763160Y-2975660D03*
G01*
X4610760Y-3051860D03*
G01*
X4686960Y-3051860D03*
G01*
X4763160Y-3051860D03*
G01*
X6934301Y-3125698D03*
G01*
X7010501Y-3125698D03*
G01*
X7086701Y-3125698D03*
G01*
X7162901Y-3125698D03*
G01*
X7239101Y-3125698D03*
G01*
X7315301Y-3125698D03*
G01*
X7391501Y-3125698D03*
G01*
X7467701Y-3125698D03*
G01*
X7543901Y-3125698D03*
G01*
X7620101Y-3125698D03*
G01*
X7696301Y-3125698D03*
G01*
X7772501Y-3125698D03*
G01*
X6934301Y-3201898D03*
G01*
X7010501Y-3201898D03*
G01*
X7086701Y-3201898D03*
G01*
X7162901Y-3201898D03*
G01*
X7239101Y-3201898D03*
G01*
X7315301Y-3201898D03*
G01*
X7391501Y-3201898D03*
G01*
X7467701Y-3201898D03*
G01*
X7543901Y-3201898D03*
G01*
X7620101Y-3201898D03*
G01*
X7696301Y-3201898D03*
G01*
X7772501Y-3201898D03*
G01*
X6934301Y-3278098D03*
G01*
X7010501Y-3278098D03*
G01*
X7086701Y-3278098D03*
G01*
X7162901Y-3278098D03*
G01*
X7239101Y-3278098D03*
G01*
X7315301Y-3278098D03*
G01*
X7391501Y-3278098D03*
G01*
X7467701Y-3278098D03*
G01*
X7543901Y-3278098D03*
G01*
X7620101Y-3278098D03*
G01*
X7696301Y-3278098D03*
G01*
X7772501Y-3278098D03*
G01*
X6934301Y-3354298D03*
G01*
X7010501Y-3354298D03*
G01*
X7086701Y-3354298D03*
G01*
X7162901Y-3354298D03*
G01*
X7239101Y-3354298D03*
G01*
X7315301Y-3354298D03*
G01*
X7391501Y-3354298D03*
G01*
X7467701Y-3354298D03*
G01*
X7543901Y-3354298D03*
G01*
X7620101Y-3354298D03*
G01*
X7696301Y-3354298D03*
G01*
X7772501Y-3354298D03*
G01*
X6934301Y-3430498D03*
G01*
X7010501Y-3430498D03*
G01*
X7086701Y-3430498D03*
G01*
X7162901Y-3430498D03*
G01*
X7239101Y-3430498D03*
G01*
X7315301Y-3430498D03*
G01*
X7391501Y-3430498D03*
G01*
X7467701Y-3430498D03*
G01*
X7543901Y-3430498D03*
G01*
X7620101Y-3430498D03*
G01*
X7696301Y-3430498D03*
G01*
X7772501Y-3430498D03*
G01*
X6934301Y-3506698D03*
G01*
X7010501Y-3506698D03*
G01*
X7086701Y-3506698D03*
G01*
X7162901Y-3506698D03*
G01*
X7239101Y-3506698D03*
G01*
X7315301Y-3506698D03*
G01*
X7391501Y-3506698D03*
G01*
X7467701Y-3506698D03*
G01*
X7543901Y-3506698D03*
G01*
X7620101Y-3506698D03*
G01*
X7696301Y-3506698D03*
G01*
X7772501Y-3506698D03*
G01*
X6934301Y-3582898D03*
G01*
X7010501Y-3582898D03*
G01*
X7086701Y-3582898D03*
G01*
X7162901Y-3582898D03*
G01*
X7239101Y-3582898D03*
G01*
X7315301Y-3582898D03*
G01*
X7391501Y-3582898D03*
G01*
X7467701Y-3582898D03*
G01*
X7543901Y-3582898D03*
G01*
X7620101Y-3582898D03*
G01*
X7696301Y-3582898D03*
G01*
X7772501Y-3582898D03*
G01*
X6934301Y-3659098D03*
G01*
X7010501Y-3659098D03*
G01*
X7086701Y-3659098D03*
G01*
X7162901Y-3659098D03*
G01*
X7239101Y-3659098D03*
G01*
X7315301Y-3659098D03*
G01*
X7391501Y-3659098D03*
G01*
X7467701Y-3659098D03*
G01*
X7543901Y-3659098D03*
G01*
X7620101Y-3659098D03*
G01*
X7696301Y-3659098D03*
G01*
X7772501Y-3659098D03*
G01*
X7848701Y-3125698D03*
G01*
X7924901Y-3125698D03*
G01*
X8001101Y-3125698D03*
G01*
X7848701Y-3201898D03*
G01*
X7924901Y-3201898D03*
G01*
X8001101Y-3201898D03*
G01*
X7848701Y-3278098D03*
G01*
X7924901Y-3278098D03*
G01*
X8001101Y-3278098D03*
G01*
X7848701Y-3354298D03*
G01*
X7924901Y-3354298D03*
G01*
X8001101Y-3354298D03*
G01*
X7848701Y-3430498D03*
G01*
X7924901Y-3430498D03*
G01*
X8001101Y-3430498D03*
G01*
X7848701Y-3506698D03*
G01*
X7924901Y-3506698D03*
G01*
X8001101Y-3506698D03*
G01*
X7848701Y-3582898D03*
G01*
X7924901Y-3582898D03*
G01*
X8001101Y-3582898D03*
G01*
X7848701Y-3659098D03*
G01*
X7924901Y-3659098D03*
G01*
X8001101Y-3659098D03*
G01*
X6934301Y-2820898D03*
G01*
X7010501Y-2820898D03*
G01*
X7086701Y-2820898D03*
G01*
X7162901Y-2820898D03*
G01*
X7239101Y-2820898D03*
G01*
X7315301Y-2820898D03*
G01*
X7391501Y-2820898D03*
G01*
X7467701Y-2820898D03*
G01*
X7543901Y-2820898D03*
G01*
X7620101Y-2820898D03*
G01*
X7696301Y-2820898D03*
G01*
X7772501Y-2820898D03*
G01*
X6934301Y-2897098D03*
G01*
X7010501Y-2897098D03*
G01*
X7086701Y-2897098D03*
G01*
X7162901Y-2897098D03*
G01*
X7239101Y-2897098D03*
G01*
X7315301Y-2897098D03*
G01*
X7391501Y-2897098D03*
G01*
X7467701Y-2897098D03*
G01*
X7543901Y-2897098D03*
G01*
X7620101Y-2897098D03*
G01*
X7696301Y-2897098D03*
G01*
X7772501Y-2897098D03*
G01*
X6934301Y-2973298D03*
G01*
X7010501Y-2973298D03*
G01*
X7086701Y-2973298D03*
G01*
X7162901Y-2973298D03*
G01*
X7239101Y-2973298D03*
G01*
X7315301Y-2973298D03*
G01*
X7391501Y-2973298D03*
G01*
X7467701Y-2973298D03*
G01*
X7543901Y-2973298D03*
G01*
X7620101Y-2973298D03*
G01*
X7696301Y-2973298D03*
G01*
X7772501Y-2973298D03*
G01*
X6934301Y-3049498D03*
G01*
X7010501Y-3049498D03*
G01*
X7086701Y-3049498D03*
G01*
X7162901Y-3049498D03*
G01*
X7239101Y-3049498D03*
G01*
X7315301Y-3049498D03*
G01*
X7391501Y-3049498D03*
G01*
X7467701Y-3049498D03*
G01*
X7543901Y-3049498D03*
G01*
X7620101Y-3049498D03*
G01*
X7696301Y-3049498D03*
G01*
X7772501Y-3049498D03*
G01*
X7848701Y-2820898D03*
G01*
X7924901Y-2820898D03*
G01*
X8001101Y-2820898D03*
G01*
X7848701Y-2897098D03*
G01*
X7924901Y-2897098D03*
G01*
X8001101Y-2897098D03*
G01*
X7848701Y-2973298D03*
G01*
X7924901Y-2973298D03*
G01*
X8001101Y-2973298D03*
G01*
X7848701Y-3049498D03*
G01*
X7924901Y-3049498D03*
G01*
X8001101Y-3049498D03*
G01*
X10167620Y-3124200D03*
G01*
X10243820Y-3124200D03*
G01*
X10320020Y-3124200D03*
G01*
X10396220Y-3124200D03*
G01*
X10472420Y-3124200D03*
G01*
X10548620Y-3124200D03*
G01*
X10624820Y-3124200D03*
G01*
X10701020Y-3124200D03*
G01*
X10777220Y-3124200D03*
G01*
X10853420Y-3124200D03*
G01*
X10929620Y-3124200D03*
G01*
X11005820Y-3124200D03*
G01*
X10167620Y-3200400D03*
G01*
X10243820Y-3200400D03*
G01*
X10320020Y-3200400D03*
G01*
X10396220Y-3200400D03*
G01*
X10472420Y-3200400D03*
G01*
X10548620Y-3200400D03*
G01*
X10624820Y-3200400D03*
G01*
X10701020Y-3200400D03*
G01*
X10777220Y-3200400D03*
G01*
X10853420Y-3200400D03*
G01*
X10929620Y-3200400D03*
G01*
X11005820Y-3200400D03*
G01*
X10167620Y-3276600D03*
G01*
X10243820Y-3276600D03*
G01*
X10320020Y-3276600D03*
G01*
X10396220Y-3276600D03*
G01*
X10472420Y-3276600D03*
G01*
X10548620Y-3276600D03*
G01*
X10624820Y-3276600D03*
G01*
X10701020Y-3276600D03*
G01*
X10777220Y-3276600D03*
G01*
X10853420Y-3276600D03*
G01*
X10929620Y-3276600D03*
G01*
X11005820Y-3276600D03*
G01*
X10167620Y-3352800D03*
G01*
X10243820Y-3352800D03*
G01*
X10320020Y-3352800D03*
G01*
X10396220Y-3352800D03*
G01*
X10472420Y-3352800D03*
G01*
X10548620Y-3352800D03*
G01*
X10624820Y-3352800D03*
G01*
X10701020Y-3352800D03*
G01*
X10777220Y-3352800D03*
G01*
X10853420Y-3352800D03*
G01*
X10929620Y-3352800D03*
G01*
X11005820Y-3352800D03*
G01*
X10167620Y-3429000D03*
G01*
X10243820Y-3429000D03*
G01*
X10320020Y-3429000D03*
G01*
X10396220Y-3429000D03*
G01*
X10472420Y-3429000D03*
G01*
X10548620Y-3429000D03*
G01*
X10624820Y-3429000D03*
G01*
X10701020Y-3429000D03*
G01*
X10777220Y-3429000D03*
G01*
X10853420Y-3429000D03*
G01*
X10929620Y-3429000D03*
G01*
X11005820Y-3429000D03*
G01*
X10167620Y-3505200D03*
G01*
X10243820Y-3505200D03*
G01*
X10320020Y-3505200D03*
G01*
X10396220Y-3505200D03*
G01*
X10472420Y-3505200D03*
G01*
X10548620Y-3505200D03*
G01*
X10624820Y-3505200D03*
G01*
X10701020Y-3505200D03*
G01*
X10777220Y-3505200D03*
G01*
X10853420Y-3505200D03*
G01*
X10929620Y-3505200D03*
G01*
X11005820Y-3505200D03*
G01*
X10167620Y-3581400D03*
G01*
X10243820Y-3581400D03*
G01*
X10320020Y-3581400D03*
G01*
X10396220Y-3581400D03*
G01*
X10472420Y-3581400D03*
G01*
X10548620Y-3581400D03*
G01*
X10624820Y-3581400D03*
G01*
X10701020Y-3581400D03*
G01*
X10777220Y-3581400D03*
G01*
X10853420Y-3581400D03*
G01*
X10929620Y-3581400D03*
G01*
X11005820Y-3581400D03*
G01*
X10167620Y-3657600D03*
G01*
X10243820Y-3657600D03*
G01*
X10320020Y-3657600D03*
G01*
X10396220Y-3657600D03*
G01*
X10472420Y-3657600D03*
G01*
X10548620Y-3657600D03*
G01*
X10624820Y-3657600D03*
G01*
X10701020Y-3657600D03*
G01*
X10777220Y-3657600D03*
G01*
X10853420Y-3657600D03*
G01*
X10929620Y-3657600D03*
G01*
X11005820Y-3657600D03*
G01*
X11082020Y-3124200D03*
G01*
X11158220Y-3124200D03*
G01*
X11234420Y-3124200D03*
G01*
X11082020Y-3200400D03*
G01*
X11158220Y-3200400D03*
G01*
X11234420Y-3200400D03*
G01*
X11082020Y-3276600D03*
G01*
X11158220Y-3276600D03*
G01*
X11234420Y-3276600D03*
G01*
X11082020Y-3352800D03*
G01*
X11158220Y-3352800D03*
G01*
X11234420Y-3352800D03*
G01*
X11082020Y-3429000D03*
G01*
X11158220Y-3429000D03*
G01*
X11234420Y-3429000D03*
G01*
X11082020Y-3505200D03*
G01*
X11158220Y-3505200D03*
G01*
X11234420Y-3505200D03*
G01*
X11082020Y-3581400D03*
G01*
X11158220Y-3581400D03*
G01*
X11234420Y-3581400D03*
G01*
X11082020Y-3657600D03*
G01*
X11158220Y-3657600D03*
G01*
X11234420Y-3657600D03*
G01*
X10167620Y-2819400D03*
G01*
X10243820Y-2819400D03*
G01*
X10320020Y-2819400D03*
G01*
X10396220Y-2819400D03*
G01*
X10472420Y-2819400D03*
G01*
X10548620Y-2819400D03*
G01*
X10624820Y-2819400D03*
G01*
X10701020Y-2819400D03*
G01*
X10777220Y-2819400D03*
G01*
X10853420Y-2819400D03*
G01*
X10929620Y-2819400D03*
G01*
X11005820Y-2819400D03*
G01*
X10167620Y-2895600D03*
G01*
X10243820Y-2895600D03*
G01*
X10320020Y-2895600D03*
G01*
X10396220Y-2895600D03*
G01*
X10472420Y-2895600D03*
G01*
X10548620Y-2895600D03*
G01*
X10624820Y-2895600D03*
G01*
X10701020Y-2895600D03*
G01*
X10777220Y-2895600D03*
G01*
X10853420Y-2895600D03*
G01*
X10929620Y-2895600D03*
G01*
X11005820Y-2895600D03*
G01*
X10167620Y-2971800D03*
G01*
X10243820Y-2971800D03*
G01*
X10320020Y-2971800D03*
G01*
X10396220Y-2971800D03*
G01*
X10472420Y-2971800D03*
G01*
X10548620Y-2971800D03*
G01*
X10624820Y-2971800D03*
G01*
X10701020Y-2971800D03*
G01*
X10777220Y-2971800D03*
G01*
X10853420Y-2971800D03*
G01*
X10929620Y-2971800D03*
G01*
X11005820Y-2971800D03*
G01*
X10167620Y-3048000D03*
G01*
X10243820Y-3048000D03*
G01*
X10320020Y-3048000D03*
G01*
X10396220Y-3048000D03*
G01*
X10472420Y-3048000D03*
G01*
X10548620Y-3048000D03*
G01*
X10624820Y-3048000D03*
G01*
X10701020Y-3048000D03*
G01*
X10777220Y-3048000D03*
G01*
X10853420Y-3048000D03*
G01*
X10929620Y-3048000D03*
G01*
X11005820Y-3048000D03*
G01*
X11082020Y-2819400D03*
G01*
X11158220Y-2819400D03*
G01*
X11234420Y-2819400D03*
G01*
X11082020Y-2895600D03*
G01*
X11158220Y-2895600D03*
G01*
X11234420Y-2895600D03*
G01*
X11082020Y-2971800D03*
G01*
X11158220Y-2971800D03*
G01*
X11234420Y-2971800D03*
G01*
X11082020Y-3048000D03*
G01*
X11158220Y-3048000D03*
G01*
X11234420Y-3048000D03*
G01*
X13412114Y-3132226D03*
G01*
X13488314Y-3132226D03*
G01*
X13564514Y-3132226D03*
G01*
X13640714Y-3132226D03*
G01*
X13716914Y-3132226D03*
G01*
X13793114Y-3132226D03*
G01*
X13869314Y-3132226D03*
G01*
X13945514Y-3132226D03*
G01*
X14021714Y-3132226D03*
G01*
X14097914Y-3132226D03*
G01*
X14174114Y-3132226D03*
G01*
X14250314Y-3132226D03*
G01*
X13412114Y-3208426D03*
G01*
X13488314Y-3208426D03*
G01*
X13564514Y-3208426D03*
G01*
X13640714Y-3208426D03*
G01*
X13716914Y-3208426D03*
G01*
X13793114Y-3208426D03*
G01*
X13869314Y-3208426D03*
G01*
X13945514Y-3208426D03*
G01*
X14021714Y-3208426D03*
G01*
X14097914Y-3208426D03*
G01*
X14174114Y-3208426D03*
G01*
X14250314Y-3208426D03*
G01*
X13412114Y-3284626D03*
G01*
X13488314Y-3284626D03*
G01*
X13564514Y-3284626D03*
G01*
X13640714Y-3284626D03*
G01*
X13716914Y-3284626D03*
G01*
X13793114Y-3284626D03*
G01*
X13869314Y-3284626D03*
G01*
X13945514Y-3284626D03*
G01*
X14021714Y-3284626D03*
G01*
X14097914Y-3284626D03*
G01*
X14174114Y-3284626D03*
G01*
X14250314Y-3284626D03*
G01*
X13412114Y-3360826D03*
G01*
X13488314Y-3360826D03*
G01*
X13564514Y-3360826D03*
G01*
X13640714Y-3360826D03*
G01*
X13716914Y-3360826D03*
G01*
X13793114Y-3360826D03*
G01*
X13869314Y-3360826D03*
G01*
X13945514Y-3360826D03*
G01*
X14021714Y-3360826D03*
G01*
X14097914Y-3360826D03*
G01*
X14174114Y-3360826D03*
G01*
X14250314Y-3360826D03*
G01*
X13412114Y-3437026D03*
G01*
X13488314Y-3437026D03*
G01*
X13564514Y-3437026D03*
G01*
X13640714Y-3437026D03*
G01*
X13716914Y-3437026D03*
G01*
X13793114Y-3437026D03*
G01*
X13869314Y-3437026D03*
G01*
X13945514Y-3437026D03*
G01*
X14021714Y-3437026D03*
G01*
X14097914Y-3437026D03*
G01*
X14174114Y-3437026D03*
G01*
X14250314Y-3437026D03*
G01*
X13412114Y-3513226D03*
G01*
X13488314Y-3513226D03*
G01*
X13564514Y-3513226D03*
G01*
X13640714Y-3513226D03*
G01*
X13716914Y-3513226D03*
G01*
X13793114Y-3513226D03*
G01*
X13869314Y-3513226D03*
G01*
X13945514Y-3513226D03*
G01*
X14021714Y-3513226D03*
G01*
X14097914Y-3513226D03*
G01*
X14174114Y-3513226D03*
G01*
X14250314Y-3513226D03*
G01*
X13412114Y-3589426D03*
G01*
X13488314Y-3589426D03*
G01*
X13564514Y-3589426D03*
G01*
X13640714Y-3589426D03*
G01*
X13716914Y-3589426D03*
G01*
X13793114Y-3589426D03*
G01*
X13869314Y-3589426D03*
G01*
X13945514Y-3589426D03*
G01*
X14021714Y-3589426D03*
G01*
X14097914Y-3589426D03*
G01*
X14174114Y-3589426D03*
G01*
X14250314Y-3589426D03*
G01*
X13412114Y-3665626D03*
G01*
X13488314Y-3665626D03*
G01*
X13564514Y-3665626D03*
G01*
X13640714Y-3665626D03*
G01*
X13716914Y-3665626D03*
G01*
X13793114Y-3665626D03*
G01*
X13869314Y-3665626D03*
G01*
X13945514Y-3665626D03*
G01*
X14021714Y-3665626D03*
G01*
X14097914Y-3665626D03*
G01*
X14174114Y-3665626D03*
G01*
X14250314Y-3665626D03*
G01*
X14326514Y-3132226D03*
G01*
X14402714Y-3132226D03*
G01*
X14478914Y-3132226D03*
G01*
X14326514Y-3208426D03*
G01*
X14402714Y-3208426D03*
G01*
X14478914Y-3208426D03*
G01*
X14326514Y-3284626D03*
G01*
X14402714Y-3284626D03*
G01*
X14478914Y-3284626D03*
G01*
X14326514Y-3360826D03*
G01*
X14402714Y-3360826D03*
G01*
X14478914Y-3360826D03*
G01*
X14326514Y-3437026D03*
G01*
X14402714Y-3437026D03*
G01*
X14478914Y-3437026D03*
G01*
X14326514Y-3513226D03*
G01*
X14402714Y-3513226D03*
G01*
X14478914Y-3513226D03*
G01*
X14326514Y-3589426D03*
G01*
X14402714Y-3589426D03*
G01*
X14478914Y-3589426D03*
G01*
X14326514Y-3665626D03*
G01*
X14402714Y-3665626D03*
G01*
X14478914Y-3665626D03*
G01*
X13412114Y-2827426D03*
G01*
X13488314Y-2827426D03*
G01*
X13564514Y-2827426D03*
G01*
X13640714Y-2827426D03*
G01*
X13716914Y-2827426D03*
G01*
X13793114Y-2827426D03*
G01*
X13869314Y-2827426D03*
G01*
X13945514Y-2827426D03*
G01*
X14021714Y-2827426D03*
G01*
X14097914Y-2827426D03*
G01*
X14174114Y-2827426D03*
G01*
X14250314Y-2827426D03*
G01*
X13412114Y-2903626D03*
G01*
X13488314Y-2903626D03*
G01*
X13564514Y-2903626D03*
G01*
X13640714Y-2903626D03*
G01*
X13716914Y-2903626D03*
G01*
X13793114Y-2903626D03*
G01*
X13869314Y-2903626D03*
G01*
X13945514Y-2903626D03*
G01*
X14021714Y-2903626D03*
G01*
X14097914Y-2903626D03*
G01*
X14174114Y-2903626D03*
G01*
X14250314Y-2903626D03*
G01*
X13412114Y-2979826D03*
G01*
X13488314Y-2979826D03*
G01*
X13564514Y-2979826D03*
G01*
X13640714Y-2979826D03*
G01*
X13716914Y-2979826D03*
G01*
X13793114Y-2979826D03*
G01*
X13869314Y-2979826D03*
G01*
X13945514Y-2979826D03*
G01*
X14021714Y-2979826D03*
G01*
X14097914Y-2979826D03*
G01*
X14174114Y-2979826D03*
G01*
X14250314Y-2979826D03*
G01*
X13412114Y-3056026D03*
G01*
X13488314Y-3056026D03*
G01*
X13564514Y-3056026D03*
G01*
X13640714Y-3056026D03*
G01*
X13716914Y-3056026D03*
G01*
X13793114Y-3056026D03*
G01*
X13869314Y-3056026D03*
G01*
X13945514Y-3056026D03*
G01*
X14021714Y-3056026D03*
G01*
X14097914Y-3056026D03*
G01*
X14174114Y-3056026D03*
G01*
X14250314Y-3056026D03*
G01*
X14326514Y-2827426D03*
G01*
X14402714Y-2827426D03*
G01*
X14478914Y-2827426D03*
G01*
X14326514Y-2903626D03*
G01*
X14402714Y-2903626D03*
G01*
X14478914Y-2903626D03*
G01*
X14326514Y-2979826D03*
G01*
X14402714Y-2979826D03*
G01*
X14478914Y-2979826D03*
G01*
X14326514Y-3056026D03*
G01*
X14402714Y-3056026D03*
G01*
X14478914Y-3056026D03*
G01*
X13892250Y-8469096D03*
G01*
X13968450Y-8469096D03*
G01*
X14044650Y-8469096D03*
G01*
X14120850Y-8469096D03*
G01*
X14197050Y-8469096D03*
G01*
X14273250Y-8469096D03*
G01*
X14349450Y-8469096D03*
G01*
X14425650Y-8469096D03*
G01*
X14501850Y-8469096D03*
G01*
X14578050Y-8469096D03*
G01*
X14654250Y-8469096D03*
G01*
X14730450Y-8469096D03*
G01*
X13892250Y-8545296D03*
G01*
X13968450Y-8545296D03*
G01*
X14044650Y-8545296D03*
G01*
X14120850Y-8545296D03*
G01*
X14197050Y-8545296D03*
G01*
X14273250Y-8545296D03*
G01*
X14349450Y-8545296D03*
G01*
X14425650Y-8545296D03*
G01*
X14501850Y-8545296D03*
G01*
X14578050Y-8545296D03*
G01*
X14654250Y-8545296D03*
G01*
X14730450Y-8545296D03*
G01*
X14806650Y-8469096D03*
G01*
X14882850Y-8469096D03*
G01*
X14959050Y-8469096D03*
G01*
X14806650Y-8545296D03*
G01*
X14882850Y-8545296D03*
G01*
X14959050Y-8545296D03*
G01*
X13892250Y-8164296D03*
G01*
X13968450Y-8164296D03*
G01*
X14044650Y-8164296D03*
G01*
X14120850Y-8164296D03*
G01*
X14197050Y-8164296D03*
G01*
X14273250Y-8164296D03*
G01*
X14349450Y-8164296D03*
G01*
X14425650Y-8164296D03*
G01*
X14501850Y-8164296D03*
G01*
X14578050Y-8164296D03*
G01*
X14654250Y-8164296D03*
G01*
X14730450Y-8164296D03*
G01*
X13892250Y-8240496D03*
G01*
X13968450Y-8240496D03*
G01*
X14044650Y-8240496D03*
G01*
X14120850Y-8240496D03*
G01*
X14197050Y-8240496D03*
G01*
X14273250Y-8240496D03*
G01*
X14349450Y-8240496D03*
G01*
X14425650Y-8240496D03*
G01*
X14501850Y-8240496D03*
G01*
X14578050Y-8240496D03*
G01*
X14654250Y-8240496D03*
G01*
X14730450Y-8240496D03*
G01*
X13892250Y-8316696D03*
G01*
X13968450Y-8316696D03*
G01*
X14044650Y-8316696D03*
G01*
X14120850Y-8316696D03*
G01*
X14197050Y-8316696D03*
G01*
X14273250Y-8316696D03*
G01*
X14349450Y-8316696D03*
G01*
X14425650Y-8316696D03*
G01*
X14501850Y-8316696D03*
G01*
X14578050Y-8316696D03*
G01*
X14654250Y-8316696D03*
G01*
X14730450Y-8316696D03*
G01*
X13892250Y-8392896D03*
G01*
X13968450Y-8392896D03*
G01*
X14044650Y-8392896D03*
G01*
X14120850Y-8392896D03*
G01*
X14197050Y-8392896D03*
G01*
X14273250Y-8392896D03*
G01*
X14349450Y-8392896D03*
G01*
X14425650Y-8392896D03*
G01*
X14501850Y-8392896D03*
G01*
X14578050Y-8392896D03*
G01*
X14654250Y-8392896D03*
G01*
X14730450Y-8392896D03*
G01*
X14806650Y-8164296D03*
G01*
X14882850Y-8164296D03*
G01*
X14959050Y-8164296D03*
G01*
X14806650Y-8240496D03*
G01*
X14882850Y-8240496D03*
G01*
X14959050Y-8240496D03*
G01*
X14806650Y-8316696D03*
G01*
X14882850Y-8316696D03*
G01*
X14959050Y-8316696D03*
G01*
X14806650Y-8392896D03*
G01*
X14882850Y-8392896D03*
G01*
X14959050Y-8392896D03*
G01*
X3708400Y-7962900D03*
G01*
X4483100Y-7289800D03*
G01*
X1092200Y-9156700D03*
M02*
