M48
METRIC,LZ,000.000
;FILE_FORMAT=3:3
;TYPE=PLATED
;Layer: Drill PTH
;EasyEDA v6.4.25, 2022-01-11T20:07:54+10:00
;7104220f9c2d43f39f118c43d8da538e,d80d0e5f2d5a449f809f9e2067d82b7d,10
;Gerber Generator version 0.2
;Holesize 1 = 0.305 mm
T01C0.305
;Holesize 2 = 0.306 mm
T02C0.306
;Holesize 3 = 0.889 mm
T03C0.889
;Holesize 4 = 0.901 mm
T04C0.901
;Holesize 5 = 1.000 mm
T05C1.000
;Holesize 6 = 1.501 mm
T06C1.501
;Holesize 7 = 1.600 mm
T07C1.600
%
G05
G90
T01
X065024Y-087503
X048641Y-087630
X061976Y-086233
X045593Y-086233
X011938Y-025273
X022479Y-025273
X011580Y-089789
X006350Y-088040
X032512Y-077851
X016416Y-081313
X025273Y-082067
X006731Y-077470
X019431Y-079375
X013462Y-075946
X018923Y-078359
X013219Y-073660
X006350Y-088773
X012319Y-089789
X013843Y-056515
X005461Y-063902
X002286Y-062505
X010795Y-065786
X017272Y-043053
X019812Y-055499
X014986Y-066040
X014986Y-067056
X017907Y-057277
X018542Y-056642
X015875Y-058039
X007747Y-048006
X015875Y-052451
X012573Y-056261
X014605Y-055499
X011176Y-055118
X013208Y-053086
X013970Y-050419
X013970Y-051435
X018288Y-050419
X018796Y-049657
X010541Y-033020
X032131Y-058166
X023749Y-033655
X029083Y-053975
X014789Y-041783
X031369Y-061214
X019869Y-042418
X032258Y-060452
X029718Y-040640
X029718Y-043434
X020828Y-048006
X025400Y-053086
X026797Y-065278
X025654Y-072136
X022606Y-074295
X008509Y-083439
X020447Y-056388
X021717Y-058547
X028702Y-085852
X020828Y-057658
X023241Y-058293
X029021Y-064643
X033147Y-083693
X054356Y-095250
X036068Y-081661
X057785Y-087630
X074549Y-087630
X078740Y-086233
X081788Y-087376
X091567Y-087630
X095631Y-086233
X098425Y-087376
X109728Y-089662
X112395Y-089662
X047244Y-090805
X050800Y-090424
X008509Y-062357
X020320Y-070485
X032512Y-067437
X041148Y-084836
X043307Y-088138
X019685Y-069723
X032512Y-068453
X040386Y-083947
X058801Y-089535
X013081Y-060198
X014224Y-064262
X017272Y-062865
X019050Y-070485
X032512Y-069342
X039751Y-083058
X077470Y-090297
X018415Y-069723
X027686Y-075946
X029083Y-080264
X027813Y-079248
X038989Y-082042
X093599Y-089916
X017780Y-070485
X032512Y-070231
X032512Y-071247
X038354Y-081153
X047244Y-093472
X017145Y-069723
X032512Y-072136
X037719Y-080391
X079883Y-091948
X020955Y-069723
X075403Y-092202
X039116Y-004318
X036964Y-031281
X037726Y-031281
X038488Y-031281
X039250Y-031281
X040012Y-031281
X040774Y-031281
X041536Y-031281
X042298Y-031281
X043060Y-031281
X043822Y-031281
X044584Y-031281
X045346Y-031281
X036964Y-032043
X037726Y-032043
X038488Y-032043
X039250Y-032043
X040012Y-032043
X040774Y-032043
X041536Y-032043
X042298Y-032043
X043060Y-032043
X043822Y-032043
X044584Y-032043
X045346Y-032043
X036964Y-032805
X037726Y-032805
X038488Y-032805
X039250Y-032805
X040012Y-032805
X040774Y-032805
X041536Y-032805
X042298Y-032805
X043060Y-032805
X043822Y-032805
X044584Y-032805
X045346Y-032805
X036964Y-033567
X037726Y-033567
X038488Y-033567
X039250Y-033567
X040012Y-033567
X040774Y-033567
X041536Y-033567
X042298Y-033567
X043060Y-033567
X043822Y-033567
X044584Y-033567
X045346Y-033567
X036964Y-034329
X037726Y-034329
X038488Y-034329
X039250Y-034329
X040012Y-034329
X040774Y-034329
X041536Y-034329
X042298Y-034329
X043060Y-034329
X043822Y-034329
X044584Y-034329
X045346Y-034329
X036964Y-035091
X037726Y-035091
X038488Y-035091
X039250Y-035091
X040012Y-035091
X040774Y-035091
X041536Y-035091
X042298Y-035091
X043060Y-035091
X043822Y-035091
X044584Y-035091
X045346Y-035091
X036964Y-035853
X037726Y-035853
X038488Y-035853
X039250Y-035853
X040012Y-035853
X040774Y-035853
X041536Y-035853
X042298Y-035853
X043060Y-035853
X043822Y-035853
X044584Y-035853
X045346Y-035853
X036964Y-036615
X037726Y-036615
X038488Y-036615
X039250Y-036615
X040012Y-036615
X040774Y-036615
X041536Y-036615
X042298Y-036615
X043060Y-036615
X043822Y-036615
X044584Y-036615
X045346Y-036615
X046108Y-031281
X046870Y-031281
X047632Y-031281
X046108Y-032043
X046870Y-032043
X047632Y-032043
X046108Y-032805
X046870Y-032805
X047632Y-032805
X046108Y-033567
X046870Y-033567
X047632Y-033567
X046108Y-034329
X046870Y-034329
X047632Y-034329
X046108Y-035091
X046870Y-035091
X047632Y-035091
X046108Y-035853
X046870Y-035853
X047632Y-035853
X046108Y-036615
X046870Y-036615
X047632Y-036615
X036964Y-028233
X037726Y-028233
X038488Y-028233
X039250Y-028233
X040012Y-028233
X040774Y-028233
X041536Y-028233
X042298Y-028233
X043060Y-028233
X043822Y-028233
X044584Y-028233
X045346Y-028233
X036964Y-028995
X037726Y-028995
X038488Y-028995
X039250Y-028995
X040012Y-028995
X040774Y-028995
X041536Y-028995
X042298Y-028995
X043060Y-028995
X043822Y-028995
X044584Y-028995
X045346Y-028995
X036964Y-029757
X037726Y-029757
X038488Y-029757
X039250Y-029757
X040012Y-029757
X040774Y-029757
X041536Y-029757
X042298Y-029757
X043060Y-029757
X043822Y-029757
X044584Y-029757
X045346Y-029757
X036964Y-030519
X037726Y-030519
X038488Y-030519
X039250Y-030519
X040012Y-030519
X040774Y-030519
X041536Y-030519
X042298Y-030519
X043060Y-030519
X043822Y-030519
X044584Y-030519
X045346Y-030519
X046108Y-028233
X046870Y-028233
X047632Y-028233
X046108Y-028995
X046870Y-028995
X047632Y-028995
X046108Y-029757
X046870Y-029757
X047632Y-029757
X046108Y-030519
X046870Y-030519
X047632Y-030519
X069343Y-031257
X070105Y-031257
X070867Y-031257
X071629Y-031257
X072391Y-031257
X073153Y-031257
X073915Y-031257
X074677Y-031257
X075439Y-031257
X076201Y-031257
X076963Y-031257
X077725Y-031257
X069343Y-032019
X070105Y-032019
X070867Y-032019
X071629Y-032019
X072391Y-032019
X073153Y-032019
X073915Y-032019
X074677Y-032019
X075439Y-032019
X076201Y-032019
X076963Y-032019
X077725Y-032019
X069343Y-032781
X070105Y-032781
X070867Y-032781
X071629Y-032781
X072391Y-032781
X073153Y-032781
X073915Y-032781
X074677Y-032781
X075439Y-032781
X076201Y-032781
X076963Y-032781
X077725Y-032781
X069343Y-033543
X070105Y-033543
X070867Y-033543
X071629Y-033543
X072391Y-033543
X073153Y-033543
X073915Y-033543
X074677Y-033543
X075439Y-033543
X076201Y-033543
X076963Y-033543
X077725Y-033543
X069343Y-034305
X070105Y-034305
X070867Y-034305
X071629Y-034305
X072391Y-034305
X073153Y-034305
X073915Y-034305
X074677Y-034305
X075439Y-034305
X076201Y-034305
X076963Y-034305
X077725Y-034305
X069343Y-035067
X070105Y-035067
X070867Y-035067
X071629Y-035067
X072391Y-035067
X073153Y-035067
X073915Y-035067
X074677Y-035067
X075439Y-035067
X076201Y-035067
X076963Y-035067
X077725Y-035067
X069343Y-035829
X070105Y-035829
X070867Y-035829
X071629Y-035829
X072391Y-035829
X073153Y-035829
X073915Y-035829
X074677Y-035829
X075439Y-035829
X076201Y-035829
X076963Y-035829
X077725Y-035829
X069343Y-036591
X070105Y-036591
X070867Y-036591
X071629Y-036591
X072391Y-036591
X073153Y-036591
X073915Y-036591
X074677Y-036591
X075439Y-036591
X076201Y-036591
X076963Y-036591
X077725Y-036591
X078487Y-031257
X079249Y-031257
X080011Y-031257
X078487Y-032019
X079249Y-032019
X080011Y-032019
X078487Y-032781
X079249Y-032781
X080011Y-032781
X078487Y-033543
X079249Y-033543
X080011Y-033543
X078487Y-034305
X079249Y-034305
X080011Y-034305
X078487Y-035067
X079249Y-035067
X080011Y-035067
X078487Y-035829
X079249Y-035829
X080011Y-035829
X078487Y-036591
X079249Y-036591
X080011Y-036591
X069343Y-028209
X070105Y-028209
X070867Y-028209
X071629Y-028209
X072391Y-028209
X073153Y-028209
X073915Y-028209
X074677Y-028209
X075439Y-028209
X076201Y-028209
X076963Y-028209
X077725Y-028209
X069343Y-028971
X070105Y-028971
X070867Y-028971
X071629Y-028971
X072391Y-028971
X073153Y-028971
X073915Y-028971
X074677Y-028971
X075439Y-028971
X076201Y-028971
X076963Y-028971
X077725Y-028971
X069343Y-029733
X070105Y-029733
X070867Y-029733
X071629Y-029733
X072391Y-029733
X073153Y-029733
X073915Y-029733
X074677Y-029733
X075439Y-029733
X076201Y-029733
X076963Y-029733
X077725Y-029733
X069343Y-030495
X070105Y-030495
X070867Y-030495
X071629Y-030495
X072391Y-030495
X073153Y-030495
X073915Y-030495
X074677Y-030495
X075439Y-030495
X076201Y-030495
X076963Y-030495
X077725Y-030495
X078487Y-028209
X079249Y-028209
X080011Y-028209
X078487Y-028971
X079249Y-028971
X080011Y-028971
X078487Y-029733
X079249Y-029733
X080011Y-029733
X078487Y-030495
X079249Y-030495
X080011Y-030495
X101676Y-031242
X102438Y-031242
X103200Y-031242
X103962Y-031242
X104724Y-031242
X105486Y-031242
X106248Y-031242
X107010Y-031242
X107772Y-031242
X108534Y-031242
X109296Y-031242
X110058Y-031242
X101676Y-032004
X102438Y-032004
X103200Y-032004
X103962Y-032004
X104724Y-032004
X105486Y-032004
X106248Y-032004
X107010Y-032004
X107772Y-032004
X108534Y-032004
X109296Y-032004
X110058Y-032004
X101676Y-032766
X102438Y-032766
X103200Y-032766
X103962Y-032766
X104724Y-032766
X105486Y-032766
X106248Y-032766
X107010Y-032766
X107772Y-032766
X108534Y-032766
X109296Y-032766
X110058Y-032766
X101676Y-033528
X102438Y-033528
X103200Y-033528
X103962Y-033528
X104724Y-033528
X105486Y-033528
X106248Y-033528
X107010Y-033528
X107772Y-033528
X108534Y-033528
X109296Y-033528
X110058Y-033528
X101676Y-034290
X102438Y-034290
X103200Y-034290
X103962Y-034290
X104724Y-034290
X105486Y-034290
X106248Y-034290
X107010Y-034290
X107772Y-034290
X108534Y-034290
X109296Y-034290
X110058Y-034290
X101676Y-035052
X102438Y-035052
X103200Y-035052
X103962Y-035052
X104724Y-035052
X105486Y-035052
X106248Y-035052
X107010Y-035052
X107772Y-035052
X108534Y-035052
X109296Y-035052
X110058Y-035052
X101676Y-035814
X102438Y-035814
X103200Y-035814
X103962Y-035814
X104724Y-035814
X105486Y-035814
X106248Y-035814
X107010Y-035814
X107772Y-035814
X108534Y-035814
X109296Y-035814
X110058Y-035814
X101676Y-036576
X102438Y-036576
X103200Y-036576
X103962Y-036576
X104724Y-036576
X105486Y-036576
X106248Y-036576
X107010Y-036576
X107772Y-036576
X108534Y-036576
X109296Y-036576
X110058Y-036576
X110820Y-031242
X111582Y-031242
X112344Y-031242
X110820Y-032004
X111582Y-032004
X112344Y-032004
X110820Y-032766
X111582Y-032766
X112344Y-032766
X110820Y-033528
X111582Y-033528
X112344Y-033528
X110820Y-034290
X111582Y-034290
X112344Y-034290
X110820Y-035052
X111582Y-035052
X112344Y-035052
X110820Y-035814
X111582Y-035814
X112344Y-035814
X110820Y-036576
X111582Y-036576
X112344Y-036576
X101676Y-028194
X102438Y-028194
X103200Y-028194
X103962Y-028194
X104724Y-028194
X105486Y-028194
X106248Y-028194
X107010Y-028194
X107772Y-028194
X108534Y-028194
X109296Y-028194
X110058Y-028194
X101676Y-028956
X102438Y-028956
X103200Y-028956
X103962Y-028956
X104724Y-028956
X105486Y-028956
X106248Y-028956
X107010Y-028956
X107772Y-028956
X108534Y-028956
X109296Y-028956
X110058Y-028956
X101676Y-029718
X102438Y-029718
X103200Y-029718
X103962Y-029718
X104724Y-029718
X105486Y-029718
X106248Y-029718
X107010Y-029718
X107772Y-029718
X108534Y-029718
X109296Y-029718
X110058Y-029718
X101676Y-030480
X102438Y-030480
X103200Y-030480
X103962Y-030480
X104724Y-030480
X105486Y-030480
X106248Y-030480
X107010Y-030480
X107772Y-030480
X108534Y-030480
X109296Y-030480
X110058Y-030480
X110820Y-028194
X111582Y-028194
X112344Y-028194
X110820Y-028956
X111582Y-028956
X112344Y-028956
X110820Y-029718
X111582Y-029718
X112344Y-029718
X110820Y-030480
X111582Y-030480
X112344Y-030480
X134121Y-031322
X134883Y-031322
X135645Y-031322
X136407Y-031322
X137169Y-031322
X137931Y-031322
X138693Y-031322
X139455Y-031322
X140217Y-031322
X140979Y-031322
X141741Y-031322
X142503Y-031322
X134121Y-032084
X134883Y-032084
X135645Y-032084
X136407Y-032084
X137169Y-032084
X137931Y-032084
X138693Y-032084
X139455Y-032084
X140217Y-032084
X140979Y-032084
X141741Y-032084
X142503Y-032084
X134121Y-032846
X134883Y-032846
X135645Y-032846
X136407Y-032846
X137169Y-032846
X137931Y-032846
X138693Y-032846
X139455Y-032846
X140217Y-032846
X140979Y-032846
X141741Y-032846
X142503Y-032846
X134121Y-033608
X134883Y-033608
X135645Y-033608
X136407Y-033608
X137169Y-033608
X137931Y-033608
X138693Y-033608
X139455Y-033608
X140217Y-033608
X140979Y-033608
X141741Y-033608
X142503Y-033608
X134121Y-034370
X134883Y-034370
X135645Y-034370
X136407Y-034370
X137169Y-034370
X137931Y-034370
X138693Y-034370
X139455Y-034370
X140217Y-034370
X140979Y-034370
X141741Y-034370
X142503Y-034370
X134121Y-035132
X134883Y-035132
X135645Y-035132
X136407Y-035132
X137169Y-035132
X137931Y-035132
X138693Y-035132
X139455Y-035132
X140217Y-035132
X140979Y-035132
X141741Y-035132
X142503Y-035132
X134121Y-035894
X134883Y-035894
X135645Y-035894
X136407Y-035894
X137169Y-035894
X137931Y-035894
X138693Y-035894
X139455Y-035894
X140217Y-035894
X140979Y-035894
X141741Y-035894
X142503Y-035894
X134121Y-036656
X134883Y-036656
X135645Y-036656
X136407Y-036656
X137169Y-036656
X137931Y-036656
X138693Y-036656
X139455Y-036656
X140217Y-036656
X140979Y-036656
X141741Y-036656
X142503Y-036656
X143265Y-031322
X144027Y-031322
X144789Y-031322
X143265Y-032084
X144027Y-032084
X144789Y-032084
X143265Y-032846
X144027Y-032846
X144789Y-032846
X143265Y-033608
X144027Y-033608
X144789Y-033608
X143265Y-034370
X144027Y-034370
X144789Y-034370
X143265Y-035132
X144027Y-035132
X144789Y-035132
X143265Y-035894
X144027Y-035894
X144789Y-035894
X143265Y-036656
X144027Y-036656
X144789Y-036656
X134121Y-028274
X134883Y-028274
X135645Y-028274
X136407Y-028274
X137169Y-028274
X137931Y-028274
X138693Y-028274
X139455Y-028274
X140217Y-028274
X140979Y-028274
X141741Y-028274
X142503Y-028274
X134121Y-029036
X134883Y-029036
X135645Y-029036
X136407Y-029036
X137169Y-029036
X137931Y-029036
X138693Y-029036
X139455Y-029036
X140217Y-029036
X140979Y-029036
X141741Y-029036
X142503Y-029036
X134121Y-029798
X134883Y-029798
X135645Y-029798
X136407Y-029798
X137169Y-029798
X137931Y-029798
X138693Y-029798
X139455Y-029798
X140217Y-029798
X140979Y-029798
X141741Y-029798
X142503Y-029798
X134121Y-030560
X134883Y-030560
X135645Y-030560
X136407Y-030560
X137169Y-030560
X137931Y-030560
X138693Y-030560
X139455Y-030560
X140217Y-030560
X140979Y-030560
X141741Y-030560
X142503Y-030560
X143265Y-028274
X144027Y-028274
X144789Y-028274
X143265Y-029036
X144027Y-029036
X144789Y-029036
X143265Y-029798
X144027Y-029798
X144789Y-029798
X143265Y-030560
X144027Y-030560
X144789Y-030560
X138923Y-084691
X139685Y-084691
X140447Y-084691
X141209Y-084691
X141971Y-084691
X142733Y-084691
X143495Y-084691
X144257Y-084691
X145019Y-084691
X145781Y-084691
X146543Y-084691
X147305Y-084691
X138923Y-085453
X139685Y-085453
X140447Y-085453
X141209Y-085453
X141971Y-085453
X142733Y-085453
X143495Y-085453
X144257Y-085453
X145019Y-085453
X145781Y-085453
X146543Y-085453
X147305Y-085453
X148067Y-084691
X148829Y-084691
X149591Y-084691
X148067Y-085453
X148829Y-085453
X149591Y-085453
X138923Y-081643
X139685Y-081643
X140447Y-081643
X141209Y-081643
X141971Y-081643
X142733Y-081643
X143495Y-081643
X144257Y-081643
X145019Y-081643
X145781Y-081643
X146543Y-081643
X147305Y-081643
X138923Y-082405
X139685Y-082405
X140447Y-082405
X141209Y-082405
X141971Y-082405
X142733Y-082405
X143495Y-082405
X144257Y-082405
X145019Y-082405
X145781Y-082405
X146543Y-082405
X147305Y-082405
X138923Y-083167
X139685Y-083167
X140447Y-083167
X141209Y-083167
X141971Y-083167
X142733Y-083167
X143495Y-083167
X144257Y-083167
X145019Y-083167
X145781Y-083167
X146543Y-083167
X147305Y-083167
X138923Y-083929
X139685Y-083929
X140447Y-083929
X141209Y-083929
X141971Y-083929
X142733Y-083929
X143495Y-083929
X144257Y-083929
X145019Y-083929
X145781Y-083929
X146543Y-083929
X147305Y-083929
X148067Y-081643
X148829Y-081643
X149591Y-081643
X148067Y-082405
X148829Y-082405
X149591Y-082405
X148067Y-083167
X148829Y-083167
X149591Y-083167
X148067Y-083929
X148829Y-083929
X149591Y-083929
X037084Y-079629
X044831Y-072898
X010922Y-091567
T02
X016002Y-037719
T03
X006604Y-067585
X004064Y-067585
X006604Y-065045
X004064Y-065045
X006604Y-062505
X004064Y-062505
X004064Y-049678
X004064Y-047138
X004064Y-044598
X004064Y-042058
T04
X013552Y-015113
X008452Y-015113
X010992Y-015113
X026934Y-015113
X021834Y-015113
X024374Y-015113
T05
X039878Y-006834
X050038Y-006834
X077089Y-006734
X066929Y-006734
X104648Y-006734
X114808Y-006734
X141859Y-006734
X131699Y-006734
T06
X071501Y-013780
X071501Y-021780
X110109Y-013780
X110109Y-021780
X136271Y-013780
X136271Y-021780
X152524Y-083439
X129924Y-083439
X045339Y-013780
X045339Y-021780
T07
X055984Y-005334
X060983Y-005334
X120754Y-005334
X125754Y-005334
X008503Y-005334
X013503Y-005334
X021884Y-005334
X026884Y-005334
X008803Y-099695
X013803Y-099695
X018803Y-099695
X023803Y-099695
X028803Y-099695
X033803Y-099695
X140709Y-099695
X145709Y-099695
X150709Y-099695
X043260Y-099695
X048260Y-099695
X053260Y-099695
M30
